<mxfile host="Electron" modified="2024-09-08T13:47:04.176Z" agent="Mozilla/5.0 (X11; Linux x86_64) AppleWebKit/537.36 (KHTML, like Gecko) draw.io/24.6.4 Chrome/124.0.6367.207 Electron/30.0.6 Safari/537.36" etag="caAjLRR0C_8Ss3Z12FfE" version="24.6.4" type="device">
  <diagram name="Page-1" id="_aAuNrGOCLHB18j1Kyuj">
    <mxGraphModel dx="1050" dy="607" grid="1" gridSize="10" guides="1" tooltips="1" connect="1" arrows="1" fold="1" page="1" pageScale="1" pageWidth="827" pageHeight="1169" math="0" shadow="0">
      <root>
        <mxCell id="0" />
        <mxCell id="1" parent="0" />
        <mxCell id="xbvdMizEcRErGRKFWVjV-18" value="" style="image;points=[];aspect=fixed;html=1;align=center;shadow=0;dashed=0;image=img/lib/allied_telesis/computer_and_terminals/Server_Desktop.svg;" parent="1" vertex="1">
          <mxGeometry x="639" y="320" width="142" height="180" as="geometry" />
        </mxCell>
        <mxCell id="JxxuHk10XyjqmYtLQA9z-26" style="edgeStyle=orthogonalEdgeStyle;rounded=0;orthogonalLoop=1;jettySize=auto;html=1;strokeWidth=3;" parent="1" source="xbvdMizEcRErGRKFWVjV-12" edge="1">
          <mxGeometry relative="1" as="geometry">
            <Array as="points">
              <mxPoint x="610" y="322" />
              <mxPoint x="610" y="390" />
            </Array>
            <mxPoint x="430.5000000000002" y="322" as="sourcePoint" />
            <mxPoint x="640" y="389.9999999999999" as="targetPoint" />
          </mxGeometry>
        </mxCell>
        <mxCell id="JxxuHk10XyjqmYtLQA9z-29" value="“I&#39;m Web Client !”" style="edgeLabel;html=1;align=center;verticalAlign=middle;resizable=0;points=[];fontFamily=Avenir;horizontal=1;fontSize=14;fontStyle=1;labelBackgroundColor=none;spacingTop=-18;spacingLeft=20;" parent="JxxuHk10XyjqmYtLQA9z-26" vertex="1" connectable="0">
          <mxGeometry x="-0.4753" relative="1" as="geometry">
            <mxPoint as="offset" />
          </mxGeometry>
        </mxCell>
        <mxCell id="JxxuHk10XyjqmYtLQA9z-25" style="edgeStyle=orthogonalEdgeStyle;rounded=0;orthogonalLoop=1;jettySize=auto;html=1;strokeWidth=3;" parent="1" edge="1">
          <mxGeometry relative="1" as="geometry">
            <mxPoint x="116.45999999999998" y="390" as="sourcePoint" />
            <mxPoint x="348.81999999999994" y="322" as="targetPoint" />
            <Array as="points">
              <mxPoint x="150" y="390" />
              <mxPoint x="150" y="322" />
            </Array>
          </mxGeometry>
        </mxCell>
        <mxCell id="JxxuHk10XyjqmYtLQA9z-27" style="edgeStyle=orthogonalEdgeStyle;rounded=0;orthogonalLoop=1;jettySize=auto;html=1;strokeWidth=3;" parent="1" target="xbvdMizEcRErGRKFWVjV-12" edge="1">
          <mxGeometry relative="1" as="geometry">
            <Array as="points">
              <mxPoint x="590" y="415" />
              <mxPoint x="590" y="348" />
            </Array>
            <mxPoint x="640" y="415.04761904761904" as="sourcePoint" />
            <mxPoint x="430.5000000000002" y="348.0000000000001" as="targetPoint" />
          </mxGeometry>
        </mxCell>
        <mxCell id="xbvdMizEcRErGRKFWVjV-1" value="&lt;font face=&quot;Courier New&quot;&gt;application/json&lt;/font&gt;" style="edgeLabel;html=1;align=center;verticalAlign=middle;resizable=0;points=[];spacingBottom=-15;labelBackgroundColor=none;spacingLeft=0;spacingRight=50;" parent="JxxuHk10XyjqmYtLQA9z-27" vertex="1" connectable="0">
          <mxGeometry x="0.2421" y="2" relative="1" as="geometry">
            <mxPoint as="offset" />
          </mxGeometry>
        </mxCell>
        <mxCell id="xbvdMizEcRErGRKFWVjV-2" value="" style="sketch=0;html=1;aspect=fixed;strokeColor=none;shadow=0;align=center;fillColor=#2D9C5E;verticalAlign=top;labelPosition=center;verticalLabelPosition=bottom;shape=mxgraph.gcp2.check" parent="1" vertex="1">
          <mxGeometry x="569" y="355" width="57" height="45.6" as="geometry" />
        </mxCell>
        <mxCell id="xbvdMizEcRErGRKFWVjV-3" style="edgeStyle=orthogonalEdgeStyle;rounded=0;orthogonalLoop=1;jettySize=auto;html=1;strokeWidth=3;entryX=0.988;entryY=0.526;entryDx=0;entryDy=0;entryPerimeter=0;" parent="1" source="xbvdMizEcRErGRKFWVjV-12" edge="1">
          <mxGeometry relative="1" as="geometry">
            <mxPoint x="340.0000000000001" y="349.9999999999999" as="sourcePoint" />
            <mxPoint x="116.27072000000004" y="419.94000000000005" as="targetPoint" />
            <Array as="points">
              <mxPoint x="170" y="350" />
              <mxPoint x="170" y="420" />
            </Array>
          </mxGeometry>
        </mxCell>
        <mxCell id="xbvdMizEcRErGRKFWVjV-4" value="&lt;font face=&quot;Courier New&quot;&gt;application/protobuf&lt;/font&gt;" style="edgeLabel;html=1;align=center;verticalAlign=middle;resizable=0;points=[];spacingTop=0;spacingBottom=-15;spacingRight=0;spacingLeft=70;labelBackgroundColor=none;" parent="xbvdMizEcRErGRKFWVjV-3" vertex="1" connectable="0">
          <mxGeometry x="-0.1541" y="1" relative="1" as="geometry">
            <mxPoint as="offset" />
          </mxGeometry>
        </mxCell>
        <mxCell id="xbvdMizEcRErGRKFWVjV-11" style="edgeStyle=orthogonalEdgeStyle;rounded=0;orthogonalLoop=1;jettySize=auto;html=1;entryX=0.978;entryY=0.48;entryDx=0;entryDy=0;entryPerimeter=0;" parent="1" edge="1">
          <mxGeometry relative="1" as="geometry">
            <mxPoint x="640" y="470.0322580645161" as="sourcePoint" />
            <mxPoint x="115.29632000000004" y="470.20000000000005" as="targetPoint" />
          </mxGeometry>
        </mxCell>
        <mxCell id="xbvdMizEcRErGRKFWVjV-12" value="" style="shape=image;imageAspect=0;aspect=fixed;verticalLabelPosition=bottom;verticalAlign=top;image=https://www.startpage.com/av/proxy-image?piurl=https%3A%2F%2Fstatic-00.iconduck.com%2Fassets.00%2Fnode-js-icon-909x1024-ig4gm9k7.png&amp;sp=1725801828Tf0e32107b745c4c190b7dbdb3f773263ee979f0400345463df26a48215155cba;" parent="1" vertex="1">
          <mxGeometry x="348.82" y="295" width="72.86" height="82" as="geometry" />
        </mxCell>
        <mxCell id="xbvdMizEcRErGRKFWVjV-13" value="" style="shape=image;imageAspect=0;aspect=fixed;verticalLabelPosition=bottom;verticalAlign=top;image=data:image/png,iVBORw0KGgoAAAANSUhEUgAAAmEAAASwCAYAAACzR537AAAAAXNSR0IArs4c6QAAIABJREFUeF7svQmYJMdZJvxlZl2ZdXf3aKTRSJpTo8uyZWNsWB6OZZfbXMawnF5O3zbGGMxhG5vLBtbGCF8sh/HP9QMGDOban/0X2MUcxgbbsjSSZkYjaSTNqK+678zcfr+IqMqu6Z6q6qOqe+ZLuVw9lUdEvBEZ8cZ3WiSHICAICAKCgCAgCAgCgsDUEbCmXqIUKAgIAoKAICAICAKCgCBAQsJkEAgCgoAgIAgIAoKAIDADBISEzQB0KVIQEAQEAUFAEBAEBAEhYTIGBAFBQBAQBAQBQUAQmAECQsJmALoUKQgIAoKAICAICAKCgJAwGQOCgCAgCAgCgoAgIAjMAAEhYTMAXYoUBAQBQUAQEAQEAUFASJiMAUFAEBAEBAFBQBAQBGaAgJCwGYAuRQoCgoAgIAgIAoKAICAkTMaAICAICAKCgCAgCAgCM0BASNgMQJciBQFBQBAQBAQBQUAQEBImY0AQEAQEAUFAEBAEBIEZICAkbAagS5GCgCAgCAgCgoAgIAgICZMxIAgIAoKAICAICAKCwAwQEBI2A9ClSEFAEBAEBAFBQBAQBISEyRgQBAQBQUAQEAQEAUFgBggICZsB6FKkICAICAKCgCAgCAgCQsJkDAgCgoAgIAgIAoKAIDADBISEzQB0KVIQEAQEAUFAEBAEBAEhYTIGBAFBQBAQBAQBQUAQmAECQsJmALoUKQgIAoKAICAICAKCgJAwGQOCgCAgCAgCgoAgIAjMAAEhYTMAXYoUBAQBQUAQEAQEAUFASJiMAUFAEBAEBAFBQBAQBGaAgJCwGYC+h4pE/9tEhG/rxIkTdqvVsrvdrn0pCKyFMLR837fDMLSin0j9++MH5zdpl4yxPdThUhVBQBAYiUC42RWZTIZuvPHG/nnHcfjvChE5dfxdIdu2+Tecq1Qq+ARLlhUetO0wHo8HFy7EQqLzPhHhOnwC/T2yYnLB1YeALJBXV5+iPxPFYjHVbre9IB5PBb7vxoLAcxwnFdp2wg7DRGjbSdu247ZtJyzLcq3ASoR2mIg5TiIMw4QVWnHfCh2bKBaGVsyywhhZlkNB4PSCwLYUabPxP9sKQeIwkzCRcxzHUrwuUFNLzLbCIOCTmG1wL3/riYoCRd5CCsmxLArCyPxnWUSRf+v7+TnmsDa4Bucsssi2bAq4EkShH5KFqvUfEpIfBOTYhoMOPR3P9UNC6/ovCX7jh62fo8MA7VGlAhxz+CjToKVBCoNQPY/rEpJNFgW6UsBgXVlcjKmXwsgKAiJTZwY1JOCL39DmSAOJGBvTOxb3ih+GpDAb/M71cNC9Af/OddT1DtFWbt8Gz94AC/xka5wU8vpAGZalykc9gxAX6rLWv4SomhoLpv2mVaYOCmv8avADBg7acNk9uqkBFkU9vrhiAYXALAD6dqR9qv6oJ2Hc2s6gCYGPAT7U/2iDj/HMdUIfmfvU3+pN4X61LAKeUSRNO/rfpm9036Iuqk3RsYA+x8u2/v0gskOyQhQyuNq8H+ja6FjujzSuJddZ4WfqrMYyxrCq/2Bs4zenP65tClAZM051v/K/TZlqWGn8B+MOWDiYVkLwEX3o+pomRxcoVc/oWIwMLz0ieMwbtC575zG2ffWucL/wlKUbzCNXjQs9ZHiSs21+L3gOs23KZDLh9YcOhSBaVgiksT8FAAG+Qyu0ghAzHv6yQr9arvqXFi/1giDoOZblh2HYDUOrE4R+xwqCTmjbnTAMm/i7GwRdKwjavmV1bXz7frtn23Wr2205jtNMJBLNUqnUJKKOkLb1c8Z+/peQsP3Xe9bBgwe9cru8YHfsBSK6zorF5hyiOdu2C3YsVrTJylmWnbEdJ01Enu3YWce2vZDClEVWkohSZNtJojAWc5wY+A9Zlo0JBx+1Xuihoed5LAaYNM2Hr+MJM1BzPqgX7rdsNR3rlUb9rZ7FC5A+ge/AVxMbL3pBwN/mGi6HSQkWNnWYhSz6rHUcjO9RkzyebylmxM/kSkbqYX5HmTzRmoVLL5L4zQ98Jgn4u0+F8NxBZdSzdZnMRIFLZBHkdUMvcOZa27b4tyAIeeHjCV63vb9QRwBUbbHI9/0+lijH3OP7PUaHn6X7CHWIx+PU6XYJ5eG5+A/PAPE0/WKw4WfplqBfHFBwU6dI36HtatFVuBlcVXeDHAzwYoKox4JqOwiLbqseF0wgdfuiWKrFL6RYLEZB4PPfvCg6DvV6vf445TI03pZj85jCvTy+8Oyhckx7+33K4xsEUY9n3dbA97lefJ3pTyzglhqv/FtkweclXF+Le23H7mOBscXLva4TvwN6EEXfJ/U6qeeqvlU4mzFkxv/gfQKWg3HA7dB1wL2oovm3ws4mv6fGkOlv3AOcULbqT/Py6lGtyQfTDdxn2wp/boOpZ6QPIu9w/z017y/6VI9hPEeVO3jn+frI+Oi/ZoM3TOGox53i2/qN1/1h5i88B2f685YZByE2hKod/X7Vz1BYBfyO2Jp8c/0idXJdl+YXFtR4WbcdjG6X+jMC1atVWl5e1mUxa9PvPphpiC2o7/f8nm1ZPT8I2kTUIgrbFlkt3w+aQdCrEtkN3/drQRDUKQwrQRCsBkGv5BOthEQr1OstBonEYjYeX1pcXKwLQdMDZp98CQnb2x1lZzKZBd/3j4W2fcK2rKNOLHZLzLZvsBwn71h22onHMjHHSdu24xKkWkRxx3FsTB5YsLAwY3LBYqYZCU98mJANSVFriRoKajJW92CS5EnMEClMxCAnWKAgP7DVgsjP1ufMRIqFGhPVgMwNJlue7JiEqEWSF1YmCzb/jWdj0R1wHc0E9aIHUtHrQvqgFslhgmIWrygpMZOzkvaoRcPUzUiBcL3f6zEUak5Xf/CEzYuRkiD1FxDzbyP50ZO1IQkGFxAh/G0WXJRjrjELLy8Ytk3dbpcSiUQfG5ZS6b4wCz0vXpos9xdoTQ55UQX2tk2OrSUbTErRn4pUKtBxXrULv5gFnHf9ukxDEDWV4gXU1AFjIK7ryc8NqU/uWMKhia0ibboNkfujJMZgwESYpXJqbPJzIJ3xA26TWYC5/ZpUYJyYMQjSDLkG922kbTG8Axpz0+94LsoC+TcLOa7pkze9qJs+43fGtqnVbDK5xe+xeEwRVWCqpYlMlCPySH6eGW/6BTMkuL97Qf8wMVfjEnXDM7hu3FUY770+eUI9FXnSZIHbq0kn+iEGqWaEnOi2oNxur8cEG5iyWBrkvueTw2RXkaLoZshMCnincD4eV2OTx03knef6MnnR77zeRJj3yLxraqyouQN/Y/Ax7noM9scF81S9PJl5h99NtdlQmzhFlAfvgJq7zL/VplDhwkOrL2nGGFPtBSaoN5/TxEqNX/PuKKJn+hHvZj5fUCTbSHXNRNWXWBoSFlKz0aBKudLvH9N+I/lUmwI1ZrmeEck3xjXqpjYhatMW+D4u6hKFLT/wGz0/aPjdbs0Pw3ro98q9IHjK7/XOB2F4zgqChx3HOV+r1Za0ynNvr3bXaO2EhO2tjk/kcrmbu93us8m2PzcWs5/p2PGbnVgsHYvHk3HHScQTiXgYhrF4ImEZKQ4TLUctujwJaolWlHyZRcvs+nlCTcT7u8KoSgqTPj8H/+ndblT60J8ojWRMq4UwmfbJm21Tp9NRE6atpFJm8QTkIBtYLAz5M7tNtdu2uC1MDvRCxBMrSwb05KwnXzOJ8u9avdXtdSmhFwssgErlONip8sKupVOY57tdtbNXBEZJLbDQtjttijkxrapTC0YsHu8vxBHdIS+UWMxY0hSL9aV2IHVoE9qKxRrtRl/hWZjQW61WH6PB5B9QLBbna80LimegTugHtA99o6REmhxGJC14TjwWZ7wwZ7PuSkvKsGixNMIs+oZ0aSkJiJUiKgowda0ih4Z8cBs1EVAL/oBwM8m1LOq023w9L7RaAmfqb6RbRoqDe5iwWhZ1Ox1FBDQhN1I+tVgpyZgZfzhnCDgWX4wVYIpxxxjz+FELKBNtI4WxLGp3OpROp6nX66rFTS/IRkIW+FgAFdlFHyaSCX4W3hnVL0qqyIRdlxGdSsyCmkql1CKvr0GfqPbG+bkoD89EWagfExlNEI3EjCXGRjBt2TwGmVIEod4QqZKBDcYHMED7eENlQaKryBXIKMZ0f55ggghCpTBSmyu2ZWJc0D/9MaY3ZzjfQ3vCkBLxOI9FPM+Q83a7zfeY97hP+nXfqnceXa2kYkpNqeYaJsaazLGkl9A+rdTWbWGzBUe105By9Ht08wLCqMgYnqB0oRh7Bgf1rirpMZ5nJPLxWEyNHb1pNZJnM24NyfQymYEkdpP1A+1BP+P9brdbg/5i4mxIsJHWhtTtqHmBJb7Q1jPXUgfaqkiY+qC9ipwNvtEfnU4ntCzL73Y7Hb/ntzvdbtvv9Rp+4D/ud/1PB0Hvn+Px+Meq1eojWqW5t1a/a7Q2QsJm0/HMiTD/uK57wLbtLyKyv9SJ2Z/nOLHDKdeNYZcNImG+NftQE6jjECYMQzwwSZhFXU1wSt0BYgGbllQyyWJ2Vk/oXSTvxkO1s+XFSksgQDqMUs9IRTDpsWTFcXhSiaoizO46qm7hiVvbKhlSYsgUzjWbTUokk5RKoV4htdswcVCSFF4AfCxOjlr4I8/CJAXCZAglFhtcoxpgVDwQ9/uUTCR50jUTVzyOCbbLE75ZsM0CMCAVajdvFiQsWqYtTA5YFdMlN+Uy0cJvqg9sardahAUXi58hCgYnLEw4h3uNlFFtf3V5+rlYmLGwmYXASBqYkDCpbfPipQiQIlYgO0z69MRtFkMzgZsFREkx1MIPaUhSY6cWJ59SKZd37YaEcLv0ApByXcbR9Ichq7gmFoMUs6fIqyay6DNDLlEW/g3igHZx/TSx53Zooo3rMSaM9BHPc4Fnu83kDJgygQXW7RYl+VpF9HEkQGS0qk1JS5TqDaQD1xqC7HouL2p4F5goJhJ9VRzeLfSfaTsTZyPt0CTFSAPReXgvkqkU9wvIDpMzfV1fuqrV2uY9QzvxPgL3VrvdV5UbKRRLY/X4VxXRln5hyO1Ae9FfGN84mOBp1T36AYTOkI7+u4F+Qj+DWPZ87jO0H/caYgHszcJuxheXbNRxepyjvegTVnVrwqxIvyJGmDvwrQiVqjv+bjQaTGRTyRRjhGfgWrwPZlOEaw2ZUkRP2alx3wU+byzQX4N3fiDNxjjzPI/HtyGWGCuYA1hqGRlreF98kMeYkmjyRgmbEq3KNoTNbDSYHBuSrjc+qLcSlA9sLAcmC3pKCkPqdbrkB9jkaTMPSDVRRybWavk148bMt4bc8/hutwfqS2NaAQalxynabeZW/K3qqjaMOHAdyjPfrVYT6s/H/J7/90TBXxPR/6rX6ysYSuIgoDCb9iEkbHqIO9lstkBEC1YsdsIi+nwrtL7QcuxnpZJJSLh4ksJCjAkD/8YkAGLCi7qe0mJxkKqUnp+V1IiJk5YSmN0kLsDiqRZGrdbQCzgmZExQrMbREg2Uxyo7GOP28BLDpijBdqtmV4bJASTBqAR4odX2RWYRwTVY0LtdJdHgSU7v2sxCCkJiFitMiCAwRm3KBsBaimHIEUgbE02tssOkiftYTRBRZeIZmNCwWBnJHS9QWtTPk3JfGgICgYVJtZV/ZxKoiJ7redSo1/gagxVIcavd5AUsWoZZdAx+ZveP3430yKhp+uoathVDuUrlYNTFuB7txWIHUgSsjDTJqFQxd6OOIHXoI7QZCzu+0bf4GPWuIaGoL0t7Yg6VSyXKZnOMkcEVZUIyhG+WYhAxIen3t7YBNAsvrsHfsJEx+EbJo5KOQQKopHVmcTUL20A9pc4Zks/SISYikB4pSZTBhp9jSJcmJHgeS15si+q1GpMT2IaBoLN0qddjApDyvL6000gW8N6AnDPB7UIiBvWUw9IdltJoFSOeZQ6UD4KI30wbgLWRtplFGc9EubxZ0iSSF049HkF6zNhU0mm1OKPvWPUVsWfj8aVViWgrSJQa52ps9FX3mtzy4ttuM3Ew48+8O+Y943GhJV8Y49j44D3EPMAkBO+6ltRi7Bi1fA+qS21jiPZgfOJQZFXbOxnVmlatmnfSvH9oA4g0Noi8ycJYMbahWhIIkmZ+61tdRtTkwAQHP6vTYQLWaWMeGaj9MZaYfBrVqZZwG4mfkqTCBEIRdiZ4kEhBEq/V1zyndDr8PhryiLESnWcHS4hRRCv6aVTonuvy+GIpXkRdaiTdIJzYbKM/QKRBolhdbKT7IbH03ei5UX+WBGLM6PdEEXHV70zMNDnE2ET7cQ/agevxG/oO/25hB+H3PhEEwd+Gtv1/wl7vLBEtVavVkiZm01shr9GShITtbsfb6XT6QGDbJ2LknIrHY8+3YvbnxmPxE/FEHMyLJzxMdmYxMVIu/G7UcmaRwQSDFw8LoxGZY5EyExkmHDNh4sVjouCrXZeSMOHlVpIeI5EyfxtJjyEceFGNnZJZGNVvig6ypAEic+xWbUcZ1msVJJ5tFhy2B9KLSl/SAevTVquvtlAqDEUu1W56oKLo9HqUSqoF1ewY0WWsYtQkj21mIAUhomarRZlMWqsbscgq9SGTQU0MjJTOEM91i6F2b8Tk3Go1effNBtraFoUxDALCxIrJDhM5k1RIKrTqydjzQDoDKZ9R6RoJB64FQeaJFYiyPZXDJBxlGslAq9WmbDY7UANqgoKFgkmmo1SUhkChzsrmR9nYAVNI/4Ar1DJYrDHWcD2uwbjB9YbYAA9M4kYqgvplslm+JgZ1H1RpWjrBeENtjUVMqyvRzmYTxCNOyVSS244ycB36GO79lUqVx6UhFRjL9UZDSTF8n8uPqtMxXnEvzisVm6WIlqXUYkraq2zb8G+lZiJug1mIMBYxJs04xjNxHu0G5t2OspNio2m2ZVQkCM9DOW7K44Ua48+8J7xBgnoPkjoi7vtGvc7t5XOxGC0tLVE+n1dkCwuhVrvimUqCpZ1GsGFKJvmdUOrggDdW5j0yRuTNRpP7D9IuPNOoDDH+1QZHLb7YWDUadUokkn1CzmpjSHq03aOR2qCuhlygvRiP3D+OeoeZFBqpLWzuSEnQlb2psflUKm4jgTIbHSarPI8p6S1I6QC3FkvBIO1Ukkllx4dxgXpAUmsIg5mHjJoa7VYbKKVSxHhW77yyPUSZ6BeWCBnbfU0M0S/GVtOoJ/sqf9uiVhPjX9m98RwLvLg/sDEI+uMzakrB92uplvFQNhtQfGOjwu+NrSXrmhQaKTXajmsMDlF1KGsHmLS2lbMMqXeJpeqW2jDw2NcqS4xRNTbUPGpImFHZ4jyPbW1vxmQMpKzbgdSu1e11z/q93kd73eCjPfIfdMLwTK1WWxabst0jCkLCdgdb1/O8u+xY7HNiTvyz4onYPY4TuzWZSiUwwfFEqokU/lZSAEwe2HFjoUzyJMdkC9+apPGChp2/tvsy0iTeEfUgGempyUcvXHgZsaj1xdG8SKkF3Bg0G1G2EoWriacvFjdGy8b4mCcbY7AeNXSFzZcCEmWqQ6sHjYG7JhtGMmeIibHB6t+jnhLZXBrvpPXeSOo52kGzb3Q72ImqBfhyD6bornXIua1vD2bqEnVYUM4CA3xwTV911/fQGjTblDPsRGcWv/53X92lcB3gt94LzLyofJ71IMaYXv/df5OVMwEkJOZ5GBOKLBgbv0FfmWuUlALt69upr+uDwWpmbOuUvQ0W5WjR/d7TO3MTrsKoHZUdmLY3Y8nGwOuW69IfPWpMqTqpEljyZKREkf5V9ymJrbKnYscz3f7BGDHqI4ODiqEATbYev7rwdWNYe9qa/lJSKkh9FGlg2zCWWq0fb/0RHFHTKtWiKksRf92m/tam38t8DiSe1a76XTKSNx53XEBfAaYw1e+pum69lTiks0r9Z7wC178rRsqq2m7OKSm6KddIW1Sfri/DEF4zaKL3GCJk6mgcITQQ/Q4yQ9tIAgd11S1VwPX7dX0bVX0G71ukfvo+NStZfcsFNSYVTgObO9UHUfSi7x6II0tBTSyaQRcM3pfIODJSK2UeokKh9O0UtRbBkC7zjc0TSDD6H4QxARWubenNi8PfSiIKMq422GYjyeQLEuMIyQJBZkkv1gWjxmS1tjLXwMYCf5tNRqvdok6r3e75vQf9bu8TnV7340Gv90+NRuM+5b0px04iICRsB9HM5/PFju9/Scy2vyKZTN6dSKaOxOPxXCKZtEG6sOtjCQRImDZe5UnWVhINlowl4nwN72L1jtpMkGYxrdfrVK/XqNls8e4ZL5GSKsPGQxlxmknaiM2NGmzQ4WbSGky6LOWKzD5qnl8/mUfhGsxtWFjUBDiY0LRX5Q7iO/NHbTThblAps4ibhWj4kuEFa/3srReBKMMc0fDhJddMyOY2LAS1Wo3HCjqYbeKGPERNnQ0JV+RIPQH3GxWVIkLaBk8TFDVMzGK2nlSZBS0a4sQs4FFpwWaYmIXYnDfl4Nu8F6Z8Q5LNv83zjZ3VgISaOiq7OrMhMM8e2AiqNvXJgPG6jLwTZkiYsqM4mN9MPXDOSDn7XaofEG0//sa8ACloX+2lvQU3G1ObDZE+xubFZHI82DRtdt/mY3Tmb+HMKmDmw8HmbbBpivA8PQcObaiGdnzr+tGokTUBZrrcDx2iNtjGNlBt2OEsFKNkUq0XMP9w3RSl0xk2KcDYYY2IVg8bIsj2hFotyRIwTdjYPi8M+1JxXNNsNZWErN0Jut1uudNuPdputz/VC4K/SDjO/yiXy6sz64irrGAhYdvvUMt13Rtt2/5WJx7/L67r3RSPx/OpVCpmpF54cWBjZOw52ABbS8BYKhaLMTHD9VBTsfF0t8vie6g0atUq1WpVVtu0my0thlceP/xM7YLfD5IZ9aSJxPZSC4QiS8N/r1+4o9dEKMKmhEytJFEpzkawrpcsbR/4nXjCbiw2w4RErX8RcqUrvtGCOrwYb3TfcLujz9mobKPqAHmPkq3o32axNrZIUZITJSXriY3y9DKTvZFgGFJj6mmeaXDYqN1sz2Y8HyP4mF2+IVZRImPIUd+mSNs5mnJM+1gVqb0d2c4oEiMq2jdGAmyIV/9cP/7cwBDb9JNpi7GJHMbNeBdGrzd/m/L6hukRSShUt/gdxHn4vYqSV4OLwXr4nDnfx3xINDtMbjcbS8Nj7krvzWZjeJJn7MS7PckzVJ2vuOe87HGbEWLznOj56Dthfje/mXlx+JrBee0tHInjyKrzQNmGsUmBdlCC6hK2gum0R5lMls0JFhYWWJ1v1guob0G8Bkb7bZYiQ1pmNCr4hk0q1Kiddodt+CAc63a65Waz8bjf7f5eEAS/3Ww2n7hM7DoJ8HLtQJMgWEyMgON53kE7Fnt5LBb7Ljfl3gACxaLiuHoRMOih08cLgMnY2FFg54JdLl4yo5bEoC+VSrS8tESLS4tULpXZPgiiZVwDGwk82xhSm92N8XAyBtjm25Cqjb7XE7GoCnHzvzdDZ3gSvxKKZoEYXiSHJSLRZ2xGXjYjfNEyhhem4eeOIo0Tj4gJb9iorhM+YqzLUc78/DyPN2MTEiVWhkAYcmLqNZCK6QCdmnCZ64xhf9QxwYy3aNuiRubDpCBKXkxfG1ISJYmmDEPKlE2Vjt9kQjBEPCjxrGj9Bw4Zyt5r+DzqZUKqoAxjR2bqa+o0TOCiY8yUYca3UvGqcB6GcBmiauoWfRdMiAkjxVhZWRm5sRlrAGzjop0Yoxu9w6OqNFzuZvUY9b5fqf6Xn7tcjTtqPhucj5hhRG7aaOO5GTkzY8Gc72svtKQM0ml2JIiEIDI2dhg7RmqKd1xpTSDt6nKAYc9zKZfL04EDBzjYbKFQ6IcfMXZk1WqV7VQxVnl98XtUrzf6jjUgYnAcgMcx7BNbreZTvW73N/xe7z3NZvOiGPKPGtUbnxdJ2GS4WXNzc9kwDG/pBcE3x5zYdybd1PUQAUOiBeIFPT4MoZVKMcEfNpiHXVcsxgaYxnAbL0q1UqFLly7RammVmjzgIV1QxsfGK4tFyPByWRcbRnlFXU66dGDCIQlYVPJlFhbTdLPYXZmUDNSNwyRqMgjXXx0lYMP1GiZnwyRu+Porka6N6jjuRL/Zc7eyuIya1HeLGKKu8GRToR0iSumIR91w3Tary5XquN36D0tRhusUrXv0XFQCuNG42Oy+jcbcJON5o+deqazhc9FNkikX88JGErBxxvBGeG0mSZukneM8d9LnXen9NnNMdI7aDiHc6Xd1s74w4+lKYyDaNnNdlKzht8HvAztO87uJr2c2EoqUqU2HCScEuzJFzFQoI2wqMK5U4GSH3LRHxUKRDh48SNlcjucFI9WGpAySY5A440lpVJkIq6Ke1eJvOKO0W62L3V7vAzHb/l3Lss6vrKxURTo2/tsgJGx8rLLZbPZuOxb7KseJf3PKTd7iuV7fWwkEDB5OHAsHcaRsmxc9eGHxAIfnWKvJ3mGVcpmwy4WaEaEcoB9U3pEqto4RCRsplyFfZjeNSXX4bzQjqkqKLi5XIlnbXTTHh0+u3GsIXKnvo4vWRmR1IwJkFpeNVFyTSEzHJaqTLKybXbtZ266kAoyeiy620TYOE4xRfT9q0R51v5zfnwiMIvFRMmber8sJ2iBzyEBKpqRmWFcGBv/aM1TH/+NQHdDGJBKsupybm6NcPk+5bJbNYjCejdoSEjIY70M7A/UkyBiIGDy1mYw1G5CiPeb7/u8Gvd5HqtXqJ4kIZEyOEQgICRs9RCzP8+5x4vEXJhPJr0q6qduTyVQcEi14L7KqEEQrpcgW3PNh/2X07yBUlUqFVldW+AOD+r4qxcS90nFfjN2KIl/KW3G9pEuFGYiSqo0I1kaLq5Ct0R0tVwgCgoAgsFcQmISgRYlZVI1pSBnOG9WlIWXGFIY39DqLAa6BZqcwV6S5uXnK5XL9TAzQxsBODDZoRlrLcckQugU2zM0Gfu+2mq3TnU77Iz7Rhxrl8idEKnblESUk7ArmJUBOAAAgAElEQVT4ZDKZAwHRS5LJ1Ncmk8nbPc/zIN1i4sXfiEOFXUSaVZCwBYMUDOdh3/X005doZXmFjerJpKPQRvPDNl2KmOn8YCY9RUSlOEqyJSRrr0ydUg9BQBAQBHYfgWGzAiMpG/42asuo+jJKypQWRgUBVtco72nEq2EJ2fw8XXfddWxHBrIFVTnUlPiGsw8b9Ot/m/ONRqPR7rRPt1utD9tE76vVak/vPiL7swQhYRv3W9zzvC93YvEf9Tz3rpTrpVmtmEiwTZeSfKVY3YgPBrDxPoF914XHH6fl5SWVc04n+zU2XcowGl4tJinrsLRLSbrMJ1o9k3poO7YR+3OYSq0FAUFAEBAERiGwmY2ZIWYDu7L1HpfKnkyZxMCODGsaBwxHZgzO8xuj+fkFOnzTTWxHBtIFb32OTdlqcZBsfENNCdUl4pFBStZqNuqNRuMzfhj+bKNa/XNkaRrVhmvtvJCw9T2OcBOHHMf50WQq9eJ0NpuGcTykXNCbI9dhP9hqLM4GjRDdYqAuLi7S2TNn6OlLlyjm2Py7CZpqXIGN18koD8ao1Gv472ttgEp7BQFBQBAQBLaGwLC0bGODf+VxaSRlUTsyEDGse/gNnpJd36frDh6kEydO0oHrDnDgWUjD4GBmIu/DoN/Er2RD/nYb2qB6q9X6zdD3f6bZbD4pKspBfwoJ01jMzc3lut3uF9iO86aU630WJFuQdkH6ZbzK8BskYiBYUENCorW6ukqPP/YYS75gYM95wrQnipF+RQ3rowb1UWnXxpKvzQOlbu2VlLsEAUFAEBAErjUERqkuhyVkA3Wl8rg0ts+cJo2DPls0tzBPN998MxWLc6zChJMZCBnsxRDjkiVhkJBpb0r81mo0/jXw/bfG4/G/W1lZqVxr/bBRe4WEETmZTOY2y3FeHI/Hv8/z0vm+ylGrHUG6QMTwuzFuBPl67NFHqVIucToIDE7eCXD0+k7foN4QsGGPxqiEa7wQETJcBQFBQBAQBASB7SOwGSkzZGwjyZixHTNpk1T+Wody+QLdfMstVCwWWfvDEfehkmy1qFavUbul0qYxOWs2qVmvl7u97vtD3/9grVY7fa3HF7umSdjBgwfT9Xr9y2KxxMviyfgXe16aUi5iKaU4xRCTsRSiD6f5A/a/tLRITz35JJVWVzjKMOK7QLplEqGaRKrR4KlRG6+NPBu3/0rJEwQBQUAQEAQEgckR2CwMRpSQRQPEGnsxk/WFbfgdmwrFObrh0CGO0I8DMcRqKo4YkzJIxdhmrNXic91u53/2Op33ptPpv7p06VJ98ppfHXdcsyQsnU4j2v13J+KJ70qlUkcTqaTtuh7n4IKHIyRfUC3C7guDDmEmnnjiAi0vLuoEySqqsMpor5JnD0etj6oeN5J8XR1DSFohCAgCgoAgcDUgMGwzhjZFpWJGTRmNPQbJGKRknNAe2TkWDtCNNx6mbD7HzmmwF4MEjElYq8k5j5tNVlcGrWbrkXan/YHQ9/97vV6/dDVgOGkbrkkSNjc3d1O31/vJVMr9upTrZpOplAXjQyTNRnoH5G1DMlTYgOF45Nw5evLJJ3hAIU+jSQsRtfkysb+iRve4dziA6qQdJNcLAoKAICAICALTRiBqJ4ayzb+ZcOm4Y9GYYyZDTA+pumIxuuHQjXTs2HG2wYc9GGJk1mr1gb0YVJStVthsNmvtVvOPY47zxtXV1cem3c5Zl3fNkTDXdW9yEokPuyn3HqNuhPG9l04z+cpmM0od6boc6+v0Aw9wkNVMWhEyiFU383Y0hCtKvCR+16yHuJQvCAgCgoAgsFUEDPmKErHh/JWGjCFtHzRKOGr1BhXn5ujU7bdTsVDo24lVa1Wq1+pUb8CIX6VTQhDYVqv5yW67/dWtVuuaImLXEglz0+n8f3Di9gfT6fQNHOtLR7qHvReC0pnfwPSffPJJuvD4Y9RptyjtpdUAQpqGbq9vfIi4XYhsv5HaUcjXVl95uU8QEAQEAUFgLyGwkd1YVE2pSBhSJKnAr8qRLcVhLeKpFN1000106NCNfRMeEC+k7RsQsRaTsXqt9pTfDV9cr5f/D2QeewmD3arLNUHCcrncXBBYL3ISsZ9Ie+71HHpCS7sQ7R6qR0jBMJAgNr1w4XFaWVwix7EZd/wG1SPsvjYKNyGSr90anvJcQUAQEAQEgb2CwHAw2GEihjXTEDFEDDAmPcg7Ob+wQDcevonSnsd5KBUJa1CtVuMAr602Ar628dtF3++9xQ7D369UKit7pe27VY+rnoRlMpnrLMf5nng88cqU696AJNsgYRgcxusxi4SlqSRdePwCEzB4cyDhdj9FgyZfxv32SrG+dqujtvjcDqTCRIR4LPjGzgIfBHppEFFbf/AbIhn39MfXbsMIVGY+qEKwxXrIbYKAICAIXEsIYG0d/jhEhE9MfxJElCIi8+0SET74Dd/ZyAfX7JkDUQHQPEPKNgv2aqRiIGRBGPLai6j7Nx4+zISrCiJWr/MHwo5+1P1W82Kn3X73tWCwf1WTsGw2O0+2/bpEIvk9ruseMMFXmXxlMiwyRYJSHI8//hg98fgFchxLhZzQuuqo9Csa82uz1EIzeEtApi6gCUSE/FwXiegpIlomorImW4Z4gXSBbIGc4YO/zb8N8cI3yBY+Jlrs8PcMmilFCgKCgCCwrxAwJEwxFiKoVvAxZAzfIFcgZXEiSupv/IaPIWUwssoT0RwRHSKi64noOiK6iYgOE5EywprRETXgj+anNDE1QcSSyQQ7viGUhR+ETMIOH76JSRwiD3AeylqNQ1pwsHN4Ujabi+1O+9cpCH6hWq0uzah5u17s1UzCkplM7u1JN4UQFFmT5zGRTFA+l2fyBVLW6Xbo3JmztLy0SGnPpZYOLIeBYCRfinwhn2PAOR2NJGzXe+fyAkCm7ieiTxPRffpvEDDEWAHBArEy3yBXIFRyCAKCgCAgCOxvBEDYQNRAzkDWzDcCWIKI3UFEdxLRM4joLi1Nm1qLBxIxSMfWp0AaJAhXtmKwvUbICoSyOHb8OMGrEqQLZKxcqVCng5yTiCmGkBatarvR+M1arfaDem2bWpumVdDVSsIcL5N5j+t63+ul0xa8H5MplW4Itl+I8Au1JESgDzzwALXqNf4dolHOecVJtgOdZNvvE68ZkC+Qqo8T0f8gor8hon/T6kSRTE3rDZFyBAFBQBDY+wiYtRzfkKDdQ0RfTERfQkSfpUnbVFphpGFRqRikYSBjUEuCdEEIAluwVDpNt99+O9tlwzC/XCpxlH14T3KU/U4HgV3DZr3+641G/SVXo2DhqiNhhUKh0Ov13pp03Ve5XppZN9g3jAGzuSx7QYJwIdfjww89RL1uh2JOTOmjdeDVqATMqB13mYCBVEGtCNstqBPhGQLShe+r3jBxKjODFCIICAKCwLWJANSYn7e2nvwn/Q11JtSbIGu7wgE2ImIw2kceShAyEDEIRXp+j2LxBJ04eZIWFg4wMcOHA7xy2AoVZR8hLNrNxr2xWOxNJcSOuoqOXemAWeGjjfB/IJlMvirluh46Gl6QiHwP4pXP5zke2OrqCj304IMU+kpbF439FTW+HzbA34V2QXV4nojOEtG/ENHfEtEniKi6C2XJIwUBQUAQEASubQQyRPQcIvoiInouESGa6hGt4txRZIaTgsN4P2onhvUZ8ThxWI5Dt956ipOBI2xFpVxm+zAVP6zNZkOtZrPRbrfuDX3/HbVaDfbPV8Vx1ZAwGOFblvXyRCr16pTrLcQRq8QFAfMI3o+5fJ4J2dOXLtKj58F7QgqDgAkY1I8m+j2Il4l+b+y/drinIfXCAPpXIvpnIvonrWa8ag0Pdxg/eZwgIAgIAoLA9hGYJ6JnE9Hzieh5Wm0Jg/8d5QXGczIaZV+pJpVEDGkCkfIIxd585Ahdf/1BJl6wEVMpjxqc6ghOcq1mY6nVav2SFYbvqVarcD7b98eOgj0zNA4eTGeazf+aSCR+LJVyb0ggDEUiQZlshrIZQ8CSnHj7/CPnKBFPkO93tQRsEP8rGgPMqCF3uE1PEtEfa1UjjOsf1SEhdrgYeZwgIAgIAoKAIDAWAvDOhDQMBv1QWX6d9sIc6+ZxLhpOBq4kYgjwGmc7MUjE8DckXrccO0aHDh3iEBaGiFVrNTbYh8Ncq9l8qtPp/HTNdT9AV0Hi76uBhNleNvuVyXjifW46fQhpE+JxJeacm5tjKRg6+amnnqLHzp/XHpAqq7sJwBoNQ7FLoScQMuJX1gb5HxLREzp0hMTcGuftlWsEAUFAEBAEpoEAxFGwFbtxzfv+G4jo+4johp0qeFg9aYz1QciMatJ4Tt585CjdcMP1nKEGDnMrKysc0BUkrNPtUrNef7Ld7by0Ua3++X6PX7nvSVgqlToaT7n/kMlkbkAsErBpGPyxCjKXY6P85aUlOnvmDBMwGPtFCdhmAVh3aOBBXPo+InoHEcGYUIjXDgErjxEEBAFBQBDYNQRAyAprzmI/sOYs9lIigupy28cwEYvaiBmJmOe5VG+06PiJExxlH8b5UEtWdGBXCE04xVG1drHdavyHdrt9btsVm+ED9jUJW1hYONRqt/8yk83enUy5LPGCEX42lxsQsOVlevT8IxSzbWbRUyBgIFrwcERYiZ/Xsbxm2MVStCAgCAgCgoAgsGUEbl/z3v8hHe4CnpUqn98Wj3GIGCRjvSCgW44cobm5eSZd1WqF1ZONhtJitVpNqlfr9yXizpevrKwgXua+PPYtCctkMgfIdn7Rc91vSbkuxdnAL0n5fIEKhQJLwyqVMp156GEK/B4Fgc9SsE7nchuwHVRBLq4N1I+uiXDfT0T/n9h77ct3QiotCAgCgoAgsB4B2I3957VsLIjV9blEdGA7AG1GxCBIgcE+0goiB6XtxDh8BRzrGvU6rZZKVC6VOZBrV9mHIfDr71Hgv2a/ekzuSxJ28ODBdL3Z/IFkKvXDbspNwxAfwVcz2SwVi0VOSYQOgwqy024RhaFOwt1hHfMuqCARVBWejr9DRL+rbb62M0blXkFAEBAEBAFBYK8hAJuxbyaibyWiz95OENjNiViM7bpBxHBNPJmk4ydOsmAFMcRWV1c5+Tfih8FYv4nQFa3W291k8h2Li4vIkbyvjv1IwpxMPv8NiVjibSkvdQT5qGDMl0mnKV8oMBEDQwYBazcb3IlKAtZhF9ddMMKH9Ou3ieiDOp0QkmDLIQgIAoKAICAIXI0IQCqG9EjfocnYlqVimxnrm4CuIGIhhZRIuXTixEnWeNWrVUK8VsQRg5qS0xw1mo92up031CqVP9hvUfX3HQlLp9N3x1OpX0wlU1+QSCbtRDxO6UyaVZCFQpEQkwSR8EurK4RzSE0EAmY8ITdKwr2Nt+TMWoe/cS3Oyl9p6ZdJJ7SNR8qtgsCOIjD8ju+7d35H0dgfDxueR2Re2R/9di3VEvMIpGJftpaQ/CeJ6MRWG7+RRAwkTCX+VukG4RGZLxbp1pO3UhASlUorTMSQ3gjnOu120G63/nen1XpNvV7/5FbrMov79tWEjJREfhC8MZlyX4uckNAfQw1ZnJujXC7P4svz5x+hJx5/jHLZLJXLZWbKJhArpGA7GAUfOR2/nohgEChej7MYvVKmQQA7U9hpfI5O5HvrmlcuDGgRHRuJfpH8F8a02zKoFbinigDmFHyQ1gPmDlCzwOHnIe3s84/a/lQk71PtFilsCAHMKUgg/iEd7HVLAG0mEcMaDyKGbDfwjrzxppvoyNFjrN2qlEu0urKq7MO6XWrUG2Gr1X5XzKa37KfURvuJhNmZTOFrE8nYB1zPyypDfJUTElIwqCFXV1bokUfOqeTctVo/GbfvQw3pr4uED2P8LR5lrXp87X4Te26xvXLb3kIA72yKiBaI6PPXVOAv1F5L6b1VTanNFBCoay9sLIB/T0TIutHidCByCALTRQAbPYRierGWkE1cepSIDYeu4LU+k+FI+keOHWWPSdiHQRoG++9mSxnqNxuNWqfd/c5arfxH+0U4sm9IWKpQuCVpWR9yPe85SD+EmGCel6ZiocC2YGDGj5w7R35XqR43ywe5jUj42JUi39G7iOjXiAgToByCwDQRiOs0I1+yJhH5ljVHEEi8RLo1zR7Ym2VhboKEDI5BCI2D/LPdvVlVqdVVjAA2gt9NRK/REfgnnpuikfWHiRg0XbF4nD9Hjx3nPNDl1VX2mAQRa3c61G63QMT+vR2GX9cqlbBe7/ljv5CwpJfNviudTr/ENfHAPI/JF7whER3/wQdPU2llpe8JeSVD/C30CiY5pBl621ry0z8TArYFBOWW7SJwm45i/Y3aKHa7z5P7r04EME/9vs7OcfrqbKK0ag8jACL2gjWJ7Bt0GiRIyCY6holYLOawfRic8FztMVkoztGpU6dYAgZvyTKIWKPRjx9Wq9d/tVGtvpKI2hMVPoOL9wUJy2QyL4wnUx9MZzIeOgOiSUjAEJS1UCzSU088QY89ep5sy2IJGCLsDntCGluwLWAM0f6niOiHiehv90OnbqGNcsveRQCTGCa1V6yNvy8kIth/ySEIXAkB2Ilhrnq33jTCrkwOQWBaCCT1XPVzRHT3VgoFEYOTHT6QiBlDfaz9ELr4YUg333KEc0xCJYlArqXVEpOyXq8Lh7xmt9V6ca1Wg7fknj72PAnzFhYOxXq9j3jp9D1JhKPQdmBz8/N08OD1VK6U6f77Pk2h7/fVkNGckIZ84XuLB1IivEgTMTGC3SKIctuWEIDt1/eued7C/vAWUT1uCcNr9SZMeI+u2ee8cy0X4H/XtmLXKhbS7ukjgM3iM4kIJOjoVooHAQMZ2yi1EQz2LcehO+68iwO0X7p0kfNLIhoCVJLtdoca9dq/ddvOC5rNZeRr3rPHXidhViab/SnXS/+A63kp9oZMpSiTzlChqKLi3/fpT1OtWuFwFDDUi6ohQbyi3pBb6AVMYs8nokti7LoF9OSW7SDgrhlaQ5z+Vm2Iv51nyb3XLgIw1H/TmiPHL69J85vXLgzS8hkgAH5xcC2MxT/pTeREVYiqJUHIjDQMKY0ymQwLXdLZHD3jGc/gmGEcOyzikNdsNFqNRv2d9Wr1x/by+r2nSVgul3ueHYv9qpdO34Wo+G4yxV6Qc3NznKD78ccfp/PnzlE2k+ZM6yYcxUYBWSfqfeUaDnsK2N98ZsJ75XJBYLsIIKwEJGC/JNKv7UIp92svsVdriRjCXcghCEwTgTu1nSLsWicy1jdEzHGgmnQ4pVEspsJWgANUa3X2lrzppps5iv7yygpzAZgkgQ+0GvX7/F7veyqVCjLa7Mljz5KwYrGY9/3wLW7afWkimUoiL2Qa3pBzc0zCYIT3wP2f4R4F2CYxt4kJtg01JAjYfTp7POwqxJ5iTw7dq7ZSGNL/ZU2E/5ti/3XV9vEsGgZTCoQP+L394ro/C5CkzF1BAHatsGdFCIu7tkLElG2YsQ9Dfsk424aBjGGBvuOOOzlOKFSS+IAftFstxBBrt5rN9zmW9ebV1VWEl9pzx14lYVY6n//iZDx+r+ulb4P4EYAXiwWaXzhAjm3TubNnaWV5iWKO01dDGlswo4bcoh2YiYL/x2KEv+fG67VQoS/VC2Vh0sZi12iO6N+TPme/XW9i/m0j9t9+a/JW61vSBP+vt/oAuU8Q2CICMNb/uq1G148a6cNGDCTMqCWRBae4sEDHjh0nPwhoeWmJPSZVmKo2NeuN0+1e91X1cvl/7kW15J4kYfl8vhhazptTbvIVruvFDNgHDixwZPzV0iqdeeghitk2M16IHofTEqFjtnCsrEkffkqL7fddItAttFdu2VsI3LjmTYQgg0iMO/ZhPImuRQKGNg+TsC1uvsbGexoXGjXMcFnbiHNoHvUvOtPHnjZWngbGUsbUEUAGD5hZ/PiaqcXcJKVv5C1pbMRhG971fTpx8lYOWVWpVGhxcZGFMwjg2mg0eq1W+91W6L+lXC6vTlLuNK7diyTMgi1YLJH4kJdOH2IpWCrFMcEWFg6wy+q5s2dY/9tDqgIdGyQqBQMB28KuGGrI964FOYQR354UW05jQEgZM0MA3kQwnv4uIkJQ1pFH1HB15MXX0AV497cRkmZmSEUjhvPfROwdZg4Ogx+GPLdxG/X3hBVGENdf104f4u09IXhy+bYRQL5JCDpevnW15CBkBfiBCeKayWTp2ImTFAQ+LS0tsqE+IuxDGlav15/stdvfUK1W4SSwpzJK7EUSlsgVCm9zXff7XS9tGQO8XC7HKkl4Pz784IM8GbXbiAmmckOauGDb8Ib8d517D95EcggC00YAKYh+hYhOjVOw2RleS2rHcXCJEpZQe0dPct+srmWbF9sG62LytfmBs6FaRcKQ1S9bkPw9SETfp1MdzarJUu61iwBC73yUiO6ZBILophOeklBLgoQhYgI+IVl08tQp/g2qyGqlooz0YTPeqOO3d1VKpR/SuVgnKXpXr91zJCyfzx+zHOcTmWwuDzCz2QzniYJLqm1bdObhM4j/QYHvc0yQLqcpQm7IHueG3OIOGEm4EYpCRPS7Otzk4ZsggHAUSIcFUf3Iw8TOGXmhXMDzwRZIytSQ66tZQL4iUi+6jIqBdkWna7WZx/+beW/CSiN2GNLLSNiKCYGTy3cEAZheQCqF5N9jH2buGw5ZAZWk7TicyujEiZMczBX5o2GkDyIG4U2tWqmEvv/scrl8duwCp3DhXiNhMMj/+bTrvQ7pCSBmhBsqEnTDI3Jx8Wk6+/AZsihkO7CoLRhI2BalYDBWRTRy5F2TQxCYBQKfq6ObP2tU4SIBG4XQ5ee3aJ4weUET3hG1c4m4VEz4FCUVi8ZEHPMBkPxj3oNEQg5BYBYIIP8tsjqM7YQ0LA2DRMzYhilpGNHxEydp4brraHVlRUfTr7LZUpM/9XdWK5XX7SWV5J4iYalC4UiCrI9lc7kFAAoCptIT5SmZStJ9n/okNWrKXl5JwbqXGeRPaAsG+wjYgb1xLSRFZRajUMq85hGALRiCsv63cWwkIIIXFeTkY2YvEjH0JUcF7zdnK9PxQCIG7QDUk2MeuBCLERZBSfY9Jmhy2Y4ikNPeki8b1w4WpZvNyyCdEeKGxTl4exha5GXSdNfdz+QQFVBJIsG3iR1WrVSWrTD47HK5jEw4e+LYylu/axX3Mpk3pdOZt3hpj+2/8vk8FQpF/sDQ7qEHT1MiFtvAIxKqyKBvsDpBBf9BL4Cf3EvMeIL6y6X7H4EbNAH75lFNMW7ao66T85cjgM3ZFj2mdwVOZQMGQs3LyvoyLCw0CE4Z4w8WnTCEWtWnwO/x3xsdaGOPz49td/y7mog9tSuNlIcKAldGAAMfqY3gkPQfxgVrM2mY66ZYe9bp9ujkqdtoYWGBJWGl0iqVy2VqNppKIlZvvKVWq/zEuOXt9nV7hoSl0+mDthP720wue5vnpSmTTnNybtiCpVyX7r/vPqpXK2yMZ9ITDTwiYQumPKImOJa1BOzX9pqh3gRtkEv3PwLPI6K/XLMJK16pKWIHtv2O3iv2YehLxDdUEk01BQ+4mEW2E6d4Ik2OkySycJ2tiFXYo8CHt1edAh/CK/w2wIXVkmHA9rFjHnDX/wptmzPmLXKZILCjCCA7yHdridj8uE+OSsOgjoRaMho3zMvm6M4772SjfERSABGr1epMwmrVyumg1/uier1+cdzydvO6vUPCcrnvcFPuvV7ay8EeDPkh5+aKHBcMxnUPPvAA5bIZFiua6PiYbEDEtuCSDraGYKwvISKQMTkEgVkggPfvy9bigv3FqMJFDTkKodHn94o0DATMtlRyYnVA9KX+isWSlHQLZFtJJl9BmCAKNVGzOxRQj0K/Te1mifwoEWOnSdiHhdTtIUTP2BvSr9SbgLHFZ6ORlisEgYkQQMyw9xHRC8cxyeA3RjuyDFSSyjYM0jCYMVWqdTp1++1sS16plGllZZUN9evKNqzSbDVfVa9UPjhRLXfp4j1Bwg4dOuRVa43fSWczL0in0zZEighJwV6R2QxLwZYWnyY3laRqtRbJEYnQFFvyiIQ35KuI6E92CVd5rCAwDgJI5/Hta8ltf2PUxdjpybE9BLawWdtegZvcHY/F1SJimJeehR0nRilvgYgS5Psh+WGMkskYS816XWw4e+TYPbIcqCc71KwtUxgiKLXmTypuBfmTScMQlw6L0ZaiW+8KQPLQaxGBr9FqybG8JYeTe4OA4WNCWsFpb/7AdXTHnXdRrV6jleVlDuIKSVi9Xg/qtdqf5rOZb7lw4cLMvYP3BAnLZrOfF0smfyWTydyeSrmUBwGbn2dGCz3u/Z+5jwkY1JAqFQHCUqjYYFvwCsIW8be0CHRsuf21+FZIm3cdAcTL+UUtkd20MFFF7lw/zFolya712s5rvT2YRal0gRwnS91eQEGvRmmvQLnijZR0M1RZfZpq1YvU6TTJdlIUi8cp6FWo1YA/kRFiKfUkgrh2emPn6UZsOoSqkPiIOzfM5EmTI4BdJkyDvm0SaZixkzVekibFIcyYGq023XGnyikJDRqIWLlSoVazSfV67f5uu/291Wp15t7Be4GExbL5/Otdz/uRtJfOup5LxUKRE3UnUym68Pjj9NQTF8hzXTayQ7Lu4eCsE9qCLRLRlxPRxycfJ3KHILCjCCCNB/KZXTFNkRjk7xzmsyZhMSfGQVmhaowejpOgVBomMR7Vml2KUZOyuWN03Y13UCqVpksXH6PVpQeo11kmsjOUTNpkWy1q1ha1LexAmwiJH0jYmAb6H1sL2vofiUjStO3cMJMnbQ2B52jV+IFxb4+SMEPEIA3L5wvUbLXohhtvpMOHDzNvQD5JzikJaVijXm02Gj9dLZfhlT5TYczMSZjruoeTrveLXjr99a7rWvCIxAfqSEi6zpw5Q+T3GMRGo07t9kAKtsXgrL9ERN8v3pDjDnO5bhcRQAqP+9ci5R+6Uhm2jVAGM39VdxGG6SBNqdcAACAASURBVD16L5AwIwmLtjqe9CiWnCPf96jZKpMd+pSIHyDXu45iToIazWVqti5RGFQpjBXIS1rkOD51GovU67bXAcgkzO+M66j0JBHdIanapjcGpaTNhf5E9E4tmR0LpvUG+jGKxZRKEtIvfJPt0IkTJ1hyDHUkvCTZU7LZDBv1+h+2m43XNpvNmQZpn/nMnk7nv9hNJ9/rpTMnARwCs2ayWSZhCLb2yLmzlEok+nE+NooNNlZvqYsgBYNLrLhkTwCaXLprCCBI4SOjghWKUf7O4T9rEhZ34jo0RXTqtSjhZshJFKnT8ajTWWTjeyvEtR7ZVpx6YZP8oEmW5ZOdKJKXcMh2Auq2lqjbhiZxvSSs63fJD8Yy80Kw6qNrG1N8yyEIzBoBhOxByKiJpGHGQN/Yhpk4o+1Oh44cO86aNZPGCBo1CHQatfpDrWb7ZbVa+f+fZaNnTcIShULhlcmU+3Yvk4mlNQmbXzhAvt+jCxcuUK1cZk8fBGc1qkgQMUjBthCAEaLHH5wl4FK2IBBBAJKwM2sGqbDG3vQQdeTOjZm9QMKUJMy0SYWpiKc8cpJF6nVcaneWKfBbFJBDYSxJFEMkcJ+sboucoEN2vEhuwmZJWLe5TL0OJGEqcj6ehjAVE5CwpTUb2RMiCdu5MSZP2jYCPz/JOm1sZkHEFAmDQ0uKg7datk2ZXJ5VklBXLi0tsUqSSVi93ms3m68vlUrvmWWYqpmSsHQ6fX0i6b7DS3vfDMAgAYMkrK+KfPhhCgOfI9/ugCoSk83n6EVv26NEHiAI7AACiBgNm5xbhYTtAJpjPGLvkLD1kjCoS2LuPIWBR612g3q9OvXiHoWZNFnpFCHihFVtkVNfpXgsS8kEkWN1qM02YREPSY5UEVLbb4+rjnyIiJ4rGUPGGDxyybQQwKbgH0dtTvvbGMvizBNRaRgM9MEpYFdOtk0nT97KJIxVkjqCPgQ7jUbjtzut5g/OMmbYTEmYVyjck4rHP5TJZI8CMMT0yOXznBEd3gznzjxEjmWzR6Txiuz1lFckIuRPYJCPTSI8LyAFK09rJEk5gsAIBDwi+m0i+torXSfekTs3jmZNwhAlP+Ek1sUIU4FaLUp4RbKcNHXaAXW7DerFi2TNz5N3wKFOh6jzZI1i9SVKxi2Kxx0Kgzq162WywiCqjGQS1uq2tGxsJHYfJiLk8GuMvFIuEASmgwA0BJCGfc/l6SQ2rkCUhJnArci6g48fhHTs5EmOttBqNdkmbBVxw+p1qteqZ1vd7gvrpRJUoDM5ZknCnFyu+E2JVOKDuXzegT0Y0gyAjKUzGXr0/HlaXnyaAxAiNMWwKnLCyRSRob9DB8UcO4rhTHpECr2WEIivSSB+gIjeNqrREidsFELjnZ9w3hjvoRNcBUKddJJsF7b+sMiJJyiWylMQ2NRtdykI5ymbO0QHrnOoUSd6enGVwuBJgr2xZfvUbZQp6OnI+fphUEr6oU/tIWP9K1TxR3TaLMkfOUE/yqW7igBchxHB4P8ZlUnE1MIY6BsPSRMzDKEqsMFBzLBbjhxh4lWrVWllaZkDt1YrZb/T6n5rubzyB9Dk72qrNnn4LElYMl8svtNLZ16WzWTI05IwsFXs5M6eOUPtVpOQlNaQMBMhfwtekX+tc0TC/kYOQWCvIIDJBkEK/2hUhcQ4fxRCo8/vlYj5kIQNPCQHUzCCtzrJFDkJJCKOUdiLkUt5yiYy7O1YCVYpdNpkWV3yO3XytUF+xCS/r4oc0ygfoCFKOYJWz2QBGt1rcsU1igBUksgp+aXjtH84jRHswhKJJKc/tB2Hkq5Hx0+cYAk0xwxbWdGErEbNWu3eUmn19US03s14nIJ34JqZkbCFhYWsH4T/ks3nbwMJMx6RsAdDVNuHHzzNRqYmNEWn091qgFZELXwLEf3CLI3vdqCv5BFXHwIY4l9ARH+zljttWDRyWWtFGra9ATBrKZipPVIWQRoGFUo/aj6f5MzdZMfi5CRcspE7kmJkw0CfoHLscu5Iv9ukoNtlLcE6r8iIFEyZ6Y88YEz2n4nobyVkz0is5ILpIoCckjAfejOnkBhxDKcxgiQskUAaIxWqIrQsuvXUbRy6AnZh+CCnZLVWo2q5fJ9jW5+7tLRUHVXObpyfGQkrFArPtJ3Yx/OFgoPURLAHy2ZznLQbYSkuPvkkp+sAa0UKAnhEIlK+kYJNYA92Vscd+fPdAFCeKQhsE4GTOm3M80c9R6RhoxDa/PxekYKZGkIaFrdV+qLBMcglyYsKknw7MbIQIy4IKfB77KikknlHouTrB7AtmN8aNzQF7vqntRApL16zCYNxvhyCwF5DAHlN37Wmljw+TsWM7WxUJYlcklBJdv2Arr/hEB07foLKpVUmYZCGgYiVyyU/9P17VldXPz1OOTt9zcxIWCaXe6WXztwLyRckYdlcjr0iU65LDz34INUqZY4sDRJm7MGiJGzMaNCYqf6MiL6PiC7tNHjyPEFgBxBA6qLXru32fmacZ4k0bByULr9mr0jBTM0gAUvEEhSzEK5iIyKmjPWZbPG3NlHuky/zJEXGMB92gy6HphhTCobbflQHx5SURVsbVnLX7iJwcC2QNdJqvWAcA/2BXZjDQVuNXRh4BRz5Mrkc3XrbbZy2CCSM44bVaiqnZL32ylql8u7dbc7GT58ZCcvmCn+WzWW/Kl8osNdCsVhkSRiA/Pd//wSF7AHpXxYfbMJckfD4QWywN80CXClTEBgDAbyD37gWnBATAPLWXPEQT8lRCO19AmZqaFvwlIyTYzmbE7FNm7vOEox6QY86IGCIZTHesbwWvPoVa9Hyf19UkeMBJlfNBIG3EtHrOJ/XGHOjiakYTegNZz/WIsRi9Kxn3cP7mmq1wvHCIOThkBWV8keqlQrI3tSPmZCwgwcPplvtziP5YvFALpslEDFEtIVKEiLC+z75SXJTCSZgjcYgYTdUkhPuaC9oKdhfTh1ZKVAQGB8BpC1COi0YSY88JHjrSIj6F+w1NeRwzeElCSP9yyVi5srhKXq9rRfa1wt7LAFDkNYJjg8R0avX5kekLZJDENirCMBLEtKww+NU0ISqAOlCrDCT0BtErNlu0zPufibNzc8zz0BGHoSrULHDVpfjjnN0FnZhMyFhhULhHjsGe7CiBVEh54rUOSPPnT1LTzz+GCF6PsBBXA/ki4RnpIoPpm0ixukRon/Rrq4r410uVwkCM0EAXpLfvWaF/VNEdN04NRAiNhqlCTdsox+4S1fAUN8BEUOOUEJy79HTMqhYEPosAcNnTPMM04Kn15IW/7iOnTgRc9slCOSxgsBmCMzppN6fPQ5EZl400fMNCQPPQEiKQ4dvYi9JJl86j6QJ4Op3O88tl8v/Ok45O3nN6Ld9J0vTz/Iyme/LZHPvB/mCKpIj5efz7MVw/2c+Q/VqhRmsMcqHLZhJVYSJdcwJB5MLArTCHkwOQWCvI4DURYhVA2/Jsd5LYwMxzqK91xu/0/XbLwTMtBs2YuhHSMUgHTP/VucxHLQELCTy8V+gPhNKv/AwPOjviOhFa2F7kEVEDkFgryMASRg2qdisXvEYpDCy2S4MPMLkkQSPSGdzdMedd1Kr3WY1JMJfKeP8MnjHK2q1GlIYTfUYa7Lf6Rplc7kPZPP5F+eyOY4PhiCt8wsLbIT6T//4UYo7Dku9ovkiAeCE9mAIPoiIux/c6frL8wSBXUIAHpIfGcc2LFq+kLEBGvuNfG00jpS7vU02vvV/MLbn/8KAghDfY4Wg2OjxsAX7Ku0ZuUvDWB4rCOwoAt+uBSoIbj2ShBlpGAiYMc6HOhJOTR0/oOc///mcU3J5aYlzSTbqdapUKwhV8VvVSgVlTfWYBQmLZwuFfy0WincbKZgKT4GUAi36t49/nPK5LEvBEC/MeEaClE1Iwuo6Me3FqSIqhQkCW0cA7+PPEhECB47c9Q0XY2LlGMnY1S4hM0QE3+azdeiviTuhHUA6GETJ3zKLuyaQkkbuJQTgJYlQU+lRlTIbUhAxE6oCGjbEBwPHKFWq9OznPKefGtGEqajWqjDUv69aKj2biKaaPWLqJKxQKNxCjvPPhULxYD6fo0xGJe0GSItLi/Tw6dM0VyxSqVRiEmZUkYaETTDZ/hsRAVA5BIH9hAB2e4ig/xVbIWL7qaFS16kiAAL2F0T09dNeZKbaSinsakXgE0R0z6jGmY1olIRBIua5LscgXVldpZOnbqMDBw4wvwDPgEoS6shSafVS2Ot9TrlcfmRUOTt5fuokLJPJ/Mekl/6DfD4/ZzwjEUzN9TwO0vr0xYscNwzgQDI2bA82QZBWpDx41U6CJc8SBKaEwAGtRkfKjqm/o1NqoxQzPQQg9ULqNuTPXZxesVKSILBjCNyrUw+OfOBGxvmwC4OwB4TrwMHr6eix49RsNjiPpPKQrFKlUl5p1mrfVK/XkcFkasfUJ3gvk3lZNpv7uXyhkEFeJ4SmgJjQicXogfvvp1ajflmkfBjlRyVhY6Lz1TpQ65iXy2WCwJ5BAO/l7TqxN6JGT6ya3DMtkYrMGgFIwJAt5A1E9ICoIWfdHVL+FhFADK8/Hefe4TySUeN8RFdIeh7dfvud7NiCgK0mj2S5XKrVa7U3TDto69RJWDaXe0c2l39FLp9LIDgr7MEQniLwAw7SmozFWAIGUaFJV7QFz0jodOHqXxqn0+QaQWAPIgDihZRGyJ2G+GEj86ftwTZIlWaLAPLmIh4Ycuc+LEm6Z9sZUvq2ECgQEUKrjG2cb8JUwDgfkjCYPOG73e3Rs+65hwO4IjzF8vIy26BXKuVOpVp9f61UQvy8qR1TJWHPec5z4g8/fPYP8sXCC7LZrI0QFYW5Oc7tVK/V6NOf+hTNFwvKXbRe7xvlGxI2gT0YcqGdmhqKUpAgsDsI4P3E5IP0Mq9ck4whxZEcgsA4CCAVEUwykA4Lm1ExxB8HNblmLyPwIBHdOqqC0WTew5HzwTmWV0t01zOewaGxwDsQOR+co1qthOVS6c8PHzr0wvvvvx8bmKkcUyVhmUzmQCyR+KNsLv95xWKB0umMCtSayzEQD3zmM3RgQUWzbTYRpLXNny0Y5X+YiL52KghKIYLA7iOA9xTq9ffq8BUiFdt9zPdrCVg8EIbiZVp9I+Rrv/ak1HsYgT8hoq8ZBUvUOD9KwiAJg+bt6aUluuPOu6hYnIP0Swt9alRaLcE27B+67eYL6/X61HJNT5uE3Z503d/K5vLPLhQQqFVFy/e8ND3xxAV67JFHCOSsVFrtpyuCYf4gPAXmk7HmFEQef+OozpLzgsA+QyBHRD+sJ6KbiSgjhvv7rAd3p7qYFGtE9NiaBxk2oD+3lhS+vDtFyVMFgZkh8JM608MVKzDsIZlIIGhrklzX5RzVq6US3XzkKN14+DDHCNNSMCqXOIXRv7WbjW+v1WqfmVYrp0rCUpnM52fSGUTKvw0R8rM5pCvKcaT88488QouXLlLac6lcrrAkDATMkDCoIifwjARbHsuIb1pASzmCwA4h4GiRPMb45xLRbUR0ZBxbiR0qXx6zdxCA7et5IjpNRB/VBAymGP7eqaLURBDYMQQmMs6HzddwDklo3RrNJh04eJCOHD1GnXab7cJMCqNyqfxQs1F7aa1W+187VusRD5oqCXMzmRdlstl35HP5w5CEzc3Nc/JuiAxPP3A/ItaSY1tUrdb6JGwLnpEQxz9LewJNC0cpRxCYNgJ4d5HUFl6UsH+ErcQxIrqeiBDiAlKz5Fo+ypj2rsT1U33fpw3IVVaeEfvDu7G3FmC1TUQVHWICAajPEREIF+xk4PV4YVw1wVWGkzTn2kEAG85PjuOkZDwkTcBWk0MS9ucQ6GTyebrt9js4HSLSF8EECmGxypXKhWa18oO1Wu3/nRasU52UM7ncKzKZzFuz2dwcCFhxrsgqSdu26DOfuY/CXpe63R7H8jCJu7fgGYnJ6HP0pDQtHKUcQWCWCBgD/qKOKo3I0iBgkJrhg0NI2Cx7aPKyo7YXkGzhAyKGTCD4rIrB/eSgyh37GgFsOv9Rbz6v2JDhMBXJJHJIupTJpCkeT5DlxOjOu+6iIAhhkE+rKyu0sroCqdhqvVZ7U61SgVPLVI5pkjArVyi8OZvN/XChWEx5aY/m5+bZKL/b69H9932aUvE4ZzqHZ+RGgVrHzJf2MSKC2HJqhnVT6SkpRBAQBAQBQUAQuHYRQPoimBl99igIoiQM0jCYPCE8BXJIpj2PWt0u3XHXMzi1EWKFIUxFo1GHcX6rWq28rVIqvXVakuVpkrBErlD8b5ls9uX5fN6GOnJ+foHiiQS1Wy166PRpyqQ91s+a8BTRaPkThKdAYMIXaw+hUX0l5wUBQUAQEAQEAUFg7yMwT0S/SUQIYD1SEgYiZmKFQR0JIgYSBsFPtdGgW0+dYukYtG1I5g21ZKlcDmq16nsqq6uvWwsNNJUwFVMjYcViMR9a1rsymeyL4aEAWzBEywcwSB3w8OkHKZtJ92OEGaP8LcQIez8R/ZC2nxjVV3JeEBAEBAFBQBAQBPY+ArBzhefvS0ZVdThWGEgYPiBhiMhQrdfp5KlTnLsaYbCgjiyXSxwqq1at/qYVhq9ZXV2diofx1EhYOp2+Pp5M/VI2l30R4nPkclmam18gN5Vio7gzDz3EJAySMETLBzDGMxKpBiaQhP0YEb1zzZW/Oaqj5LwgIAgIAoKAICAI7AsE3DU7yO/XAYjHloRB5WgkYYgVxpKwWp1O3Horxw2D6RMkYYiaD7uwarX6h51m89WNRuOpaaAyNRKWSuWPepnEvbl87itBwgAGJGHwVrh48SI9+sg5SrsuAwESFg1PoUhYQOFYIcLoO4not7RH0TQwlDIEAUFAEBAEBAFBYHcRgKf3txHRb4xTDBJ5Qx1pSBiIGHgHclXXm0265egxuuH669kREIIg8I5VGOeXK39R73Ze1S6X4YG868fUSFgmk7kz6bq/nMsXvhDZzJEyAIwUAdQuPvUUPfXEBUolk0zCTLT89YFa4ak98oAH0dfrxN3jUbaRj5QLBAFBQBAQBAQBQWDGCICvwOnujyJe3xtW6fKArcomDHwDgp92p0M33HiYrr/hBmo1mwhNATWkClNRLv99p9l4Ra1Wu28a7Z0aCXNzuc9Ou+67c9ncZ7E9WLFIiWSSioUCXbjwOF188kmKx2JsH9ZoqJRFJkaYUUeOAQiiRn8dEf3NGNfKJYKAICAICAKCgCCwfxD4T0T0xzpbyBVrbQzzTawwkDBIwkDCEArr+kOH6PBNN3OGHrYLQw7JElIXlT9eb7Ve0axU/nkasEyNhGUyhS/w0qn3ZPO5O1gSlsnS/MICxRyHo+WXV1cI4kOIBo0kLBqodcxo+Qhi+E1E9PfTAE/KEAQEAUFAEBAEBIGpIfD5awGqEUgVQanHImEman5UEuYHAeWLc3T06FHq9XxaXl5iARAkYZVK5YFmq/WyWqn0d6PK2InzUyNhuVzuS1Oe9958vnC0UESQ1gzNLxygwA/o/PlHqFGrUBiEfRJmbMIgBZtAEnaWiL6ViKbCYHeiA+QZgoAgIAgIAoKAIDAWAs/TNt8nRl1tJGEDEmYCtmbIsm3yMhk6cuQo2Y5DS4uLfRJWLpXOtxqNl1Uqlb8aVcZOnJ8aCctms1/jptPvyxeK18NF1ISpSCYSdPr0aWrWaxT4PtuEwVvBqCMnJGGfXsul9l+J6BM7AY48QxAQBAQBQUAQEAT2DALPXsuV+wEiesaoGkVJGFIjmoCtMMwHMUul03TqttvZCRBqSFZHlstULq1eatZbL61WS38yqoydOD81EpbJ57/RS6ffX8wXCpCEQS+Lb4CBQK29Toe63Y5OWTQgYb1ejxN3jxkt/1+J6LvXjPM/tRPgyDMEAUFAEBAEBAFBYM8gcPda2qJfJaLnjqrRZiQsk81w6iInnqBTt93GmrYS4oPVakzESqXV8lp4ipfUyuWp5I+cFglDyqJv87z0+4rFopfJ5WgOAVvzeWq123T2zMNkhyEzUuhlm80W/72F5N3/WwdyQ0JbOQQBQUAQEAQEAUHg6kHg9jV7sPcREWzDrnhslMQbqYsgCUskExSQRcdPnGQJWaVcZgKGFEarq6vNeqP+8mqphOj8ux5lYVokzMnn89+TSmfuXVhYiEMKlsvnKZ/LsRH+ubNn2EC/02731ZFRm7AJJGF/TUSvXIslcmZUB8l5QUAQEAQEAUFAENhXCMAW7F4i+rJRtY7mj0wk4pRIqPyR4B/JVIq6PZ+OnzhBKcQnrVRYFQkh0PLSUq9Zr7+6XC7/ChEh7NWuHtMiYbFCofByL5t959zcnD1XnFPhKebmOE/k2YcfpmQ8xrZgEAkO24RNQMIQP+S1RPTYrqImDxcEBAFBQBAQBASBaSNws86Ig3igY0nCTP5IYxMGEgYy1u726PjJk5zKCGmLTJiKlZXlsFGtvrZUKr17GkHfp0XCkvli8TVeOv32+bl5tgWDYT5idjSaTXro9AOUjMep1WpStVpjMKKG+ROQsN8hotcT0ZOjOkjOCwKCgCAgCAgCgsC+QuAQEf08EX3LqFpHJWHGMB9EzJCwTq9Ht566TfGQRpOj5cM2bHllmRr1+hvKq6u/SETtUeVs9/x0SNjhw26h0fhBz0u/dW5+jgqFIiFWmOu51G516MHT91MiNpCEtdswzFc2YTCam4CE/doaaD9CRIvbBUbuFwQEAUFAEBAEBIE9hcABIvpZ7YA3oSQMUfOVOhKSsE63R6duv51/azYbtFpSwVpXlpHCqP7mUir1C/Tkk43dbv1USNjBgwfT7a7/Q+m09yZIwKCGhFF+yk1Ru9WmB7UkDPZhUE9ug4T98poO941rST5Luw2cPF8QEAQEAUFAEBAEpopAgYjeSkSvGlXqsCQMuSNBvqB+RPqidqerSViSTaBgEwa1JAz06/XGTybjztsvXbpUH1XOds9PhYQtLCxk/TD8ES+d/pG5uXnOXA4PBeSPBOl64L77KJVM9G3CoIo03pETSsLesQbITxBRdbvAyP2CgCAgCAgCgoAgsKcQyK55LL55bY1/3ahaGRKGTDzROGEgYSBjrXaHbr/rTkqnM5w3soLckasrtLzM6si3OZb1M0tLS7vOJaZCworFYj60nDdmsunXwSYMnpELCwuUzmTQWPr0Jz9JiXiM7cBgmB+1CYMqEkRszOPniOgtRLTrIsQx6yOXCQKCgCAgCAgCgsDOIOAR0ZuI6IdHPW4jEmZswuAd2el06RnPfCZ56TTVa3VaWlpE3khaWV5GlIZ3UhC8tYQ8Rrt8TIWE5fP5ouXEfiKbzb76wIEDTL5MmIqVlRU6f/YMJeLxTUnYBDZhP01EP0VErV3GTR4vCAgCgoAgIAgIAtNFIEVEP7bmtfjjo4rdjIQN1JEdOnL8BGvmECcMAqB6vUaLi4tULVfvDYPem8vl8uqocrZ7fiokLJfLzTnx5Fuz2cwr5ufnWQ0J2zDoZeu1GtuEgYRBL6tswgbekRNKwiAF+xki6mwXGLlfEBAEBAFBQBAQBPYUAgntfAezoyseVyJhKkRFl9MWQSjUasI7cpXVklBHVmvV9/ba7TdWq9XlUeVs9/xUSFg2m52PJZI/lc1mXzq/sMBBWtHwXC5Hq6USPfzgaUollE3YRiRsAkkYxJTwnOhtFxi5XxAQBAQBQUAQEAT2FAKxNU3XG4joJ0fVapiERQ3zoY5sdzp08tRtVCwUqVKpsBQMxvnLy0tQR76/127/eLVaXRpVznbPT4uELcTjyZ/J5LLfCxIG8gWRIBvmQxL2wP2ERN4DEjYIUTGhJAwiyrdNI8rtdoGX+wUBQUAQEAQEAUFgIgQcbQ8G06OJJGEgYX2bsCQkYR267fY7WCAECRgEQIicv7S8RJVy9Vd7ndaP1mq1XQ93NRUSlslkrkskk2/LF4rfiUCtCE8B70gYxCEux5mHHtQkDCEqGkzGjHfkhCQMumKQsGBUB8l5QUAQEAQEAUFAENhXCNiahMHsaOSBaPnGO9KQMOUd6bI68uStt3LMUhAwpCwql8oqXtjq6m902u031Gq1p0cWss0LpkLC0un0wYTr/nyhUPx22IQBBDQcQdJWVpbp/LmzTMIQJ6zR2BYJ+1EieruQsG2OCrldEBAEBAFBQBDYewiAhP2QNjsaWbtNSZiOE3bk6DECJ0FsUjhCgozBJqxUWv2tTrP5+nq9fnFkIdu8YCokzPO8G5Ke9wv5fP5bYJCPiPn5fIFSqSSVymU68+BpNsw3JMwY5vd6PY6WP0GICkTLBwnb9czn28RdbhcEBAFBQBAQBASByRAAZwEJg8Zr5GFIWCwWY1UkPl7aY6dAhKg4cesp5iOtdou1ciBiMNCvlEu/22o0XtdoNJ4aWcg2L5gWCTuU8rx35PKFbwIJg11YJp2heCLOhnDnHn5IeUciYn6jwd6Rw8Fax2ynkLAxgZLLBAFBQBAQBASBfYbA9kmYp0lYt0vHTpykfKFA3U6XDfOXl5ZoRZGw3281Gq9tNBq7nod6KiTMdd0bk573zkKh+CIEaYU9GOzCELT14sWLdPbhhziBd1QStkUSBq8JBGwVSdg+e7OkuoKAICAICAKCwAgEwFlerzVeI8HaUBKmSRhswo6fvJWuv/56jhNWrpSVYf4SqyP/sN1ofH+z2XxiZCHbvGB6JMz13pUvFF4I/SvswWAYl81lafHpp+nRRx6hZGJAwmCYj+Td+EyojkQUXZAwOQQBQUAQEAQEAUHg6kMAJGysdX49CVMJvD1DwjpduuXoUTpw3XUIScGauFJplZaXV6Ca/ON2s/HqZrN5YbfhmwoJO3z48I3pXO5d2WzuhQhPkc3l2BAfH+hfzzz8MNkWXWaYD5swkztyTCCEhI0JlFwmCAgCgoAgIAjsQwTGJmHwjAQRUzZh60kYQihAEgYTqU67Q51Om+OF4VOrVf+o2m6/5okzZ64OEnb3BeP3kQAAIABJREFU3XcfTrjuvV4687VIV4QPCJhtOxwY7ZGzZygMAiFh+/BtkCoLAoKAICAICAJTRGBHSBjZNh07foJt1APf5+CttWqNavUaNeqNP+k0g1d96lP/fJWQsOc973CC7HvTaY9JGIKjMQlzHE6a+cjZs0QRErYN70iRhE3xTZCiBAFBQBAQBASBKSOwRRKmvSO1OpIsm44eP04LCwcoCAN2CETweM4h2Wx8uNXrveq+j33s8d1u21TUkXc997k3ebH4va7rfg2TsHSGRYMQFUISdk6TMMQIg3F+lISJOnK3h4A8XxAQBAQBQUAQ2DcITETCTLDWfogKTcIs26ajx44rSVgQsCTMkLBms/nhRq97lZKwbJaDtQIQJmFLl6sjhxN4A6AxD5GEjQmUXCYICAKCgCAgCOxDBCYiYQObsPWSMJCwI8eO08KBA2wO1YIkDJHzq1VqNJp/Sn73lR+7KiVh2SxlNAkDCELC9uErIFUWBAQBQUAQEARmg8COkTCoI+cXFAmD8KdmSFir+afUvcpImOvEf9nz3K9G0m6QsMQ6SdhZCgP/soj5JkSFSMJmM9KlVEFAEBAEBAFBYI8hMBEJG6mO1JIwtglDEu9alRrNq4yEPfe5z72J4vFf9lLuVyNQKwzzkUxT1JF7bGhLdQQBQUAQEAQEgb2NwI6SMKgj/SDgLD2wCUPMsGaj8Weh33vFVaOOZBIGSVja++psBiQszSTMsW1aGrIJg2E+grWClYokbG+/CVI7QUAQEAQEAUFgygjsEAlztHfkwnoSVqtRs9H8s7DXudpIWOzdXjr9ApCwjCZhkIQZEkZhAGM4goekGOZPeUhLcYKAICAICAKCwP5AYEdImIkThlSKMHmCJKxWU+rIZqP+Eb/TecXHP/7xx3YbkqmEqFCSMEPCVJywVDJJlmUJCdvtHpbnCwKCgCAgCAgCVw8CO0zCDlAYau9IEyesUf9IcDWRMMQJS5H17pTnvQCG+dlMhuKJBMVjMVpcXKTz5/4ve28aHEl+nvm9AAp1V2VmXTgKVUAVjsY0KUokRXJ6pucgKe6uPNA6tPJK2lVoNctvvQqHd+eD+a219kdG+Iugpo8PsmO9EbsKr2wdHJAzPK1YhyO8tmTxmOlu3EDhqiursu4LcLxvAT3oY9Zd6CoAmfN0REUPJXRl5g//jHjiPZ5nnVgNnvmEoR1pnbcFTwICIAACIAACfSTQHxE2NETTyVmKhMPUbrWo2WpRiUVYdybs27Xjzu9/YJVK2OTkZMzmcNzz+fy/FghoYtbKGZIut1sCvDfWVml4eIj7sLIhCRHWx+OKrwIBEAABEAAB6xDoiwg7PiFKzs1JgHetWpXMyEqlTPm8TqWS8e1Wvf77BwcH1mhHOp1a3OOz3VNVbSkYDJKqaaQoCtlGR6mg65IdCRFmnTcETwICIAACIAACAyLQHxF2fEKJuTnRI1wJKxaLpOs65XI5KhT0d6vt9j+r67pVRJgz7vH57mmBwJKmBUhRFfJ6faSoKuWzWVq9/yGNjAzLYD4qYQM6tvhaEAABEAABEDA/gT6JsGOaW3xJYouKeoHK5RIZRpHy+Tx/3q2W2v+sXreKCNO0uMdmv6cFtCXttArGs2Eet0eyI7kSxnYVLMAgwsz/huAJQAAEQAAEQGBABC4swpxOB7lcbnK5XGJLkZidExFWZZPWUulRNSyfz61U2+071qmEiQiz3fMrarcdqarSjnR7vHSwv0ep7S3ifCcM5g/oyOJrQQAEQAAEQMAaBC4swjiz2n0a4M0iLDY9Q5OTUZkF43ZkoVCQdmSxWLCYCDudCVNUdSkQCBJXw7gt6XK76PDwkLa4EjYyjMF8a7wgeAoQAAEQAAEQGBSBvokwDvAem5igerVGup6XmTBuRxYKusVE2GklTFG1pUAgIJuRXBFzulziE7ax+oBGhkfQjhzUkcX3ggAIgAAIgIA1CFxYhDmdTmlFnrUjk/MLxGat9VpdRqO6M2G6dUUYtyP5gX1+P6mKIiHeuWyWdjY3pB2JmTBrvCF4ChAAARAAARAYEIELi7An25HxmYTMhDUbTRZeMhfGhSHrtSO5EjZiu8ftyHA4LCLM6/XKhmQ6fUg7m5sS5g0RNqAji68FARAAARAAAWsQuLAIOz+Yz1FF8USCImPjVD41aS0ZBmWyGZ4Ns2I70n5P1dSlSCRCPp9PhuN8foX291KU2t7uzoSd245sNhvUbLYk04k/z/nnG0T0zef8WfwYCIAACIAACICAuQj0RYS1jzsUi8/QZHSKSkZRFgONUkkM5HWdRVjTQtuRPJjvtd1TAwHZjuTNSEVRifuz6UyattbXyXYqwhDgba63AXcLAiAAAiAAApdIoD8irHNMM8kkRSJjVG/UqVgoyIZkPpejvJ63WCXsdDtS0wJL3H9liwqphnk8kh25sfrwkU8YRNglHmVcCgRAAARAAATMReDCIuzJmbDk3LzEFlUrVZkH47kwHtAv5AsrZUtVws62I3kwPxwitqlgs1aeCctm0rT64D7MWs31EuBuQQAEQAAEQOAqCPRNhM3fWKRQOCJu+eUS50bmKJvNkFEwVjrt5h3dMrFFpyJMsiNDIYkr8nMlzOulQj5PDz/sxhZhMP8qzjOuCQIgAAIgAAKmIdAfEdY5poWXXiItEKBKuXxaCWOz1iz7hVmwHellx3xliR+Yy38BLUCjdrsMwa2vPiAbLCpM8wbgRkEABEAABEDgigj0TYSxTxjrkVazyXNgp0P5eSoWiivVcvuOxbIjuxYVPATH82B+RSGfz09HR4ePzYQhO/KKjjUuCwIgAAIgAALXn8CFRdh5s9bjkxNKzM3R2NgElUoGGcWiVMO4MMQizILtSPs9Ve1Wwji2iIfzXR4PpQ8PaXN9nUaGh6harVG9zp86NRoNarVgUXH93wfcIQiAAAiAAAhcGoG+iTCOLYqMj1OtUpHcSI4t4viiol5cKZea1qqEuW22b6mq+haX/tieIhDQyOl0UTqdprUH99GOvLTziwuBAAiAAAiAgGkJXFiEPbYd2enQ7I0bFImMS/FHz+fFooI1iVHQV8rttsV8wny2e6qmLYVCYWlHcoA3b0geHuzTxtoqtiNN+z7gxkEABEAABEDg0gj0R4QdHxNbVIxPTMp2JIuwbmxRhoq61UTYue1IVdOIQ7xZgHFLkvuvsKi4tMOLC4EACIAACICAmQn0SYSd0NzCDYqMRaQVWS51hZi0JAtW2448FWEc4M3ZkSzCgqEgORxO2kulaGt9DQHeZn4lcO8gAAIgAAIgcDkELizCzg/mt8Uxf5aisSlq1htda4p8XgzkjaIFfcK6M2HaW5wd6XK5ZC2URRgPwa3eP/UJq9bEKwyD+ZdzknEVEAABEAABEDAZgQuLsPMzYZxJPXdjUXzCGvWGGMdXazWZCStYsRLmHukO5ofCYdmO5Ae32UYpl808MRNWpXq9ge1Ik70VuF0QAAEQAAEQuAQCFxZhTqeDXC63FII6pzNhwVCY2u2WGMfndZ2ymQwVihzgbbXBfK/tnqKpS2ORMfL6/DQ2FiGH00n7e3u0sbYmFhVdx3yIsEs4xLgECIAACIAACJiRQF9E2PFx1ydsIhqlRr0uFbCSYVA6fcQzYtYTYW6v7Vuqpr0VCnF2ZID8fr845nM7cv3hRwHeaEea8Z3APYMACIAACIDApRC4sAh7MsB7dn5BunLNZlMEWC6Xk48l25Eem/2eoioymM/tyGAwSLbR0dPYIoiwSzm6uAgIgAAIgAAImJtAf0RY55iSC93Yok67LeLrbDC/wLFF7aaFfMJOtyMVVVviwXyugnm9XmK7Ct6O3N7cpOEhklZktcpu+XDMN/c7grsHARAAARAAgYEQuLAIOz8TdnxCFE8kaGpqigq6TuVymQxpR1pxMN+pxT0yE8ZmrSFiIcYijGfCDvb3aXtzA2atAzmr+FIQAAEQAAEQsBSB/oiw42MRYRMTUSn8sAhjAZbNZqmg51eq5fKder2+M2hyQ4O+AH+/81wljEWYoijEW5KjtlExSXvw4c+fEmHco+UPr5Hy5zn/fIOIvvmcP4sfAwEQAAEQAAEQMBeBFxBhTtmM5A/rioWXbpKqatRqt2QrkmOLRIRZ0aLCY7Pd43Ykz4SxUz7Phbk9XokIePDB0yIMAd7meitwtyAAAiAAAiBwCQT6IsLYouLGSzcpHI5QpVKRJUEuCrFZqyVFmPd0MJ8rYFINUzVRo2yQdv/nP6eRkeFTiwqYtV7CIcYlQAAEQAAEQMCMBPonwm5+ikLhiAR4F9kjLJvtVsQsF+B9rh3JW5FcCeONhOHhEcpk0rS1vn7OJwwizIxvBe4ZBEAABEAABC6BQF9E2PHJMU0nZykcGaPjTkecGrgSZl2LihFuR6pLoXCIVDVAgWCA7Ha7PPjG2ioG8y/h5OISIAACIAACIGByAn0RYWeO+VwQ4vnzfD7PA/mUzfBMWGGl2rGSYz5XwkZs9/wswk7NWtmeYmhoiIqFAm2srqIdafK3ArcPAiAAAiAAApdAoD8irNOhxPy8DOafnJyITQULMW5JFi0XW6Rp8SezI31+HymKSrs7O7CouIRTi0uAAAiAAAiAgAUIXFiEPemYH59JUHx6moxiUTzC9NO5sIKur1TL7Tv1um4hi4qRkXuKFlgKhXgmTBMBNmIboXwuBxFmgbcCjwACIAACIAACl0CgbyJsOpGU9J52u8PVr+5MWDZLekFfOWm37+i61USYqi0FQyF5aK/PR06nUx4YM2GXcGxxCRAAARAAARAwP4ELi7Dzjvk8E5aYnSeeU6/X61QulbrZkeITZsGZMLfN9i1N097qbkdqNDY+Tk6Xi/Z2d2QmbHj4I4uKs9iiZrMFs1bzvzB4AhAAARAAARDoF4GeRRgvAfKHCz9nZq1ng/lT8TjVazU6Ojx8tB2p59kx30rtyNPYIlXTlngTwe9XKBAIkMPpoKPDI9pcX4NFRb+OJ74HBEAABEAABKxLoGcRNjo6SjwP9qQIS8zOSUGIzeF5KJ9nw9g2q6jrKx2rtSPdNvu3NFV5KxAMilu+x+ulQCBIh4cHtPbgPiwqrPvC4MlAAARAAARAoF8E+ibC5m4s0vj4uAiwSrksg/n5fI50vbhSbTfv1C0zE+Z0xj1enwR4c3g3m7X6FUXKguwTtr76ECKsX8cT3wMCIAACIAAC1iVwYRH2+HbkCc3Oz4txfK1WkyoY21Skz2KLSiULBXiftiNZhHF2JA/na6pKTqeL0ukjenj/Q4gw674weDIQAAEQAAEQ6BeBvoiw4+MTml9cFBHG7UipgmWzlMlm+L9Xqm2LmbWKT5imvcVmrSzEuArm8fkol8nQ6v37MGvt1/HE94AACIAACICAdQn0RYTxYD63IznPmjcjeTifw7vZrNWiAd4cW6Qt8RCc3+8XEebz+xFbZN0XBU8GAiAAAiAAAv0m0CcRdkI8mB8Zi1DJMLotScOQLUnrBXg7tbjXZ7+naMpSKBQmhWfCfD7yqyrtp1Kn25EfWVSwZweXB1stWFT0+/Ti+0AABEAABEDAxAQuLMLOb0ceHx/T9OwsTU3FJD6xVCqJRcVZbFG5aaXB/NPsSEVTl4LBkGxHutxuUhRFVOfWxjpmwkz8RuDWQQAEQAAEQOCSCPRFhLWPO5RIdi0qisUi1apVGczP5rJU0C1o1soB3l2fsLBYU/h8fhFi6aMjWnt4n2wjI1IO5A8qYZd0lHEZEAABEAABEDAXgf6IsE6H5hZuUGRsjGrVGpVKhthTZNKng/kdiw3mu0ZG7qk8EzY2JkatHFvkdntkO3L94QNUwsz1EuBuQQAEQAAEQOAqCPRFhPFg/iyLsMgYVasVKpfLkmXNhSEZzO90rOkTxtuRXAlzu13ErcnDw0N6eP8DiLCrOMq4JgiAAAiAAAiYi0DfRNjC4ks0PjEheZHchePsSNmOZIuKspV8wjQtLhYVqvoWm7Wyaz475nN80cH+HsxazfUC4G5BAARAAARA4KoIXFiEnTdr5cH85NwCTU5FqVgoUqVyWgnLpC06E2azSTuS+69sT8EVMa/PT4cH+7T28CHZbCMyGIeZsKs617guCIAACIAACFx7AhcWYee3I9vcjpxfoImJCdmMPKuGcTtS53ZkyUoB3rwdaWOfMHUpHI6IY/6ZVxhvR4oIG4FFxbU/+rhBEAABEAABELhaAn0RYZ0Oz4Qt0Nj4BNVrVSoaBuVzWUqn02xVYT3HfBZhfoVFWJhUTRObCq/XS4cHB7T6ANuRV3umcXUQAAEQAAEQMAWBvoiwdqdD8xzgPTHxKLybo4uynB1ZtKAIc43Y7mmathQMBok/bNhqHx0VT46N1VUM5pvi7OMmQQAEQAAEQOBKCbyACHOQy+WWkSjejkzOzxMbyDebTTFs5e1IHs6X7EirWVRwJYxnwjinSVVVsakYsdnEHI0rYSPDaEde6bHGxUEABEAABEDg+hO4sAh7cjCfsyNVLUCddovy+TxbU1A2k+3OhFkqwNupxV3ebiWMfcJ4HozF2PDQMD8srd7/ECLs+h983CEIgAAIgAAIXDWBvogwroTNLy6SpgWINyW5DcnZkemjQ9LZMb9stcH8U8d8HsrndqTH4yG3x0uZoyPaWEc78qpPNa4PAiAAAiAAAiYgcGERdn47kkUYB3hzbFGlXHlkUSHZkbq+0um07+i6vjNoHkODvgB/v/NsO1JRpR3pVxQKaAGyO+zSg117+ACxRZfxi8A1QAAEQAAEQMDcBPoiwngwf3b+hrg1NJsNaUcaRpGyaYsO5stMmBZYYn8w/iiKSjb7KOm5HD348IOnRBhDaTZbUibkz3P++QYRffM5fxY/BgIgAAIgAAIgYC4CfRNhN166KebxrVaLbSnEK4wrYbqet9pMmDPu8fnuKTyYz7FFwQB5PV7yKQod7h/Q+ioqYeZ6B3C3IAACIAACIHAlBPomwsSsdXKSjKLRzY7M50SIFQvFlXK7aaHsSG5HjtjuKRqLsCCxYSsHeHs8XmKz1tUHH6IdeSVnGRcFARAAARAAAVMR6JsIY58wNmvlyKJyqUSZTOaj7EhLWVQ4tbjHyyJMXQoFQ6QFg6SpKrncbjrY36eNtdVTEcaxRXWq1+vUaDSkRIh2pKleDtwsCIAACIAACAySQN9EWHJuXiphHJmoFwqk5/OUzWasmx3J7Uh2zA8GQxQMBWlkZIQy6TQc8wd5XPHdIAACIAACIGAdAn0TYfM3blA4MkYcYZTLZsSolathBSv6hLl9tm8FAoG3xC1fUSUqgOfCtrY2aP3hQxFkHN6NAG/rvCl4EhAAARAAARDoM4G+iDBxzJ+bp5lEUtqRBwcHZBSLIsQKed2CM2GyHckzYV3HfP7wYP5+ao/WHz6gEQR49/mc4utAAARAAARAwHIE+iPCJMD7BkWnomLSyrmRHF3E7ciibsXBfJvtnqKqIsI4vLsbWzRK2Uz63EwYKmGWe13wQCAAAiAAAiDQPwJ9E2GJuTkKRSLUabUpl89JjCJbVFivHalpcbfN9i1NC7zFM2GKqlAgEKRR2yilWYSt8mA+siP7d0bxTSAAAiAAAiBgSQJ9EWFs1srtyMjYmCwBslmrVMIyGcpbzifs1DGfzVrPRJimauTzK3R4sE8PPviAbDbMhFnydcFDgQAIgAAIgED/CLyACHOQy+Uml8tF7XaHFm7epImJSSpJOzJPxWLR2iJM0wJL3IZkh1quhLncLjo6OKCHD+7DoqJ/BxTfBAIgAAIgAAJWJdAfEdbpEPuE8ZIgW1Tk8nnS8zmpiOXzVnPMP8uOPLWo4KF8ngtzulziE7a5vgazVqu+LnguEAABEAABEOgfgRcQYU6pgkklrHNMM8lZmohOUr1Wk3kwbkeyRYVuOYuKR4756hJXwNimQtUCsiG5l0qJY/7IMGbC+ndG8U0gAAIgAAIgYEkCfRFhbFExf+Mlik5NSW5kQc+LPQVHFxX0wkrVUo7552KLgsEAaRq3IzVyeTxi1vrwGQHecMy35MuDhwIBEAABEACBFyHQkwhj+yubbZQcDgc5necrYR1aeOkmRSIRqlaq3VakrlM+l2O7CquJMGfcbfN9S1W1tzjAO8gh3oEAORxOOtjfo/XVh2hHvsiRxL8FARAAARAAgU8GgRcXYe7uYH43wDtKjUb9NLIo+1F2ZLl9p17XdwaNdGjQF+DvdzqdcY/Xe08NBJZYhHGAt8/vlwDvne1t2trATNhl/B5wDRAAARAAARAwOYGeRNjw8DCNjj5eCXO7XdRq80xYkuLTM+KYzxuS3QDvTLcS1m7fqeuWEmE+ccwPR8KyGelXFCkPHuwfQISZ/I3A7YMACIAACIDAJRF4YRHWHczv0ExyjiYmJ4jHn9ieQj/NjhQRZqlK2Nl2pKIuhSMR0gIBUhWF3B4v7Z+2I0eRHXlJ5xeXAQEQAAEQAAHTEuiLCGtxO3JhgSajUaqWK1QoFqQlyXPqRtFY6bSbd3TrVMK0uNdnv6eoyhILMJ4JY4sKn89Huzu7tLGGmTDTvg64cRAAARAAARC4PAJ9EWFnjvmx+DSVSwbl8zrlclkRYkWjuFJuNi3UjjythPkVdWlsbExakTyY73S66OBgnzbXOLYIjvmXd4ZxJRAAARAAARAwJYG+iTDOjpycmKR6vU65XJ4Mo0jpoyOuilltJkyLe3wc4K11Y4tORRhvRx4eHsCs1ZTvAW4aBEAABEAABC6dQP9E2OycOOazCJMKWLFImUyajEJhpVyy1HakFnd5bfc0TVtiTw6v1ystSc5w4pkwroSN2mxUq9Xkw0DgE3bpBxsXBAEQAAEQAIHrTuDCIoyXAd3ubnZkq92mxOy8zITValXKZbNULpcpnU5TwZKO+TauhKlLY5FuO1LTAuTxeiXA++H9DyHCrvuxx/2BAAiAAAiAwNUT6IsIa7batLD4Ek1MTlKlXJYAb25HHnE70pKO+Tb7vUCwG+DNQ/mRsTEaGRmh/b092lhbo1EbZsKu/mzjDkAABEAABEDgWhO4sAg775gvlbC5eYpGo9TpdGQWTGfHfA7yzmVXyqXSnXq9bhGzVk2Le+32e6razY4824x0ezy0t5ei3a0tDOZf6zOPmwMBEAABEACBa0GgLyKMtyNj0zOSHVmtVKhUKnVFWK6bHVluW3A7kgfz2TGfB/PZqoItKva4EobYomtxsnETIAACIAACIHDNCfRNhCW5EjYVo1LJeDSYn81mLToTNmK7p2hdERYMBsnj8chM2NHhIW3AouKan3ncHgiAAAiAAAhcCwIvLMLcPJjf6RCLsLHxCSqXS1INy+Vy3exIqw7mq1wJC3dji1wuJ/kUhbLpDD28/wEG86/F2cZNgAAIgAAIgMC1JvDCIuxsO3Jh8SZxlCJbU7ArA7cirZkdeWrWqmoB8QlTVZW8Pp+EavJDb6yu0ugoLCqu9bHHzYEACIAACIDA1RPojwhrtSk5P0+BYJBazZZUwwqFgoR463reYmatZyLstBLGs2C8FjpqG/0oO/Ipn7AmtVpNOj4+ls9z/vkGEX3zOX8WPwYCIAACIAACIGAuAv0RYe2OiDDejmy1WnSwvy/D+dathPFMmNoN8Pb7/V2LiuERCc388Gc/RTvSXC8B7hYEQAAEQAAEroJAn0RYm1761C+QoipS6Emnjzi4WwK8rRdbxJWwEds9NdAdzGejVpfbTezZwVEB66sPIcKu4ijjmiAAAiAAAiBgLgI9ibCRkWEZfbLbHaI5eB7sbCZsdn5BnBp4Hoxd8/W8LoP5ej6/Ui1bKbZIRNiIZEdyBUzVNKmGcXzA/t6+ZEfCrNVcbwHuFgRAAARAAASugEBPImx4uCvCOLLoKbPW2TmJLapWq1QyDPEJ44pYQddXqp3OnbquW8es1XMWWzQ2Lv5gLMQ4Q5L7sGsPH6ASdgUnGZcEARAAARAAAZMR6JsIm1u4IfPpnBlZ0HWZCZPYooK+ctJu39EtI8KcWtzjZZ8wdSkcjpxmR2pSCctlc3T/g59BhJnsLcDtggAIgAAIgMAVEOhZhNntz25H3rj5KeIRKa6EcRXMKBYpk0mTUWDH/La1KmHukZFvqZr2FoswtqhQVJVcLjcd7O/Rxvoa2Z/Yjmw2m8QfbEdewRHHJUEABEAABEDgehLoWYQ92Y50u13EAd6J2TmamIzKPFixUCC9oIt3qZi1Wq0d6bbZvqWq6lvj4xPSimTHWhZiG2vrtLuzRfbRUarVavLhIblms0HNZgsi7Hq+BLgrEAABEAABELgKAi8swngxsNlqUSwWp+TcnPiDsfbgluTh4eHpTJjFKmFnM2EiwqQK5pK25F4qRVsb6wjwvoqjjGuCAAiAAAiAgLkIvLgIc7mIA7ynE0maisWkDSkirFDoijDLxhZp2lIwGBKHWp/XK675B/sHtL6KwXxzvQO4WxAAARAAARC4EgJ9EWGtdpvYooLbkeVSiUrlkiT45HJZng+zmGP+6WC+qmlLLMDYJywQ0MjpYouKPQnwtiO26EpOMy4KAiAAAiAAAiYi0BcRxu1IDvCejE5RnT3CdJ3y+bwIMRFhlvMJs9nusQiTwXxNI03TyG6309HhIcxaTXT6casgAAIgAAIgcIUE+iLCuBLGsUU8IsVLgDwPxkLM8tmRPA82Nj5OPr9fjNPSR0fiE8aVsGr1o8H8RqMheU7YjrzCo45LgwAIgAAIgMD1IvDCIuxsO3JufoEi4+OyDMhmrUdHPJRfsGIlzBn32HzimB8MBqUSpvgVcjgdojwffvjBU9uREGHX69TjbkAABEAABEDgGhB4YRHGi4Hcjlx46SUZj2rU61QsFh+1JC09mB/QAiLCnE62qFCk/7r64D7MWq/BycYtgAAIgAAIgMA1J/DCIoyN4lmEzd1YlEVBgy0qWIjxXJie578tZtZ6bjA/FA6LRYXfr5DdYadcNouZsGtiXfarAAAgAElEQVR+4nF7IAACIAACIHBNCLywCDsf4B0MhajZaJJRKlJRL1Amm7HgdqSmxV0jI/dUlQfzwzKUr6oa2UZtlE6naVO2Ix83a0U78pocd9wGCIAACIAACFwfAn0RYV3H/FmKjI1Tu9VibzD5ZKzimB8MBqNDQ0PjJycnw61WKzJit/+XwUDw9XAkQn6/nzwej5i1coA3W1SMPhFbBBF2fU487gQEQAAEQAAErgmBvogw2Y6cm5cAbzZrrVQqZBiGbEfm87mVaql9p17Xdwb9zEODuICiKF8JhSN/5PZ45oeHh6hSrgwVjeKwoqpDbFHBcUWKopDD4RDH/J2tTYiwQfwi8J0gAAIgAAIgYC0CfRNh8ZkZik7FiIs+PJjPs2HpTJr9wsxt1hqLxX7/iy/f+q/HJiYCdEJ0dHREf/3X/zcNDQ1TKByiUDBEXq+XAsEQbW5u0MbqQ4gwa70keBoQAAEQAAEQGASB/oiwVpuSCwuUSCYpn81SuVKRGfVsJsNB3uYWYZ/+zGf+i1//jX/4LxPJpFqv1+j+h/fpve9+h9rtFkUiEfL5/N3oIp+Pdnd3aV18wkapWq0+CvBGO3IQZxffCQIgAAIgAAKmJvDCIkx8wpptml1YoFh8mkolQ5waSqUSZdJp3pA0twj7xc997l/89j/6x38wGY0qbMC6uvqQ3v3Lv6BWs0Vn25E8GzZqt9N+ao8211dplAfzIcJM/Wbg5kEABEAABEBgwAReWISJTxjPhM3OUXRqShzzWXxxgHc2m+G/zS/C/v5/+ut/4HK7FH64rc1N+t9//KNuOzIUokAgIEP5breHdra3aHd7CyJswKcWXw8CIAACIAACFiDQHxHWahPPhE1Pz1ClWpHhfM6O5Jak6duRv/CLn33nq1/7lbtDw8MKV7dSu7v0k7/9fyUrkj05FFUjVVHk762tTdpaX8NMmAXeDDwCCIAACIAACAyYwIuLMG5HnlpUzMwkqVgoiD1FsVigXDbX3Y4sl+/U63Vzbkcu3vyFd15/8/W7tWpNOaETeaif/O3fkMPppEAgKGatZyHeXCXbXF+DT9iATy2+HgRAAARAAAQsQKBnEcYFIP5wXjW3Is9ii2Zm5yiRSJKu5yXAm9uR+XyO/3ul2uncqesmtahYuHnznS996eW7JyfHSqdzTIcHh/TwwX0RYdyOHBsbI5fLTW6vl/ZSu6eVMDZrxWC+BV4QPAIIgAAIgAAIDIpAX0QY+4TNzM6KRUW1XJalwPTREWWt0I5cWLz5zhe+9MW7nU5H4T4rq8uN9XUxaOWtSJ4J44qY3eGg7a1NSu3snFbCIMIGdWrxvSAAAiAAAiBgAQI9izBe/GNf0o8qYW5qtVsUjcVpeiZBzUZDKmAyE5bLcWvS3IP5c4uL79y69crdaqWisAstr37u7GyTx+OVmTAWYcFQmGy2Edrf25ftSMQWWeDVwCOAAAiAAAiAwGAJ9EGE8UxYixKz8zQZjVKn3ZIK2NlgfrFg8gBvEWEvv3K3WCwo5XJZht3YGf9MhHF2JLvmu5xO2tvfp631dbKP2qQcyJ96vS4Otq1Wi46Pj+XznH++QUTffM6fxY+BAAiAAAiAAAiYi0DfRBjPhE1OTormYMd8ngtji4qiXlwpl5rmjS3iduRnP/tLd0vlssJCih+OB/A9Xq/Mg50FeNMQ0d7uLh3s72E70lwvAe4WBEAABEAABK6CQM8izG4fJbv9fDvSRTwTNjEZpclYjIZOiApFnfS8Lgk/xaLJfcK4EvalL3zpbi6fU05OTmTY7eDgQEQYD+aLTYXfL4P6R4eH9PD+h+Sw21EJu4rjjGuCAAiAAAiAgHkI9EWENZpNWlhcpMj4BDXqdQnvltiibJaKemGl3G6aeDtycfGdL7788l09ryvskp9OH9H+/h55fT4ZyOdKWCQyJiKMB/b3drdRCTPPC4A7BQEQAAEQAIGrInABEfa0RQVXwqKxaUrOzlKjUZdika7rMhdm+sH85MLCO6++evuuns8r7VaLMtks7e7siAjjShh/tEBAvDpSuylak+xIzIRd1YnGdUEABEAABEDAJAR6FmFPbke63W5qNls0u3CDpmJT0oXT83mpgvHH9CJsbmHxnS/d+tLdYqGocJmPlWUqlSIvtyPDYamE+f1+cnk8dLC3Rxtr2I40yeHHbYIACIAACIDAVRLoSYSNjIyQzWZ73KLi1DGfsyMnolGqVirSjjwbzNfZrLXdNm87kkXYy6/culssFCS2iJPJt7e3ye3xSBWM3fIDmkbDIyOUz+VRCbvK44xrgwAIgAAIgIB5CPQkwoaHhyWb+jGfMBZhzRbNLdwQ79LjTofy7Jh/uh0pAd6ltnm3I1mEfeELv3y3aBgKm6AZJYO2Nre6lTAezA+HxTTN5/OJdcX25gZ8wszzAuBOQQAEQAAEQOCqCPQswjiyyOHgz+OxRdOJJEWnpqRQxDYVuUym2460wnbkyy/fupvLZmU7koMxt7bYrNVDwWCA/H6FgsFuRezw8IB+/pO/hQi7quOM64IACIAACICAeQhcSIQ9lR3ZbNGnPvMZGp+YlApYLpclo2hQLp/jLEmTtyNPLSrK1YpSMgwZeNvb2zv1CYtQOBwRAXZyQrS/x5WwTXLYOTsSZq3meQ9wpyAAAiAAAiBw6QR6FmFPD+a7iC0qYjMJikanaGhoSIRYJpORLUlLVMJu3bp11ygaCjvfZzMZ2uHtSK+XwpEwqWrXMZ8tKvLZLN3/4IOnRFiz2ST+wDH/0g84LggCIAACIAAC15VAzyKMq2BPVsIazRYt3rwpXTm2qCgUC1TI65TOZMxv1rpw8+Y7t16+dbdYLCospI4ODmiXtyNPLSo4O9LH25EulyjPhx+yCINZ63U98bgvEAABEAABELgmBHoWYU8HeHcrYTdeuimODfVaTbYjOcQ7m82RUSiudNrNO7qu7wz6mYcGcYGF0wDvfD6v1Orsv6FTandXRFhkbIxUVSWv1yftycODA1p7eB8zYYP4ReA7QQAEQAAEQMBaBPojwlotml+4QRMTk8QZ1+VyiQqFgsQWmd4njEXYF7708t2Crkt2JPda2aKCRVg4HJatyDOfsP3dFO1sbUipEDNh1npT8DQgAAIgAAIg0GcCPYuwZ7cjmzQ9k6RJNms99QnjLUnuzlliMP/lL33pbrFoKDzTdXhwSKlUtxLGIozbkU6nizw+r4R3b62voxLW51OKrwMBEAABEAABCxLoWYQ9ux3ZosTsLE1Go1Q+tahgY3kWYUU9v9Jpt03cjlxYfOeV127fzWQySqVS4SE38QPjOTDejOShfHbN51RzblNub22QY/Sj7UgekuOBfjZTw2C+BV8hPBIIgAAIgAAIXIzAC4swji3imbD4TIKmYjFZAuTcyGKhcCrCTB7gzWatt165dbdQKDzajmSLCq6EBYPdAG8WYqxOD/YPuu3IcyKMTdNYhHErEyLsYqcU/woEQAAEQAAELEjghUUYLwU2Wy0RYROTk6I1WICxEGO/sKKur5TN7Ji/wNmRr9y6q+u6UqvXySgUxKKCB/G5HckijP9bUzXa3d2R2CJsR1rwVcEjgQAIgAAIgEB/CfQkwkZGhslmeyK2yNXdjpydX6BYfJqKBV2G81mEcTvS9IP53QDv7mA+P6iez1Fqt2tREQ6FpArGIkxVVDo4OKDVBx+iEtbfQ4pvAwEQAAEQAAErEuiLCONK2PyNRdmO5K3ISqUso1OZTLY7mG/qStjizXd+6bO/dLdWqymd42M6Ojyk1C5Xwngwn0WYRorfT1ogSJsbG7S5vvqUCGs2MRNmxbcHzwQCIAACIAACL0CgJxH2zADv03ZkYnaOEsmkpPoUDUNakmwurxd0c8cWsUXFF1++dTebychMGKvM/b09cns8EuDN9hRskMbVsM31ddrd3kIl7AVOJP4pCIAACIAACHxCCPRFhPEcWHR6mpKzs1QpV0R8sWErB3gXTR/gvbD4zhe++Mt3q9WawkP2XAnb20uRX1GlEhYMhYm3E9i7I7WzI1UyzIR9Ql4fPCYIgAAIgAAIXJxAzyLsaZ+w7nYkb0ZOxeOyHVmtVimXzVA2k6V8Pr9S7bTv1M3qmD+3sPDOZz/3+bu1alVpdzrd7MhTs9ZgKCSD+eyc3/UQO6DtzQ2IsIsfSPxLEAABEAABEPikEOhJhI2MjIgTw5PZkWfbkeMTkzQ8PCTB3bIdmc12B/M7HROLsMXFd1699erdvJ5XatWqPBhvR7JPWCgYJFXTKByJ0MiIjQ4PD2gd25GflJcHzwkCIAACIAACL0KgJxHGM2Ef55g/u3CDxscnqNNpUyadPrWoyHHKj8krYSLCXrmbZ4uKUxGW4gBvr5cCLMJUVWbC3G4P7aV2xaICPmEvcibxb0EABEAABEDgE0GgZxH2LMd8roTNLSxQdCpO1Wp3Jozn1/O5HFtWmNwxf/HmO1/80hfFrLXKjvmGQbunlbBgIEA+v0/mwngwfz+VovXVh9iO/ES8O3hIEAABEAABEHghAn0RYY1mi2ZZhEWnxJ4im81Q2ShRjjcl9fxKuW3qmbDFdz73+c/dNQxDabfa8nAHB/vk9fpobGyM/Ioi7UiOLWKLiu3NdcyEvdCZxD8GARAAARAAgU8EgZ5E2NlMmMNhJ4fDSeyWzx8ezJ9OJMWiotVs0lE6TSXDoKOjQyoWiyudZtO82ZHJuYV3biwu3m21mgo/HDvQ8odNWs8sKng+zOVyyzDcxtrTlTDEFn0iXiY8JAiAAAiAAAj0QqAnEfZxM2GcTZ2Yn5fCUK1WEwFmGEWxqCjkTV4Jm07OvTM9HRezVraoKJf44QwxaQ2GguTzcUVsnBgO92HXHz4ku/2jAG9kR/ZyHvGzIAACIAACIPCJIfDiIsztIhZhyfkFCocjdNzpUDp9SKVSibLZHBlmnwmLzcz8C5/P/wf1Wk05oROq12rUqDdICwRkIJ8H89mqYmhoSDYSNtaedsznSli73aZOpyNWFs/55xtE9M3n/Fn8GAiAAAiAAAiAgLkI9CzCnh7Md1Oz1aTE3DxFIhE6OTk5taboOuYXC8WVcrtpXouKaHzmn3vcrn95cnKi8O+WNySrtZpYU/BgPosx/m+H3UEHhwe0ubZGjicqYRxb1GpBhJnr3cDdggAIgAAIgMBACfQkwngmzGazkcPhIKfzbCbMLQatM3OzYlHB/13Qdc6MpFyOK2GGuUVYPJH4z4OB0H/l8bi145NjKugFSqfTElfEA/lsU8GO+Yqiilv+x1XCOFaAq2CohA30QOPLQQAEQAAEQMAsBHoSYc/KjmT9wYP5XAmLxeIS3M3FIhZg3J0rFArm9gmLzcz81vjY+H/j83mj3HLMZXO0v79PPkWRITieCVNVjRxOBx3s74sIQ2yRWc4/7hMEQAAEQAAErozAC4uws+1IFmGTk5MyLlUo6DITxtuROpu1mtmiYmZmxmm3279iszkWj6kzXCqV1Fqt9uuqqt3kmTBuR3JVbNRuFxG2s7n5VDuyOxPWok4HlbArO+q4MAiAAAiAAAhcLwJ9E2HxmaSIMJ4P4+VBPZ+T7EjTV8Ke/H05nc64x+u9p6jaErcjWYAFg0Fyud3Sprz/s58Re3jwmih/sB15vU487gYEQAAEQAAErgmBvomwxU99WgbzWXdwZqRRKlEmfcQjVOZuRz4lwjQt7hmx3VNUdSnM25GaRh6PR/7e3tqSAO9nxRZhO/KaHHncBgiAAAiAAAhcDwI9i7BnZke2WjSTSNL0zIxkRnK6Dw/ns6epJSthLq/vnqaxCIuQpmlSDbM7ujNhWxsbH9OOxHbk9TjzuAsQAAEQAAEQuBYE+iPCmi2aTnbbkTz+xGatLMZEhPFMWLl9p17Xdwb9xEODvgB/v9Opxd1e27cUVX1LKmGqKu75ZwHem+tsUYF25GX8LnANEAABEAABEDAxgZ5F2LMCvHk7cmZ2jqamYhLgXSwUZEvyUSXMzIP5H9uO1NQl7r+yUat91E5+RaX9vT2JLXqWCEM70sSvCW4dBEAABEAABPpPoGcRxok87BP2ZHYkb0dygLdRLMhwPkcWPbKosJwIs9nuqVpgiQfyFUUhzo5kEzV+6N2tzWfOhMEnrP+nF98IAiAAAiAAAiYmcAERxuHdLMIcpwHeXcf82PSMpPhwbFHRKJJRNMQrTNfz5raoeKoS5tTiHu9Hg/ndVqSbPF6vBHizYz6yI038SuDWQQAEQAAEQOByCFxIhPFw/plj/iOz1tk5ioyNU6Vc7rYki0XKZE7NWq1YCePtSA7u5koYu+azk+3hwQFtrbMIw0zY5ZxfXAUEQAAEQAAETEugZxH25EzYmQibSc7S+MSEpPLkczkRYUdHR+YP8H6qEsYWFTauhGliUcGVMB7OdzldtLu7IxYVGMw37QuBGwcBEAABEACByyLQswh70qLC7XJTvdmk6USSpuIxqtdqbEshw/ndwXyTO+Z/bDtS05YCgQCFQiFyezzSn+VKmDjmw6z1sg4wrgMCIAACIAACZiXwwiLM5XKLLUU8kZBKGP83+4SxYWsun7egRcWpWatf7W5Hskkre4V5PF7a3Fj/mEpYk1qtJgK8zfqa4L5BAARAAARAoP8E+iPCpBKWoERylqqVMuXzuuRHcopP0ewB3h/XjvQr6hKLr7MNSd6OPDg8oL2dnY+xqEB2ZP/PL74RBEAABEAABExLoCcRxjqDZ8LOD+ZzZCJXv6KxeHcmrHNMxaJOuVxeDFtLRWOl027e0XWrmLU+qoQpS6FQ+LF2JDvm80yY0+FAdqRp3wncOAiAAAiAAAhcCoGeRBgvAD5l1up2Ub3eoPhMgiajUWo2GlSpVimbyYhtVqlYWOm029YTYbwdGRkbk8giHs7n/Mj9/X1af/gAZq2XcnZxERAAARAAARAwNYEeRRhXwmwyg35mUeFyuYgd82fnF0SESW5kkX3CipRO83akBSthbpvtW6qqvcUzYT6fT2bChkdGZBBuY20V25Gmfidw8yAAAiAAAiBwKQR6FGFPV8LcLpdsR7JjfigYktlzXc9TqVQSx3zdctuRT1hUsADzer1i1sqeHKv3P4QIu5Szi4uAAAiAAAiAgKkJ9CTCeCbMZnuiEuZ2UaPRpPnFl4i9SyvlEpXLZd6KpLQ1LSqccY/Xe8+vahJbxBYV3JLk4bi9vT1xzHfYRzETZur3AjcPAiAAAiAAAgMn0B8R1mzJZmR0aopq1SoZhiHzYHnLWlRwdqSqLbFTPlfC+G+P20M729u0sY525MCPLS4AAiAAAiAAAuYn0JMIe9ZgvjjmN5o0MztL8ekZqlarlM9lZTMyn89RUdctOJh/KsLCkYiIMB6M0wJBSqV2ZTDfPopKmPnfDTwBCIAACIAACAyUwIVEmNPJAd5O0R5nsUWz8zdoKhYjPZ+TThyLMGvOhHGAt68b4M0WFTyYz/mRiqrRnoiwh3DMH+iZxZeDAAiAAAiAgCUI9CzC2COMU3nORNj57cjoVIyKxW5kEQ/mc0tSYotK7Tv1ulV8wh6JsO5MGAswHoYbtdtpd2ebtjbWMZhviXcDDwECIAACIAACAyXQswh7lk+YtCOTsxSLT0s6z9HhoQR453I5C2ZHnm5Hqlo3wNvvVyTA2+ly0fbWFqV2tiHCBnpm8eUgAAIgAAIgYAkCLyzC3GzW2mzSVGyapmdmqF6vUUEvyHA+B3jremGl2m7eqVvKMd9mu6co6lIoHO7OhLnd8vfW5ibtbG1ChFni3cBDgAAIgAAIgMBACfQswrgd+XhsUdeslYfyZxJJsabg4XyeCWPX/EKRRVjbYiJsxHYvEAyKYz475bMYYwfbVGqPNlaf7ZjfarUQ4D3Qs4wvBwEQAAEQAAFTEehZhD3Vjjx1zE/OLdBUbEo2JbOZNFUqFUofHZGey610OlaKLeKZMK/tnl9Vl7gNOXYaXcQzYVz6+7jYIogwU70YuFkQAAEQAAEQGDSBvokw3o5kx4ZWsyGtSDaP5wF9S1bCzmKLeCYsEAiQ1+eTihibtW6sPvyY7MgWdTrHUg17zj/fIKJvPufP4sdAAARAAARAAATMReCFRZjMhDWaxJUwNmutVMpULpXEqJXbkZaMLRIRpqhvBUMh4o/f5yOH00kH+we0ydmRDvtTjvntNkSYud4N3C0IgAAIgAAIDJRAzyLsyZmwMxGWmJ2n8ckJatbrZJQMyudypxYVFp0J86vKUjAYkoF8ji3yeH20z7FFcMwf6InFl4MACIAACICARQj0LMJ4JszpdMoceteslSthDWIRNsmVsFJJ2pEc4p3P5alQKKxUOxYczFc09gkLkKJoFAhopz5hO7S3u0NOh52q1ZpUw+r1OjWbTflwKxLtSIu8OngMEAABEAABEHgxAj2LsI+rhE1OxSk2Had2s0V5PU/Fgi4iTNd164kwL1tUaIElngfjKthkNEonRLKJsP7gARzzX+xQ4l+DAAiAAAiAwCeBwAuLMHHMbzRp9sYNWRTkP9yV42oYz4UV9cJK2Wo+YV6b/Z5f8S/xPFgoFCKP10s+n5+2t7doe30dIuyT8OrgGUEABEAABEDgxQj0JMJGRkaI25FP+YQ1mjSdTNL0dILKJYPK5TLlclnKZrJkFA3riTDPmVlrKETsFcb2FJwhubu7S9sbG9KO5FbkWTuy0WgQLCpe7KTiX4MACIAACICAxQi8sAjjAG+eCYvPJCkWj0lmZKvZovTRYXcw36pmrRLgHQmTpnYd89kzbHdnhzbX18jpcECEWexNweOAAAiAAAiAQJ8J9CTChoeHpQp2vhJ2JsKmJTsyLt5gtWpVnPPZu9Sag/nnYos4xNvn99OobZQymTStPXwAEdbnU4qvAwEQAAEQAAELEuhJhD2zHenqVsJmFxYoHI4Q22GVjBLlc1nKZE9FmOVii1iEqdoSz4OxCPN6veTx+Whne4s219bJ5Xy6EtZut6nT6WA70oJvER4JBEAABEAABC5AoCcR9qxKGA/m1+p1SszOSYA3G7V2Z8LOfMJ0i2VHcmyRz3ZP1bSlUDBEiqqSoigisLgXu8FmrXbMhF3gMOKfgAAIgAAIgMAnicCFRBgbwjscTvEJk+3IZpMSc/Mym24bsVGxWJBPLpujguW2I0+zI3km7CzAm6thttFRUZ6rD+5325HVKnzCPkmvEp4VBEAABEAABHojcEER5jhn1uqmer1BczduSIIPLwGyW/5ZgLfVZsKGVVWND4+O/pGqam9xdiS75judDnK63JROH9LG6uozZ8LQjuztZOKnQQAEQAAEQMDiBHoWYWxRwW757Jrfdcx3U63eoOTcHI2NjVO1VqVmoyGbkWfZkSft9h1d13cGzXJogBdwevz+3xwZHp7udDqKfdS+pAWDN7oiLEh+RZFL8wNvrPF25LOyIzETNsDfD74aBEAABEAABMxGoG8iLDE3R6xJ+I9RLEpnrrsdaYGZMEVRftnudP6Jz+eLVatVatQbI1owMCzZkYEAqYpCdodDHPOxHWm2dwD3CwIgAAIgAAJXQqBvImxuYUF8S7kKVigWSc/nKMfZkVaILdJCoaXx8Yl/PTU1pXAMAJuy8gCcpqkUCkdkEF8NBCj1H/EJQzvySg44LgoCIAACIAAC15VA30TYzGzXJ6yQz8ugvrQidb0bW1Rq3qnXTdyODEQiv/HLn/v8H8/Ozfv3Uin6m7/5a6l8sUWFpmmkaQEaHhmRvKadra5j/vkAbzjmX9fzj/sCARAAARAAgSsj0JMIY58wm8321EzYmWM+51gfdzqk63nSC7rMhen5wkrV7NmRY2OTv/W1X/27/8Pi4qL/wYMH9O//6q9EdEUiERmKC4bD5PV4aH1tjXa3t2DWemXnGRcGARAAARAAAdMQ6IMIc4lZ61R8hmbn5qhcrlAumyEenUqn0yzIzO8TFpmY+J1f//V/8N9+9nOf8/3kJz+l9777HTo5OZbNyEAgIF5h9lE7HRzs0+b6ulTC6vW6QOC/uRKGdqRpXgrcKAiAAAiAAAhcBoGeRBibtT5rO5JF2ExyliYmJqnVanJeJOVzeRnOt8Rg/kQ0+rv/2T/8zXuf+cVf9P3sZz+nlXe/Te1Wi8KRCPn9fvHmYDgH+/tSCeMZsSdFGAK8L+M84xogAAIgAAIgYBoCPYmwZ8UWdbMjmxSbnqaJyUlJ5clls2QYhkQpFguFlWq5fKder5vXomI8Gv8nv/M7/+iPXrr5Kd/PP/g5/cWf/ZlUwngdVFU1UjVN+rRHh0e0uQ7HfNMcf9woCIAACIAACFwdgZ5E2H8swJtji8bGx6XrVtALXAHrWlRYYTsyGo//3m/+1m8vT8VivrW1NfruygoNDw1RiH3CQiGphg3REKV2d2l/b/ex2KJGoy5utqiEXd0px5VBAARAAARA4BoS6FmEPdmOdLnd1Gg0aSIapalYnIhOpAqWy7FZa9YaM2HRWOzt3/yt3/5Dr8/nW1tfp//z//j3ks/EqtPj8ZDX5xPDVt6cXH/4AIP51/Ck45ZAAARAAARA4JoR6FmE2e2cG/l4bBE75s/Oz9NULCZGrZxjXa1W6PDwkPJ5CwzmR6PRt/+TX/v7f+jyeHxc7fp//sN/kO3IsbExqYZxT9Zud9D+Xoq2NroWFbVa7VF2JCwqrtmxx+2AAAiAAAiAwNUTuJAIYyF2Flt0FuAdn0lQdGqKms2mLAXmMhk6Sh+RZEe223fqZo4t4krYV3/la3/oUxQfxxL99Cc/IYbAQ3BcBVP8fnK5PbSzs03bEGFXf6xxByAAAiAAAiBw/QlcSISdr4SxCOPtyOlEkuLTM1SrVqhoGFQulcSxwTIi7M0vf2XZ7nB4U6kU/fynPyWnyyWVMK/XK1EBDqdTZsKkHWl3SIgmV8POLCowE3b93wbcIQiAAAiAAAhcIoG+iDB2yJ+dX6CpeJwa9bpEKJbLZTo64kqYBbIjuRLGIo07jfIAACAASURBVGxkZMS7ubVFaw8fSno5z4QpikIer1eG8/f39mn1wf2PaUe26fi4I+ujz/nnG0T0zef8WfwYCIAACIAACICAuQhcSISdb0d2LSoaNLdwg9gx3ygaVKmUqVgs0tHhIXuGWaMdefu115eHh4e9Ozs74ozPA/liUaFp5PP75X9zbBECvM31BuBuQQAEQAAEQOCKCPRNhCXnFygajVKlUqGSYXAbkjLsmG+VSthXv/Z3lg3D8PK2AQ/fcyWM3fJZhPFmpMvposPDA9raYMd8xzMG81EJu6JDjsuCAAiAAAiAwHUkcCER5nDwhqRTdAhXwmrsmJ9I0tj4BNXrNdmQZBGWz+WoaBTNXwkb53bk628st9pt79bmJqVSuzILFgpxJUwln88vQA4P92lLYoscsp2AmbDreOZxTyAAAiAAAiBwLQhcSIQ9qx15FltUb9TFoqKgc4B3hnQ2azX7duR4NPb2V77y5eVqterdP9in7a0taT+yCAuFQuTxeGnUPirutBurD2UmrFqFRcW1OOK4CRAAARAAARC4ngR6EmEfH1vUIG5HhkNhyY7klmQ2mxURZontyLNKWK1W8+7t7dHuzjZ5fX4KBoOkBQJSFWMhxj5hG2urMGu9nocddwUCIAACIAAC14lATyLs42KL2Kw1MTdH0egUVStlKpXLpOe7Ad66bgGzVhZhX/3yV5bzuu49OjwgtqnweX0iwngmjLcjA4EgbW1u0Ka0Iz8ya0Vs0XU677gXEAABEAABELg2BC4kwp6aCWMRNjtLiUSS8vkclSsVEWH835ZpR775xuvLVa6EpfZod7dbCQtoGgXDYfL7fLIhyW3KzfU1VMKuzfnGjYAACIAACIDAtSVwQRH2UWwRZ0dyPjWLsOnpGSqVDJkJ4/EoXdfJKBRXOu3mHd3MjvlcCfvyG28uVyoV7+7uDrEQY18wVVVJ45akpsmWAvdg7//8Z48FeJ+ZtXKyeacDn7Br+yrgxkAABEAABEDgcglcUIR9tB3ZDfBu0OKnPk2hYIhq9RrpeZ30fE42JAt6wQIiLBp7+43Xbi8bpbL38OhQ/MB8Pp+0ItmmgofzT4gkImBncxOVsMs9xLgaCIAACIAACJiRQI8ibITs9tGnArzZrDU2PUMTE5M0NDxE2UyGg7tlQ7Kg51fKZt+OjLII+/Kby0XD8O7u7FA6nZbMSBZgwVBIsiNto6PEQ/s7m+sCqIbtSDO+ELhnEAABEAABELgsAj2KsGHJrT6fHXnmmB9PJCk6GaV2py0+YblclnK5PBXyuvkrYRxb9NrrbyyXy2VxzOeKF3uDcQWMtyMVv0JOl5P4/7ezufFUJazZbBBnR3Y6x4gtuqyjjeuAAAiAAAiAwPUm0JMIO7OoeNZgfjyRoOl4nGq1Ohu0ymA+j0hZIjtyPBp9+/bt17o+Yft7UvHidmQwGHrUkrTZbJIduS0i7KPtSJ4Jgwi73m8B7g4EQAAEQAAEroDABUSY7bQS9pFjPrcj4zMJyY7k+XMWYGLWmmMRZoHsSDZrfeP115aNUsm7l0rRwcGBDOZzFYyrYYFgkIaGhuhgn2OLsB15BQcZlwQBEAABEAABsxHoWYRxwYfbkU7nudiiep3YMX98cpLo5ETiirgKxmLMEtmR4pgvM2FFaUdyMrnPr1AwGCBNC4hRq8PpIM6V5Hakw/5kJaxJzWZTWpH8ec4/3yCibz7nz+LHQAAEQAAEQAAEzEWgZxE2Ovr4YD47MzSaTeKZsPHxcdmUrLBZq65bx6yVZ8LeeOPN5UKh0BVhPJjv9VI4HJaP0+mSYbl0Jk1b7BNmt1O11o0tYrNWhtJstiDCzPVy4G5BAARAAARAYJAEehJhH+eYz+3Imdk5ioTDUvDhMahMJk2ZTJaKRQu0I1mEvXr7teWSYXhTe3vdSpjPJ61Itqlgo1bOkuRK2NqD+8+shHUH8+ETNsjTjO8GARAAARAAARMRuJAIe3Iwn0XY3MINGp+YoGqlQoZh8EC+tCSLuv7dRr3+zxVF2UmlUg0ieu52XK8ch3r9B8/787Id+drry3qh4OV5sMODAxFekh2paWJXwf1Ztq5Yf9gN8OYqGH+6g/nN0+1IiLDnZY6fAwEQAAEQAAGLE+hJhHW3I21ktz8+E8YiLDm3QJGxCDXqdXHM53Ykz4blcrk1Ou68b7PZjGans2EfGfk3mUymPAiuAxNhPBP25S9325Gp3V3KpNPk8fmkFakoCimqKoP66+vrtL3B2ZGOx0QYtyO5EoaZsEH82vGdIAACIAACIGBKAj2JMG5Hns2EnQ3m80wYi7Dp5CwlZ+eoZBSpWChQsViU6KKSYZDb5ZJh/nq9saeXiv/AyOX+r0HQGqwIe/P15aJR8u7v79PB/r60H9molSthfkUhVdVoa3OTNtdXH2tHsgDrzoRhMH8Qv3R8JwiAAAiAAAiYlEBfRBgP5idm52gmkZQ2JJu1ymB+NisFoFg8LqbyxWKxsPrg/u9kMpmVQfAamAjjduSbb765nMlkvZlsVkSY2+OmUCgsbclIJCLZkdyO/OCnPyWX00HVavVROxKVsEH8uvGdIAACIAACIGBqAj2LsGc55tfqDbr56U9TZGyM6rWaaJGiYYgIGx4aok9/5jMUjUYpl8kUf/TjH/3u0f7+Xw6C2kBFGA/mdwO8dyl9dCSVMO6/slUFtyUZDFfCdrY2iYfmEFs0iF8xvhMEQAAEQAAELEOgJxF25pjPeuO8T1g3OzJBiWRCum48MlUqGZQ+StOofZRefe11SiQSvFRY/NN/97+8vb+7+2eDIDhQEXbrlVcltog3IHkwn5PLI+EI+VVF1kJPTkj6rxtrD5/ajuRKGLvYYjtyEL92fCcIgAAIgAAImJJA30RYcm6ewpEIsRBKZzLdmbB0Wrp0X/7KV+lTn/40Pbx/v/gnf/Jv/ulBKvW/DYLWQEUYV8KKxaJsR7JFhcfrkQqYx+slTdVIDQRoZ3v7mduREGGD+HXjO0EABEAABEDA1AT6I8LqDUrOL9D0zHQ3sqhQoHK5LF5hLpebfuVrX6OXbn6Ktrc2i//T//jH5hNhZ475hWLBm0rtPWpHhsJhUlVVjFv9iirB3g8//IBcDscjs1a2qMBMmKlfEtw8CIAACIAACAyCQE8i7OPMWmv1Oi0svkQTk1Eyil0BxkKMRZjb7aG/+6u/Sjdu3KD11dXiv/pX//rrB6nt/3UQDzOwShgHeH/ly19d1gu6N7WbkgfrzoSNkV/xk6Ko5HS5aXdnWxzzXU4nLCoG8RvGd4IACIAACICAdQhcSIQ9adbKImw6maR4fFoG8wuFIhlGUQpGdoeD/s7f+3s0OztLG+ubxr/7t//2n6ZMJ8Jisbdfv/2a+IRlMxlimwpuR/J2JId4cyWMS36bG+u0n0o9ZdaKSph13hg8CQiAAAiAAAj0iUDPIuxJnzC32y0+YRPRKUrMzlKtUqVypZsdmU3zYL6dbr/+umxHHh4cGO/++V9+PZXa/tM+3f9jXzOwShhbVNy69cpyrV73plIpGcznSthZO5IhsGv+/t4ebcGsdRC/W3wnCIAACIAACFiNQM8i7OMsKmaSSZqMRsUtn9N6Crouy4K8UfnyK6+ICMvncsZ3Vt79emrbhCLs85//5eVmq+Xlofy9vT0RXWexRbwqOjE5SRsbG7S++oCc9o8c88/MWpEdabV3B88DAiAAAiAAAi9E4EIi7FkWFTyYn0zO0sH+HnF7kkVYLpejk5Nj+vwXvkhjkQj/3433v/v+11PbG+arhL366u1H2ZHcZ+UWJDvmc2wRRxb5FIV2trdoe2PjqdgiZEe+0CHFPwYBEAABEAABKxLomwiLzyRoemZG3PI5wJstKtistdlq0i98+jMUjU1Rq9k0fvCDH5lUhN2+vVwqlSW2SNqRXi+NjUUkrsjhdJLX46VUapd2t7fgE2bFVwXPBAIgAAIgAAL9JdCTCHuWWSt7lnLHLTY9Q9GpGFUrJc6IlO3Io6NDatQbtLi4SBPRKJvKG++/911ztiNfe/2NZcMwvHupFO0f7EsFLBIZI00LyJA+z4VtbW7RztbTlTD4hPX31OLbQAAEQAAEQMACBHoSYV2LilEJ43Y4nGLEel6EzSQSEplYKVdI1/OyHclD+ouLL9H4xASpfr/x7Xe/bUIRFo29ffuN1x+ZtR4e8Hakj4KhIAUDQYHAf3MlbPXBfamE1es1qlZrBJ8wC7wmeAQQAAEQAAEQ6D+BnkQYV8JsNpuIsEexRS4X1ZtNmruxSFOxGOm5nAixXD5HuWyOKpUyJRNJik1Pc4i38Z3vrJhQhMVib7/88q3leqPh3d7aokw2IwZooVBINiS5CubxeGl7e4t2t7bI6XRQDQHe/T+u+EYQAAEQAAEQsA6BnkTYmVlrtxLmkEoY6w8exOd25PRMgqqVMlWqVWI7LZ4JY+NWrpBNTk6ypZbxve+8Z1KLipdvLdcaDe/uzg5xfqRfUUSEKapKbpdL/MJSu7u0tvqwO5gPEWad1wRPAgIgAAIgAAL9J9CzCPs4n7Dk3ALF4nHS891KGA/mZ7MZKpfKYk+RnJsjn89nzpkwji167farMpjP0UScH8kWFZFIRP4OaN3hfB7a31xbg1lr/w8qvhEEQAAEQAAErEagJxF2Npj/eCXMRbV6gxJz82KV1azXKa/rVC6VKJ1OU6VcpomJCRFhbpfL+PGP/8qc25Gvvfb6ctEwvFztOjo6Ip/fL5UwFmHhUJhYnYoIW4cIs9pbgucBARAAARAAgQEQ6EmEcTuStQbPg33UjnRRvdGkmeSsmLW2mk3KcBuyVKJsNkulkkFT0RjFp6dJ9fuM7//wByacCePB/Ndf625H7u+JRYXX56dwONwN7/b7yeX20NHhgTjm82A+O9byhwfzm80GNZstOj4+ls9z/vkGEX3zOX8WPwYCIAACIAACIGAuAj2LsGc55nNs0XRylsbHx6UVWSoWqVypyFxYuVyiiYlJmpufJ6/HY3z/B983nwgbj8Xe/tqvfG05m057d3Z2JArA6/NKdiRbVchcmJuzIzdpf3eHOFzzvAhDdqS53grcLQiAAAiAAAhcAoGeRNjICFfC7KcWFR8N5rMIm5yKUSKZ7M6DFQqnM2FZaUeOT4xLgLfiV43vfZ8d800WWzQejb795ptfXi6Xy7Idye1IroCFI2zWqooI414tRxptcyWMB/OfqIS1Wm3qdDqohF3CqcYlQAAEQAAEQMAEBHoSYWftyPMWFS5X16x1OpmksfFx6rQ7VDSKEluUTh9JW5IrYcnZWQoEAsb7779nUhH2xpvL5UpFKmHSjvR6xZ6CnfO5Lel0OMUn7CzA+7xPGLcju9mRaEea4KXALYIACIAACIDAZRDoWYRxO/J8diT7lLJD/nQiKT5hjUb9tA1Zlq4dV8Imo5MUjU5RKBg0fmDGmTBuR772anc7shtbtE8+n1+yIxkAb0m6nK7/HxGGSthlnGhcAwRAAARAAARMQqBnEfakRUVXhNVlMD86NSX/nUmnqVqtiFlriUXYxIQItMmJCWPl2yvm8wljEfb67dvLxaLh3dvbkzwmHsYPBIIyE8Z/20ZtEhHA25FPDuYjtsgkrwNuEwRAAARAAAQuj8ALizCeR5ftyNlZGhsbo3arTfl8TmbC+O+SURKjVjZsDQQDxvvv8WD+xp8O4hGHBvGl/J3sE/blN99YLhSLIsIO9vdPLSqCEuDt9ysyqM8mrg8//KBr1npuJgyD+YP6zeB7QQAEQAAEQMC0BHoWYU9mR5455i+c5kOyOavBM2EFvVsJK5Vka3J2bo7CoZCxYsbYIq6E3b71ynKlWpV2JH+4AqZpGqmaxi600o48ODyg7XUezH96O7LdRjvStK8JbhwEQAAEQAAE+k/gAiLs8ZkwqYTV6zQ9O0sT45NUq9dkGF/XdfmUDEP8w2KxGGmaavzg/fe/nkqlTFYJi8XefuO115cLhYKXh/LFMd/rlVkwNm1VFJXcHg+lUju0tb7+VCWs2WwSf+AT1v8TjG8EARAAARAAAZMSuJAIezo7skEzyaTEFvEgPrciDcOgTCYt2ZGxWFxEWCCgGe9/5zsmFGGnsUVcCdvd3aGjwyNpPwaDQQoGQyLEONB7Z2dbLCqebkc2qdWCCDPpS4LbBgEQAAEQAIFBEOhZhD0rO5Jji+KJBE1PT3fNWkslymUzlMvlRISNj09QMpnkWXbjh9/7gQkH89kx/9VXlhvNpgR4c36kx+OV7Uj2CePwblam+3t7p7FFT/qEsQhjiwr4hA3iFOM7QQAEQAAEQMCEBHoWYU9aVHRnwhoymM9B3TyDrufzVCgUKJfNUqVSka1Jji3y+3zmFWFng/nsBcZbkF6vT3zCeEvSryji28Gtyu2tzW6Ad/Wj2CIM5pvw1cAtgwAIgAAIgMBgCfQkws4CvM/7hIkIY7PWmQSNT0xIdiS3I3kWLJPNUKnUDfCemZnh7p3x/nfeM18lLBqLvf3qq7eXc/m8N5vNyEyYx+ORmTCeB+P5MJ4J20vt0vbmVleEYTtysEcX3w4CIAACIAAC5ibQkwhjx/xnmrU2GhSfnqGpqRhVa912pFEsimM+z4ixYz63JCcnJ43vvceD+SaLLYpGo2/ffv2N5aJheNmegrcguRLGEQFcCeNEc96U3Fhfp9TuNjntsKgw93uBuwcBEAABEACBgRPoSYR1K2E2stsdojtcLpcYxnO3LRqLSzQRb0TytiTbVHCUIrcjJycmxaw1OjFh/Plf/sXXD0y3HRmNvv3GG28uFwq6d3c3JZEAfsVPmhaQmTDOkDw5OZGZsJ2tLXI5n54Jw3bkwA8zLgACIAACIAACZiLQkwg7q4Q9th3pckk7MjY9I1YUQ0ND4pjPM2EsyIxCgSaiUQnw1gKa8d673zVfJYzNWl+7fXu5XCl7ubzHw/len59CoaAIMZ4JYyh7qRRtb248th3JCpU/EGFmei9wryAAAiAAAiAwcAIXEmGPzYS5XFTndmQiKQP4rDeMokG6nqNsNieeYeyYn0gmSfH7je+//30TijD2Cbv9mrQj9/fZMf/g1DE/RIFgkB+M7A6nZEqurz6EY/7Azy0uAAIgAAIgAAKmJ/DCIszldonwSs4t0PjEpAR481A+21Nks9lHIow9xCKRiPHee9/9emrbbDNhnB35+hvLRqnk3d7ekngingUbi4yJPQVvJzicTsmU3FhdhQgz/XuBBwABEAABEACBgRPoWYSxT5jT6SCH42wmzEX1OouweRobn6BGvSZeYfl8ntLptAgyrpCJWSs75n/vhyashEWjb7/55pvL1WrNu7W1JVYUXbPWEIXDYfEMszvYouKQNtefLcIQWzTww4wLgAAIgAAIgICZCPQswrgV+aRjPrcjZ5KzYlHBo0+8EZnJnJq1lko0MTkhRq6BQMD4/vc5wNtklbCzAG+9WPDy8D1nR0olbGxcrCoUVSWfzy8WFd1KmJ2qT1hUQISZ6b3AvYIACIAACIDAwAn0LMKe5ZjPIiwxNy8bkFz5YnsKdsrn7hwHevPAfiKRoEg4bLy78q75RBj7hL388svLRaPkPTo66pq1+rwylK+oCgW0IHFfdntrm3Z3tshph0/YwI8uLgACIAACIAAC5ibQFxEm25HxaZqemaFatSpbkbwdWdB1EWNj42OSHxkKBY3vv2fCwXwWYbdeeWW5Xq97d7Z3ZCbM6/NJK5IrYJGxCNlso8RD+xsYzDf3K4G7BwEQAAEQAIHLIXAhEXZ+JqwbW1SXmTCueHHXjQtFvBXJLclyuUST0SmKTcVIC6jGD943aXbkm2++sWwYhndne1uG3ViEhUIhaUvy3w6ni1K7O8/MjkRs0eWcZlwFBEAABEAABExEoCcR9szYolOfsJnZORm+5yF9Du82DKO7HVkuiVu+xBYFguZ0zOeZsNdfuy3bkewFdnh0SD6vTzYj+cNCjIfzOdh7c22VHGhHmugdwK2CAAiAAAiAwJUQeGERxq75jWaTErNzNDEZpUqlLAKMQ7z5U650Y4ti8RgFtYDxg+9xbFHqTwfxtEOD+FL+Tm5HvvLqq8uVctW7u9ttR7JjfiAQFMd83pJ0upyU2t2ljbU1ZEcO6heB7wUBEAABEAAB6xDoSYR9bHZkvUGJ2VmaisXFooI9woqFAuXyORnUZ3E2NTVF4XDE+P733zfhYH409vbLr9xartcb3u2dbcljUhSFQuGwrIqOjY1JO3J/L9VtR3JsUbUmId6c4YR2pHXeGDwJCIAACIAACPSJwIVE2HmLCs6O5BYki7BJdsyv1WRkinUHxxdxVSw6FZW5sPGxMfOatX7xC19cNsplCfDmoTeOKgqGQlIJ45Yk92q5Qra9wbFF2I7s0wHF14AACIAACICAVQn0LMKetKgQEdZo0HQiSePj49TpdKQNyduRuRw75pcltojtK1RVNX784x+ZrxI2Hou9/Uu/8Jk/NAzDd5Q+omKxSH6/ItmRitIN8OYNhc2NDQzmW/VVwXOBAAiAAAiAQH8JvLgIO82OnEnOUWI2KRYVXAFjnXIWW8RmrV3HfM34IZu1mm0mbDwe/735RHK5XKn4+OH4IdmglcUXizD2CmMRtr21RTtbW6iE9feQ4ttAAARAAARAwIoEehZh7Jh/PsBbBvMbTZqanqaZREIii1iA8UwYW1Swez476fNMWCCgiWP+gelEWDT+e1PRCbao8HGJr9Vuk6ZpFAwG5cOtSc6OZDd93o50OhwyD3Z+JgyO+VZ8f/BMIAACIAACIHBhAn0RYRJbNDtH0eiUBHizY36eA7xzOfELYxut2bk58nm9xo9+/CMTirB4/J9EAqE/yut5H6vM405bNiMfr4R5aGNjnfZ3d2BRceHziH8IAiAAAiAAAp8YAj2LsKdmwk4rYZOxOCVnZ6larVCxWKBioShtSbao4IjFZDLJc+zG+xxbZLZK2EQ0+ruqqt0rGoavXqtR57gjIozVJQ/ne9xu4uG4rY0N2ZB0OZ1SEsR25CfmRcKDggAIgAAIgECvBF5YhJ055vP240ySZ8JqVKlWKJfNykxYtVKRVB+OLYrFYsa7f/Hn5hNhk1NT/1gLBP67eq3uq1QqYoymaapkRwZODVttNhtljtK0sQ6z1l5PIX4eBEAABEAABD6BBHoWYXb7KNntDnI6ncTzYI/MWufmKBIZk9gi3o7M6zrp+ZxkR5455it+v/GjH/zo66nUtrnMWidjsd8Oh8L/vcvt9nOZL5vJPvIJ4wF9TVXJ6XLT4cEBrT74EO3IT+CbhEcGARAAARAAgR4JXECEPWMwv9mkuRuL4oxfr3GAd0FaktlMRob0x8bHKZFIUDAYMGeA99T09G9EJyf/OBgM+bm8x/mRHq9XWpEswkJBzo500AGLsPv3sR3Z4ynEj4MACIAACIDAJ5BATyLsWdmRZ9uRc4uLNDE+QY0mZ0dmuz5h2SyVSiWamJwUi4pwKGx8z4yO+fF4/Neisen/eWwsoqTTR7SxsUluj6cb4K0oFA6Hxax1f3+fttbXIcI+gW8SHhkEQAAEQAAEeiTQkwh7VmyRWwK8mzQzOyti67jTeVQBeyTC2KIixhYVQeNHP/qh+cxax6LRlyci4++GwqEAZzJxiLfX7xcRxvFFgWBQRBhXwuCY3+MRxI+DAAiAAAiAwCeTQM8i7MntSBZh9WaT4omEtCPZMZ/tKc6btfJg/sxMomvWakYRdvPmTXuj0fj/2HvT3sbyLM3vRIjiesl7Lzdx36SIrB5jut94eqk9l67qqlR7MC96MLB7iS7PNJyfIL9DvWxZZRs2YMwL+4WB8VbZys61qrqnjYEBuweeHnRmaCFFSqTEnZcUN1GSfQ6lyMjIzHFIoijem08ARCSqFLp//fS/wINznvOcf+JwuX6j2+2qg/7gB6qur7EI83q9IsYmZ+fUqNdoP89ri5AT9vV8n/BTgwAIgAAIgMBLE7iWCFtaekjLy5/3hE0rYdO1RWyRsi3ZqF6vSRtymphvyDqjVDojYa0fffSR+Sphz+N06nrKY7Ntapq+HggGSNP8pCge8vp8VMjnqbTPiflfFGGnp6d0fn4un5f88zYR/fQlvxZfBgIgAAIgAAIgYC4C1xJhV+3IFxd4D4ZDEVmcmN81DOqdnFC71RIR1u0aUiFjT9jKyorx/rtb5ouo+GoRdtmO9PuJ4RwcHNBhqQRPmLleApwWBEAABEAABO6DwLVE2FcZ87kdGUskZTXRxfkFNZoNSc1nT1iv16VYLC4CLRgMGO++8675Iiq+TISpqrbOpb9gMERut4tsy8t0fHxMxb09cjpRCbuP24xnggAIgAAIgICJCFxLhH2ZMZ+nI3ltEXvCOBl/cjqRsHhuSTYadeoaXWlH8toizgn76GOLtCNVbkcGAhLWyh8nJ+bn87S/x9OREGEmeglwVBAAARAAARC4DwK3F2FuFw2GI8rkVimbydJgOBBjPge2Xu2O5ASHR48fs1Yx3n//PfN7wtxLtp/5VPXNcDgsi7w1XZfUWs4PY2O+w27/wgJveMLu437jmSAAAiAAAiCwsASuLcK+sDvS7abRpTE/lU6L9mA/WKvdki0+nJjP0RUc1roSDhtb77AnzGSJ+c//+nRdTy3Z7Js+TV2/qoIpileM+ZXyIe08/RSVsIW97zgYCIAACIAACCwMgWuJMJ6OtNmWiY35V2uLrnZHrj5+heLxOBlszO92qcmri5pN+W9OzE8mEtyuND54731zi7DPT0dOE/M1TXuWE1Ys5MmFduTC3HAcBARAAARAAAQWlMA1RdgS8Z7q50XYlScsmeGcsKjkhHXabWp3pon5vW5PRFg6naZwOGy8995fmr8d+XxERSgUFiHGJcKDUonyuzuohC3obcexQAAEQAAEQGCBCFxLhP2HjPmZ1TWJoWDrEwe11o6PicPleTqS25HpVJqisajxzjvvmF+E3ED/wgAAIABJREFUKTb7pqpP25G6PyALvHmreaVSpr2dbYiwBbrhOAoIgAAIgAAILCiBa4kwjqj4qkpYdu0RxWIxGo/H4gljc36z1Zp6wqJRiicSFObdkdZoR9o3VU2dTkcGAuRyOknxemWd0Vcl5sOYv6CvAI4FAiAAAiAAAvdD4NoijLtudrv9mSds2o4cUyqTlZwwrnwNh0NqNJrU5IiKXo/bkGLM13lt0QcfWcMTdhVRwX4wj6KQqmq0XyhQsfDla4sgwu7nhuOpIAACIAACILCgBK4lwr60Hel2T3PC0hlKZ7LU6bTppNejdrs9bUdyYn4sRplMjoJBv/HelpUS8wMBmYpUFEWEGFfCsLZoQa86jgUCIAACIAACi0Xg1iLsajoykcpQIpmgk5MTmYjk9UUswoyuIRWyR48ek0fxGB+8y4n5B//qLjA8uItv+uL3lOnIpaVN3R9YD6+siCmfRZjL5aaDgxLld3bIhcT8efwq8AwQAAEQAAEQMDOBW4swF1fChkNiY34ikaTBoP+sElY9PhaTPifm89qiaCRi/pywFyMqeHWR6lNld2S5UqZiPo/dkWZ+JXB2EAABEAABEJgPgRmIsCtPWEZ2RJ5zRAVXwep1+XS7XfGEpTMZCofCxgfvWaESZrNtarq+7vcHiM35DqeTVFWl8mGZ8rvbn0vMH42GNByOZGz0/PxcPi/5520i+ulLfi2+DARAAARAAARAwFwEri3CvpCY73LRaDyWSlg8nhBP2Gg4lOnIRrMpbUmuhMWTCVoJR4wPLSPCeHekLPAOEvdk2RvGOWF729vkcGBtkbneA5wWBEAABEAABOZO4NoizG7n6cjPEvNlOnI8ptzaI8kJY9E1XeBdny7w5sT8lYhMR0YiK8bWz39uAU+Yzbapqto6L8X0aRpvJie3xyPGfIS1zv0S44EgAAIgAAIgYEYC1xZhX1YJ4+nIqScsQf2TE1ldxKn5tXpNEvMj0SilUikKBgLGh+9/aI2ICk3T17kKxsu7OSOM90fuF/JULBTgCTPjq4AzgwAIgAAIgMB8CVxbhHEljNcWORxO4irYZ2uLMpTJZMWUz9WvVqslnjAWZCsrK7S29ohcLqfx17/6a3OLsOcXeAf8fhFhPlWVlmSlXKbdne0v3R05mUxkpxM8YfO94XgaCIAACIAACCwogWuLsBcrYVcRFZyYH43GaDjoy0Qkp+azJ4xFWIwrYekMaarP+OXHHNZq9ogKm00iKnRdF2O+j6cjl5bo+KiCxPwFvek4FgiAAAiAAAgsGIFbi7CrSlg6m6OVSFSmIw2jIxlhXA0zOm1pR3KVTNc046MP3je3CJtWwmybvqt2pKZJJYz3OR0fH9P+Hifmw5i/YBcdxwEBEAABEACBRSNwbRHGK4u+bG3RVISt0OR0IiKME/PZnM/tyZVIRDxhuq4Zv/iQPWFmr4Qt2TZVTVsPhkIS1spRFQ8eEDWbTdp9+unnIio4RG00QkTFot18nAcEQAAEQAAE7pnAtUXYF4z5bheNRmNaffRYdlnTxYVoERFhtZok6HNEBeeE+XXN+PB9k1bCPB7Pb1xcXGSJKGR3uf7Mr/v/Y5mOVFXyen20bF+mWrUqlTBEVNzztcbjQQAEQAAEQGDxCdxehHFO2GhE6dwqhcJhOh2fUrdrkNHpUO15EZbOkD+gGx++9575KmGKovyabXn5f3Q4ndHx6HTp7HziDYbCDvaDcTxFIBgiLoUdVcp0sL8PEbb4Fx8nBAEQAAEQAIH7JjATEcYRFcl0Roz5F3QhU5FszmdfGLcjuRIm7UhNMz7+yITtSJ+uv7kSXvkffD6f2js5oUa9RqqqEbcjeTqS0/KXlpao1WrS07//e3I6HDQYDORz1Y7EdOR933U8HwRAAARAAAQWisC1RdiXhrWORvT4G/+AdL+fzs4mUgVjUz63I3uXnrBMJsOaxXh/6y/MVwkLhMP/5Nd//Tf++3A4rB5Xq/T000/I6XRJWr6maaRpOnGftlw+xHTkQt1vHAYEQAAEQAAEFpbADUSYXbptz3LCLhd4p7I52R05OR2LH+zKmN/jxHxe4M2eML9ufPQ+R1Ts/6u7IPLgLr4pf89IPP5P33j9jf82kUr5isUi/R9/86/pwYMHFAqFRXl6PB6JqSgVi5Tf2San84uVMOyOvKvfDr4vCIAACIAACJiSwLVF2Fcl5mdX1yiZSstkJJvxW83mtBJ20qOV8IoY8wOBgPGRGRPzV2Kx//QP/+iP/ut4POHd2dmh9/7yL+ni4oJCoaC0JVmIcWDa/v4+FXZ3vrQdCRFmyhcEhwYBEAABEACBuyIwMxGWya1ROpOWvZEswLgSdrU7MhqNUjKZIr/fb3xsxpywaDTxh//5f/FnP4tGIt6n29u09c47kn4/bUfqpPt1si8vU+ngQNqRri/xhEGE3dUdxvcFARAAARAAAVMSuJYIY+85V8K+mBM2Im5HJhMJGp+eUqvZonZ7uraIVxhFY1FKpzO0shI23n333Z8c7JusHRlPpf7on/+LP9sMr6x4n37yKf3FX7xDFxfnFAyGyOfzUXhlRfqz+b1deMJM+R7g0CAAAiAAAiAwdwLXEmEPHz6kLxrz3TQcDUWEreZW5b+rx8eyrojDWruGQYlkkrgaFuBK2C8+Np8IS2Uyf/JHf/wnG/Fk0vvv/p9/Rx+895d0fnHxzJivKAppfj/l9/aoWMiTY3n5C9ORqITN/XLjgSAAAiAAAiCwyARuIMK+mJg/Gp9SKpOl7GqO2s0W9XrdaTuyXpfpSF5bxBEVqo93R/7SfMb8eCr1J0+e/OnG0vKy9+DggH718cdizGcvGO+P5AlJXlt0dHSEsNZFvu44GwiAAAiAAAgsDoFri7AvW+DNOWHTtUUROptMRIBxRAV7w7gixu3IZCJJoZWw8cG7nJhvtnZkMvnkT//5v/jz0/Gpd3d3h/7Pf/NvpC/LYa2cE+b3++nBw4d0eHggYa1flhOGStji3HqcBARAAARAAAQWgMC1RBh7wrjg43A4yOl0Ei/v5qFAFmHxVIri8QSdn59/zpjPIkzWFqUzXDAyfvnRL8wnwpKZzJPf/0/+8Z+fn597S6US/du//b/J6XBSIMjTkapUw5wul+SE7W5vw5i/ADcbRwABEAABEACBBSdwTRH2kGy25c+JMBZiLMJya48oFo/TcDCUKljHmLYj2ZgfDocplUqLJ+zDj37xk4r5KmGZJ+u//+ZGfzhQjioV+vd/93fkcrmnlTBNI6/PR16vl7hVubf9FJWwBb/1OB4IgAAIgAAILACBa4uw6XTkZ5UwEWHDEeUeP6JEIkkczsrVL25JNhsN+W8WYZwT5lW8xr/+q782YSUsmXnyg9/7wUav31e4Era3s0Nuj5vC4RWZjlS8XglsPSiVqJjfExHWf2FtEdqRC3DdcQQQAAEQAAEQWBwC1xJh0+nILxrzrzxhPAXZPzkho9uVqchqtSqiLBQK0erqquSEfWjGsNZ4MvPkRz/+vY3KUUXhMt/e7i553B7xgvFUJLcjuRJWPjykp5/8PTnsdkxHLs4lx0lAAARAAARAYBEJ3ECEfbESNhqP6dE3vkGxeEJEV7vVomazKZ9u16BQMESra2tcETPeM+PuyHgy+eTH67+/USlXlOPjI0nG9yoK+QMBEWA+VRWD3PHREe1uP4UIW8SrjjOBAAiAAAiAwGIRuLYI+7K1RaPTU1pde0wrkRUpAHELkicjm80GddodisViIsI0XTPvdOSrr7620Wy3xRNWLpc/J8I4qoLLhCzC8js7slyTQfBnOBzSaDQitCMX6+bjNCAAAiAAAiBwzwRmI8JGY8pypWslIkHyXAGTalijQR2jQ5GVCKXSaQoGAsaH77/3k4ODA5Mt8E4mn/zwBz/cqFarCgstjqJQFK8Y87kSpmoaLduW5X8vFgrkhAi753uNx4MACIAACIDAwhO4lgj7soiKq+lIDmvlduRkciqmfBZhDTHmd8SYn83mKBqJGO/8xTs/qZhNhHE78gc//L2Ncrk8FWHlQxFhbHbj6UgWYWyWOzyACFv4K48DggAIgAAIgMBiELiWCOOO25e1I9mYzyKMpyNH4xF1WIS121Sv1cjoGhSNRCmTzU4jKsxYCYvHk09++OMfbRwdHysstLgl6VGUaSXMz4n5ugSmFff3qbC3i4iKxbjcOAUIgAAIgAAILDKBmYmwTG5VWo79k/5lYn5TKmE8JRle4ZywFEVWosYH771rwnZkPP7kBz/44cbx8fEzTxjHUnAr0u/n1HyNVFWT3ZGF/C45MR25yJceZwMBEAABEACBRSBwaxHm5pyw8VgWeOdyOTI6HWq12mLK55ZktzcNa/3GN36NPC6X8fFHH5pThP3uD364UT44VNrtFhWLRQlovfKEye7I5WUx7BfzeXjCFuFq4wwgAAIgAAIgsNgEbi3C2BM2Go0pKZ6wGE14dyTvjbw05nNEBWeaynSkqhrvf/C++TxhkWTyyZs/+vHGfqGgVGu16XSk10vBYHD6dyhEdodDPGH7aEcu9pXH6UAABEAABEBgMQhcW4T9/4W1jkcjqtVq1Ot1qV6r08lJj0KhaWJ+IBAwPv6AF3ibcDryRz/84UapWFKqtSpVKkcivlbCYXJ7PGLOtzudkph/WMQC78W42zgFCIAACIAACCw0gWuLsK8y5vMC72QyRaPhUDxh/f4JVY+rEta6shKhtUePOFrL+PjDj823togrYa+/+upGtVpTjo6OiANbeTpyZWVFDPkc2up2eyQxf+fpp+RyOpATttD3HocDARAAARAAgXsnMDMRtvrosURUsPjinLDByQkdHx+LJ2wlvELpdFrWFplThMWTT954442NSqUsifnVak12RgZ4ZdHl2iL2hPFeSXjC7v1S4wAgAAIgAAIgYAYCMxJhY0pms5RKpmhyekqtVlMS8xvNBnU7BoXCYYonEhLW+qu/+tVPDvb3TRbWGo8/+f73vr9RbzQkoqJer4sxn3dHsh/M7XKT0zVtRx6UipiONMPVxxlBAARAAARA4H4JzEiEjSiRSktO2HA0pEG/T7Va9XJ3ZI8iKyu0+ugRKW638ctf/dKMIiz55PXXX92oVI4UVpcHhwfk8/ooEAySx+OR0Fa3R6FScZ/yuzvICbvfS42ngwAIgAAIgIAZCFxbhH2VMT+7ukbJFOeEnYgAOzk5oUajLrsjo9GoVMLC4ZDx8QcfmNOY/8Zrr23Uag2lUinT0VFFPGFcCWM/mOpTyeF0UPmwfBnWit2RZrj9OCMIgAAIgAAI3COBmYgwjqhI51YpFo/TaDSUrDAOauWiUafToUgkImGtK9GIORd4R+LxJ5wTdnx0rBwdsQibGvM5J4yrYV5FoWW7nWrVGu1uP0VO2D3eaDwaBEAABEAABExC4Noi7KumI9mYz1EUp6en03iKel0WeHe7XVqJRCibyYgx/8P3OazVbJ6wZPLJG6+9sVGrVRXOCOP9kYpXkQA0jqfgluTysp2Oq8e0v7d32Y7sy4TkcDik0WgkYM7Pz+Xzkn/eJqKfvuTX4stAAARAAARAAATMRWBmIiydzUkUxenpWFqRHFNRrVZFkLFWyWWzpOm68fHHH5nRExZ/8uaP1zeKxaLCQoujKDgnLLyyIn9zS9LpdIkxv7AHT5i53gGcFgRAAARAAATuhcC1RdhXecJ4d2QimaLhcPCsAlY9PpawVo6uiMfjssD74198bE4R9tqrr21UKhWF+6zlSnkaURGYJuazMf/h0pKU/3Y+/YRcTueznDDuz3IlbDxGJexerjgeCgIgAAIgAAKLSeDWIox3R/aHQ1p7/IqkNZydnVG9VpM2JBvze90erURWKJvJkqIoxl/99V+ZUIQlk09+9MPf2ziuVpX9fF5KfKqmighTVVVS8x8+fEiddpvyu7vwhC3mZcepQAAEQAAEQGCRCMxEhA3ZmL+6KvYotjzxhCQb8rloxLqEg+V5ubfX5zV+9StT5oQln/zuD94QY36lUhFPGOeE8Q/GfjBd99OyfVl2R5b2C+SwYzpykW45zgICIAACIAACC0jg1iJMFniPx5RIZyiRSNDp+JRa7Sad9Hp0zGuLDEOM+TwdGY/HjJ///OcmXOAdjz95/dXXNo6qNaV6fERHsrZIERMctyX541EUScwvICdsAe85jgQCIAACIAACC0fgWiJsaekh8XSk3e4gp9NJLMD4MxyNKMM5YcmkmPI5osLoGlIwknbkygolkklKJhLGu3/xjjlzwl6TxPymcnxUIa6G8XQkj4NyO1LVNOK1RdWjI7QjF+6O40AgAAIgAAIgsJAEri3CbLZlcjheFGFjyqyuSh4YJzFwC5LbkRza2uOIipUIZbJZMeZ/+P57JhRhvLbo+69utNtt5eDggGrVqrQhg8Eg+VSN+6zPFnjv59kThgXeC3ndcSgQAAEQAAEQWBwC1xJh7D3/qpywdHaVYom4+MHYlG+021QXY36XIpEopdJpCgT8xkfvf2TCnLB48slrr35/o1avKUeVI9lMrni9MokQDAQEij8QpHx+j4r5q5ywAXLCFuei4yQgAAIgAAIgsGgEZiLCBqMRpbNZymZXqdmoSzWMTfk8JWkYvLYoRulMhhLxuPHz/+3nZhRh8Sff+fa3NzpGVzmqXLUjvdJnvfKDcVRFqVikYiEPY/6iXXOcBwRAAARAAAQWj8BMRBgb81OZLCVTKamCcTZYt2NIwah3ckIr4bCIME3TjF9+9AvzibB4Mvnk29/57kaz0VDKlYr0WVl0cTtSlXakjxwOJ/FKI07Mx3Tk4t10nAgEQAAEQAAEFozAtUWY3f5FYz6LsHQuR9FIjIajoUxEsiesXue8sB4v7qZMJssB88b7W39pThH23e99f6NarSoswLglKe3IQIB8qioijCtinKS/u72NnLAFu+U4DgiAAAiAAAgsIIFri7Av9YSNR5Rbeyyp+IZhiAjjNmSjPt0dyYZ9roSpqs/45S9/acKw1njyyeuvvbpRrdWVcvmAeBWA1+sTTxivLOIRUTbq82LvPYiwBbznOBIIgAAIgAAILByB2Yiw0Yiya48oGo1KRMVwMKBms0G1Wl0EWSwWo2wuR7pfNz54933zVcIi8fiTH/3oxxulUklhocW+MK6ABQIBCgZD5PUq5HS5qVIu0972pzI+ysu7scB74S48DgQCIAACIAACi0Lg2iLsy3dHjmn18WMRW/1+n3q9HjXqNVmlyJWwWDRGq6urHK1lfPzBB+aMqHjj9Tc2qrWawkLrajrS7/eTruuk+/2yKoCzObgS5nAgMX9RbjjOAQIgAAIgAAILSuDaIuyrIipyjx6Trmn04OFDajWb1Gq1qNlsXoqwqLQqI9Go8f67WyYUYcnkk++xMb/ZVCqVMh0fHUsljAUYh7VyO1Lx+qRNWdjbQU7Ygt52HAsEQAAEQAAEFojAtUXYl1fCRpTJrbHxXnLBBoM+dTptarXa07VFKysUTyQoGouatx35ve9+b6NWrytcBWOxJcb8YFAWZno8iiTmNxsNiLAFut04CgiAAAiAAAgsMIFri7CvqoRlcqtikeKMMPaFtTmstT4Naw2FQiLC/Lpu/M1f/40ZPWHTsNZqtabw3kheXcQijNcWSTWMS4APHlD1uEpIzF/g646jgQAIgAAIgMDiELixCGPvudvtfrY7Mp3NSSWMLi5EgHE7ktMcjHZHNEokGqGAP2D87f/1tyYVYa+9ulFjEXZUoWNe4O31ibrkaApe5u3xeqlyeEh5LPBenOuNk4AACIAACIDA4hKYmQjLrq5RNB6XytdJ70QiKmq1GrVaTXI5XSLEQqGQsb29+5PKwf6/ugskD+7im/L3jMSTT373jTc2jo6PlGr1WKYgORvs+bBW9oUdlEpU2i8grPWufhH4viAAAiAAAiBgHQI3FmFOp1OqYPzhsNZkOkOJVIqG/YEIMPaEcTuSzfkPHy5JwDwn5tfrNTPmhMWf/M5v/87GYDCQBd7T6UiFwtyO9PvJ7VE4f4OKhQKmI63zcuAnAQEQAAEQAIG7JDAzEZZbe0SpTIbazaZ4wlh8cTuSJyUviMjt9nCeaWc4HLAI+5/v4oe6s0pYPB5/8r3XXt9o8NqicvkzYz4n5vtUUjX+aJTfy0s70uVETthd/ILxPUEABEAABEDAQgRmIsJ4gXd2dVUWeLfbLTI6bUnOlyXe9br4xHiq0ulwds7PJhxRYTIRlkw++a3f/K2NTrer8GQkB7ayF4wnEbgtGY3FaNlup4NikXa3nyKiwkJvCH4UEAABEAABELgjAtcWYV+2O3I4GtHqo8eywHs8PqVK+VBEGKfmc2rDsm2Z3B43tyU7g+HgTysHB//LXfw8d1cJYxH2W78tlTCeOGBzvqJ4RYTx2iLODGPjW6GQp4PiPkTYXfx28T1BAARAAARAwFoEri3CviqiIpFKy37I4XBIRqcj4qvRbEiIPOeZ8mc4Gnc6nfaTcqn0v94FxjsTYZFk8sl3vvWtjU7HUCqViqwtYpMb747kiAqOq+C8sL3dXdrP70GE3cVvF98TBEAABEAABKxFYGYiLJXNUS63Kq1IXlXEBaN6vSYVsWgkSgG/n1uVnUa9/selUul/vwuMdyfC4vEn3//e9zfq7Ak7PJSxT25DciWMRRi3JrkaVsjnqbC3CxF2F79dfE8QAAEQAAEQsBaBmYkwDmvNZLMiurgSdhXWyon58XhMBgmrtWqnWa//YbFYfOcuMN6ZCIsnk0++/Z3vblQqFYUnDarVKk8ZUCgckgXePCrq9niITfuFHd4dCWP+XfyC8T1BAARAAARAwEIEZiLCRqMRZVYfUSweo/7JibQk2ZDP05E9w6BIJCJapd6ot2vHjX9WqZTeuwuGdy7CWq2WUioVqV6rP2tHchuSq2KcXLu3t0uVgwNUwu7it4vvCQIgAAIgAALWIjATEcbG/GgiIe3IwWVOmFTCajVuQZ5qqjr0+XznvV7v33YN458eHx9X7wLj3YmwePzJd7//6kbjcoE3T0eKJywYErMbe8POz8/FK8ZhrU5Uwu7i94vvCQIgAAIgAAJWInBtEfZVC7w5rDUSjdLDhw9FfHU6HfGEtdvtD85PT992Op0HR0dHLSKa3BXAuxNhbMz/7vc2ms2mcng4DWv1eX0UCAZI0/2XS7w9VCgUqJjPk9Nhp8FgIB8uC3KpkJdqslDjz0v+efv/y1f76Ut+Lb4MBEAABEAABEDAXASuLcK+fDpyTKlMVjxhJyc98YO1Wy1q1OvU7rS3+pPJW8NWq3jXaO5MhPHaotdff22jWq0qlUp5mpiveCkUDFIgGJTpSJvNJmuLygclrC266980vj8IgAAIgAAImJ/ATETYaHxK0USckokUTc4msj+y0WBPWJ0jKrb6Z6YXYfEn3/rmtzaMblciKo45J8zro5XwdG2R4vOJ8CoVi2hHmv+lwE8AAiAAAiAAAvMgMBMRNhiOKJnJUIrDWkdj6nYNWdzN1i/LiDCOqOB2JO+OrNaqsq6IIyrYmM9CzOVy0872U6ocwpg/j5uLZ4AACIAACICAyQlcS4QtLT0km21ZEhieX+A9HI8pGovT2qNHYsxnAcYtSV5b1G63rNGO/N53v7PR7fWUYrF42Y5UKBwOkabrYtBfXrYT+8V2n376BWP+eDwm/sATZvLXBccHARAAARAAgdkRuJYIY9P9VxnzeW1RPJmk0/FYEhzabV7gLcZ8K4iw+JPvf//7G9VqTXZHsifM65tOR2q6JtvJObCVw1qxtmh2txPfCQRAAARAAAQsTODaIuw/tLboKqyVs8KmYa1WEWHJ5JPvfee7G4ZhKKVS6dIT5hVTfsAfIFXTaGlpiarVY8rv7pDTjrBWC780+NFAAARAAARAYBYEriXCWGfwEOAX2pGjMWVXVykcXqGz8zPZF8nLuxt1bke2t/q9yVvDoamnI+NPXnv1tY1mq6UcHh4ST0hy5Wu6wDtIHreblu0OqlWPsbZoFtcS3wMEQAAEQAAErE9gJiJsNB5TOpujUHiFTscjOun3pwu8Gw0y2q2ts8nkrZa5IyriT15//Y2NWq0muyPFmM85YYFpFYwjKnh3JP9/O59+grBW6784+AlBAARAAARA4LYEriXC2BP2Ve3ItVe+QbFYnAyjIxEVnc6lMb/Z3OqZPSdsujvyOxutVls5OqrQ84n5gUCQdL9ODx48oMODA9rP70GE3fZa4t+DAAiAAAiAgPUJzEyEpbI5SiSSdHFxTq1Wi5qXOWGtVtP8xnwWYf/oH/2m5IRxCu3BQUnCWnldka7rsrrItrwsi733tp9ChFn/xcFPCAIgAAIgAAK3JTATEcZbebKPHlM4FKbJ5FRWFrEQk92RVkjMl0rYt7+9cVytKZy/wb4w9oT5L035/N8ej4e4Sra3vQ0RdttriX8PAiAAAiAAAtYnMBMRxgu8c2uPKBKJ0MlJn4yuIe3IZqNJRruz1ZuMzb22iEXYN7/5LVngXatW6YgjKrzeqTHf7yev10cut4sq5TLt7UCEWf+9wU8IAiAAAiAAArcmMFMRFo3GZGc1J+Y3m81LY74FRFiEF3h/69sbnU5HYd+XLPD2+SgcDpNXVeW/3S437e8XkBN26zuJbwACIAACIAACXwsCMxNhiVSa0ukM9Qd96hoGGYYhWqXD7ciuySMquBL227/zTRFhHNYqxnyfj4LBAGk6ryxyyQqB46MjKubz5HDYRY3yZzgcEvdrT09PkZj/tXin8EOCAAiAAAiAwEsRmJEIG1Mqm6VoJErD4VR7iCesXqdOywrTkfHkk9/+5u9stNpthY1u3HbkWIpQOCwtSU7M9ygeKu7vT6cjnU4aQoS91A3EF4EACIAACIDA15TATETYYDgkno5Mp9J0cnJC/f6JtCJrtSqb9M0/HRmJxJ988zvf2ui028pxtSoVr2klLCjTkR5FIfuyncqjsPrpAAAgAElEQVTlQzooFclpRyXsa/pC4ccGARAAARAAgZclMBMRNhyPKJFMUywel92RvV5PKmENroS1W+bPCYvE409+6zd/68/b7baXe6xc4uNwVvGE+XzkVbwS2rq/n6f9vT1yQIS97AXE14EACIAACIDA15XAbETYaEyZ3CqlMxmZiux2u+IJ40FCno48m4zNnZjPnrB/+A9//c/bnY73+KhChtElTdelEsZ/syeMc8OOKpiO/Lq+Sfi5QQAEQAAEQOCaBGYkwi4jKqIx6vW64gnjTFMuGFkirJUrYau51T83ul1vq9mg/mBAuqZLWKuma+RyuiU1f79QwO7Ia95AfDkIgAAIgAAIfE0JzEiEjSmdy1EmnZE25GDQ58XdVK/XqNOyQCUskkr9SWxlZaPdanu7vS5NJhMJauWMMI6n0HU/eX1eKuTztJ/PkxPTkV/T9wk/NgiAAAiAAAi8NIGZiTCejsxmc9Q1pmn53I7krLBOq23+sNZIPP7HoWDov2y2Wl5WmOdn51IFYxHGLcllu53cHg8dlkp0UCx+QYSNxyMajxFR8dLXEl8IAiAAAiAAAtYnMDMRlkilKJFMUv/khMbjsbQiWYQ1mw3zT0dG4/E/8qnaZrvd8o5HY7kWLMACwRD5fF5aiURocnpK5XJZhBgqYdZ/c/ATggAIgAAIgMAtCcxMhMWTSYrG4rS8bJMEBzbnX+WEnU0m5jbmh6OJ/0zX1f/qpNfzjsYjEVz+QJACfr9MRXJe2Nn5uWRyFHZ2IcJueSvxz0EABEAABEDga0DgxiLM4XCQ2+2WwUDeHZlZXZPEhocPH1KNF3e3WlIJs4QxPxZL/rNAOPjfPCDycRAaG944ooKrYfxhEba8vEylYpEKe3sQYV+DNwc/IgiAAAiAAAjcksCNRRiHwrMAExE2HlM6m6NUKiXbeViENRuNqSeM1xZNJiZf4J1K/UEykfjvPB7F12o26bB8SB5lusCbjfnsD2MgBwcHlN/ZgQi75a3EPwcBEAABEACBrwGBG4uwFyth2dVHlEgmZFUityGNTkdS89vtlvlFWDKT+cfZTOZfKopXbTYbtF/YJ7eiUCgUlHww9oQtL9upWNynwi6LMAd2R34N3h78iCAAAiAAAiBwCwIzE2GZ3Bql0tNKGIfK9zis1So5YbFY6neTmcT/5FW8WrvdolKpRB6PQoHLtUXcmnQ4nBLWmt+FJ+wWFxL/FARAAARAAAS+LgRuLMJebEdmc6sUicZoNBpKFewqrLVthXak3+/36X7/v3Q6nb/T6/eXet2eV9U0B8dT8N7IqRluieqNGu09fYq1RV+X1wc/JwiAAAiAAAjcnMBMRNhoPKbco8cUCobo7PyMqtUqnfR60pa0RDvyiu8f/MEfLL3//vupJbt9Q9P0N9kT5uePrtODhw+pWj0WTxh2R978RuJfggAIgAAIgMDXhMCMRNgpZVdXKbyyQhfn59Pl3WzMbzRkgbfpIyqevwxOXU8pNtumT9PXeTKSIyp0TSO7w0FHlQrWFn1N3hz8mCAAAiAAAiBwSwIzEWEcUZHOrlI0FiXOMmURxou8eTrSaLe2emafjvyiCLNvqpq6zsu79cvVRV6vjw4PSrS3sw1j/i1vJf45CIAACIAACHwNCNxChDnI5fosJyy39ojiiST1ugZ1DIM4yYE97J1OZ6s3Hps7ouJFEeax2TZVTVsPh1dIVVXJDPO4PXQAEfY1eGfwI4IACIAACIDATAjMTIRxREUyNV1b1OkYUgljbxhXwizXjhQRpmrrHNLKOWEsxOx2Bx0cHtDB/j5ywmZyN/FNQAAEQAAEQMDSBG4hwp4Lax2NKJFKy+7I8WjE1S9Z4M1bfIw2L/A2eVjrFyphS7ZNze9fD4VCsjaAxZjdbqdGo06f/N2/J6cTOWGWfm3ww4EACIAACIDA7QnMTIS98g/+IwoGgjQ+HVOtWqV+vy/J+Z1mc+vszOS7I7+8Hamvc0SFpmkSU6GqGh2UitPpSIcdYa23v5z4DiAAAiAAAiBgZQIzEWGj0Zgya2uUTKakDcnxFLxe0XIRFXwTnE495VZsP9P9+pvBYGjqCfP5yOly0+HhARX39p4TYX0aDkc0Go0kxfb8/Fw+L/nnbSL66Ut+Lb4MBEAABEAABEDAXARmJsJSuRzF43EaDgbSiuSWJIuwVrO51e9N3hoOW8W7RvPgrh8wFWHOlMfrFWN+KBQmr9crWWG2JRsdHVVoHyJsHr8GPAMEQAAEQAAEzE5gJiJMIipyOYpEYnR2NpFoiq54wmrWCmsVEabrKTbm+9iYH5pWwhSvl9xuD5W5EpbPox1p9tcC5wcBEAABEACBuycwMxGWymQloqLfP6Futyuri+oswjrGVn9itYiKJdumquvrnJSv6zp5fT6yLS+LGa5YyCMx/+4vLp4AAiAAAiAAAmYnMBMRxmuLWITxkODk9JSMbld2R3JFrN1qbfXPrDYdabNtapq+HgwFSVF85Ha7JCvsqHJEhT2sLTL7W4HzgwAIgAAIgMAcCMxIhJ1ShtuR0ahUwPqDgVTDGjwd2e5snU3Gb7VaVvGEXa4tUvVpRAW3IiMrETqnC6qUy+IJcz6bjoQxfw6XGI8AARAAARAAATMSmIkIG47G4gmLxmL0kB7Q0fER9brdaURFi3PCLNaOVOz2TVVV1wOBoHjC2JjPuyOL+/tUKuSfW1sEEWbGtwJnBgEQAAEQAIE5ELixCHM4HJJT6nK5iI35yXSGUpmMhLXK4u5OR5Z4dzpt664tYhF25QnjxHw25h8U9+EJm8PNxSNAAARAAARAwOQEZiLC2BPGifnxREIisXgykpd4swhrt1tbfesl5i9t+jRtnXPCeIG3pqqSE3ZQKlFhbxdri0z+VuD4IAACIAACIDAHAjcWYU7n82uLxuIJ47DWwbDPPjAx5XNOWKfdtqYx3+vzSTuSK2GyO9LBlbBDKu0XnmtHDmg4HCKsdQ43GY8AARAAARAAAZMRmJEIG1EinZGw1vF4JCLsqhJmGF0LRlTwdKTuX/f7/VIJUxSFuD/LIowjKlxOJ9YWmexNwHFBAARAAARAYM4EZiLCBqMhJdNZisWmIoxN+SzCWs0mNVtNK7YjOaxVld2RbMrn3ZEsxg6KJdr+9O9RCZvzLcbjQAAEQAAEQMCEBG4hwhzkcn1mzF975RuUSqWkDcm7I/lvno40jI7FRJhTT3kUm3jCQsGgBLXyEm+bbZnq9Rrld3cgwkz4JuDIIAACIAACIDBnAjcWYS9OR2ZW1ygUDNFkcirLu42uQfVaXaYjrWXMvxRhqj7dHcnLu7kdydWw6vEx7T79VFqTg8FAPvCEzflK43EgAAIgAAIgYA4CMxNhq49fofDKCvVPetTr9mSJt+yO5MR8yy3wVhRZW8QijKtgbo+HFMVL5fIhFXZ2sDvSHJcfpwQBEAABEACB+yRwYxH2+enIEWXXHoknrNfrUv/khKciqWrZBd6XuyN5MlLTNdI1nVxuDxX3C5iOvM/rjGeDAAiAAAiAgHkIzEyE8XRkOp2hQf+EWq02dTq8O7JlwZywZ+1IfT0QCEhEhcfjIe/l7sjdp58grNU8LwBOCgIgAAIgAAL3RWAmIozDWrkdGYlEJaj15KQn05GcnN+y5gJv+6aqTacjfSp7wrySFVYsFmlfwlrhCbuvG43nggAIgAAIgIBJCFxbhNntduLPi+3IdDZHqXRa1hX1ej1Z5N2o16nV7mz1u+O3hkMLLfD22GybqqqtczwFiy82wy0vL9PBwQEVnk1H9mkwGMKYb5I3AccEARAAARAAgTkTuLYIY63Bw38vijCejkwkEnR6eipDgizGuBLWtt50pDPlVrw/UzXtTQlr1fXpAm+7XRZ4HxSLWFs051uMx4EACIAACICACQnMRoSNxxRPJsUTNh6PpzsjuR3ZbE7XFllqOlLXU26b7We6rr/p9weIhZjT6ZK8sFKRRRgWeJvwRcCRQQAEQAAEQGDeBG4swp7PCbta4J1MpahrdGk4HIgAExHWam+dTcZvtVoWa0fq/sB6OBwmr+IlxatITEWlUqH8zjaM+fO+xngeCIAACIAACJiPwExE2HA0ptzaGkVjMYmnYE9Yt9ularVK7WZj62wysZgIW5om5vN0JAsxt9sjnrAqJ+ZvP4Ux33wvAk4MAiAAAiAAAvMmcGMR5nR+fm0R54SxHmFPGAsxFmDiCeN25NnkraHVKmGapq/zvkj2g3kVRdqRvMB7d/spKmHzvsZ4HgiAAAiAAAiYj8AtRJiTXC6XfLgdmXv0mOLxhERUcGArC7BmqzmNqJhYUYTpfqmEsSfM51PJ4XSgHWm+FwAnBgEQAAEQAIH7IjAzEZbldmQ0RqPRSOIp2A/GBv1Wq2kxEXYZ1uoPBtY1VSOuhvH+SIfLRZXDQyogJ+y+LjOeCwIgAAIgAAJmInBjEfbiAu90LkexeIKGg4FUw1rNJrU5K6xRt5gI0/WUy2b7mZ+nI3U/aby6SNPI7nTSQalExUKeXAhrNdNLgLOCAAiAAAiAwH0QmIkIGwxHlMpkiKcjh8Oh7I3kxPyWVduRit2+6fOp0o7kKlg0GqULIjo+Pqa9LzHmj8cjGo9P6fz8XD4v+edtIvrpS34tvgwEQAAEQAAEQMBcBG4swl405q+uPaZwJEIPiKhyVJm2JBsN6hidrd54bC1jvmKzbXo5Mf8yrJWrYYqiSFgr2pHmegNwWhAAARAAARC4JwI3FmEvtiMzOV5blKVet8tLu6e7I5tN6nYMa+aEqZouuyND4bCEtfIKgfLhAe0X8uS022kwwNqie7rUeCwIgAAIgAAImIHAjUXY82uLRqMxpbJZisXjYswfDAZUq1apXq9zcr4FIyqWljZFhIVC4gfjoFYObT3k3ZF5LPA2w83HGUEABEAABEDgngnMRIQNRyPiBd7xRFLiKfr9vqwtqtdqFs0JW7Jtqvq0EsYizKeqZLc7RHnubn/6LKyVQbAq5Q8HqMETds/XHY8HARAAARAAgcUhMDMRxjlhK+EVGo2nERXtdntaCWtbNCfsqh3JvjAOanVeRlRwWKvL6ZRyIETY4tx0nAQEQAAEQAAEFozATETYYDik1UePpR3JERWGYYgfzJoizOlMebzeTU33SyXM6/WSqmn04MEDCUbbR07Ygt1xHAcEQAAEQAAEFpLATESYtCNzq8SJDRcXF9TpdCQrjEVYp9Xc6nW7bw2Hw+JdE+DJzDv/4+SwVq99U9XU9ZWVFeIJhQhHVFxcyA+8t71NLqdDKmH84cwOtCPv/NeCB4AACIAACICA2QjMRIQNRiPKrj6iUDBIDx4+oKNKRXRH9fiYOu3OVq87fms4bFlEhHFYKxvzVW2df+BAMCi7m7gdyTlhhd0dLPA222uA84IACIAACIDA/AnMTIRlVlcpshKRdiQXgBqNOtVqdep02luDszNr5YR5bDaZjuSN5VfGfP7dNRtN2tvZJqeDIypQCZv/fcYTQQAEQAAEQMA0BGYiwniBd3Z1jfz+gPzgRteQ6chqtWpdY75P5cT8IPkDftI1nWzLy3R8XKW956Yj0Y40zYuAg4IACIAACIDAvAncWIS9GNYq05ErKzQ5PaVWuy1p+Q32hHU61ssJU2z2TZ+mThPz/ZyW7yXFo1C5XKb8LlfC4Amb903G80AABEAABEDAZARmJsK4EhaLxal30qNer0ftZpMazSYZ7AmbWGltkVNPKV7bpu8yMV/X9cucMDuVD8u0n9971o5ERIXJXgccFwRAAARAAATmR2BGImxM6cvE/PF4LDlhvLaIhwWtJ8J0PTX1hGnrKysR8ng8xELMoyiU39uj0n4BlbD5XWA8CQRAAARAAATMSuDGIuz5tUUcUZFIZyiby1G/16NWs0Un/RMZFrRsWKt2ubaIW5KK10s2m03akcVCnlxoR5r1hcC5QQAEQAAEQGBeBGYiwjiiIpXJUiwWo8nkjHrdq7DWGlfEtvqTidWmI+2bmq6tczCaoiik6TrZ7XaqlMt0UNwnhyzwxnTkvG4xngMCIAACIAACJiQwExHG05GJZJqi8TiNxyPxg7EvjD1hrVZ7q28pT9hVO1LV1oPhEPl8PvLrAXrw8CEdH1WkHQkRZsJXAUcGARAAARAAgfkSuIUIc5DL5Zac0uF4TKl0RoLjz8/OqNlqiS9MFnh3WIRZrhI2zQnjShivLnJ7PFIJKx8ewhM23wuMp4EACIAACICAWQncWIS9GFGRSKcpHk/Q6fiUTk56YsrnVYrsCbuYTN5qtSyUmM8RFaquSVirqqpizne7PXRwULqcjkREhVnfCJwbBEAABEAABOZEYGYiLJXJUSKVpP5Jn/onPdkfWeOw1lbbehEVLsW2qWlTERaJRMhmWyaH00mV8qEY86ftyD4NBkPsjpzTTcZjQAAEQAAEQMBkBG4swp6fjhyNTymZyYgxfzQc0enklKpHR5eJ+W0rhrVeri1aCZPX6yOvz0c+n0qFwh7t73FOGCphJnsRcFwQAAEQAAEQmDeBG4uw59uRvKw7lc1RJpsjw+hQ1zCo2zVEhHVara2e1TxhV4n5XAnj6Uj2hjldbiruF9COnPcVxvNAAARAAARAwJwEbizCPpcTJsb8LKUzGVngzcu7eTqSRZhhdLZ6Y4sl5nu800oY72nikFaekOTA1v39fdrbfopKmDlfBpwaBEAABEAABOZJ4BYi7LnpyNGIsmuPKJPJSFK+0THEnD8Na+1YL6LCbbP9TNP0N7kS5lNVqYZxYGv58ID2treJy4SsRrHAe553Gc8CARAAARAAAVMRmJkIy609ongiQd1ul3rdnrQl2ZjfalsyrNW2qaqaLPD2aZpUwng6knPC8rs7EGGmegdwWBAAARAAARC4FwK3EGFOyQiTnLDRiDKraxSJRGnQPyHDMKjTblOz2bR+ThgLMY6ocLpcdHx0JCIMxvx7ucx4KAiAAAiAAAiYicCNRdiLOWGZ3BqtRCI0Gg6od3JCrWbzMifMgu1IxWbb9PHuyGBQvGBcCbMtL1OtVpV2JESYmd4BnBUEQAAEQAAE7oXAjUXY5xd4jyn76BGFQ2GanI7J6HbFGyaJ+VZrR+q6nlqyTY35wVCINE0TPxir0qNKhQp7uxBh93KX8VAQAAEQAAEQMBWBW4iwzxvz07lVikajNByO6KTXpXa7TfW6VRd4L3ElTPtcJYynJA8ODii/g0qYqV4BHBYEQAAEQAAE7ofAjUXYi+3I7OoaxRNJmYrknLBWq0n1eoO9YdYLa/UscSVMW/cHAiTmfFUlt5tzwvYlMR/tyPu5zXgqCIAACIAACJiIwGxE2HBEycw0J4yN+e1ORzxhzWZD1hb1zyy4wFvT9HVN18UTpvv9MqFwdHREO59+AhFmojcARwUBEAABEACBeyIwMxG29so3KBKNSDwWT0WyJ6zdalGn3do6s9QCb6ee8ii2TVXX19kPpvt1CgXDdPGAZDqymMfaonu6zHgsCIAACIAACJiJwI1F2OeN+by2KCsRFfynVqtJJYxjKqyXE+Z0pjyKd1Pz+9dDoZBUwrgiNplMJBitWCiQ08ELvBHWaqY3AWcFARAAARAAgTkTmJEIG1Mqk6FQOEw2m00qYFfTkc1mc6vfm7w1HLaKd/2zPbjrB/D3d7II83rFExYMhsQTxjlhbo9CxeI+leAJm8evAc8AARAAARAAAbMTmJEIG1GSd0em02LMPzk5kZZkvV635toij0RUaOvh8IrEU7AQW15eFmP+Yal46Qnr02AwpOFwSLzh/PT0lM7Pz+Xzkn/eJqKfvuTX4stAAARAAARAAATMReDGIuzF6ch4MkWpdFq0BrcieX0RL/C2XE6YU9dTHpt906f6JKKCW5H894MHD6hSqdD+s5wwiDBzvQs4LQiAAAiAAAjMlcDMRFg6m6NoLE4X5+fUaNSlHdngSljHsN4CbxZhqqauBziiIhCQBd52u108YXs7O+Sw22k4hCdsrlcZDwMBEAABEAABcxGYiQgbjceyOzIcDtN4PKZer0fNRsO6a4um7cjp2iIWYVwW5EmF6vEx7efzEGHmeglwWhAAARAAARC4DwI3FmEvri1KZbK0Elmh4WBIo/FoKsLqdQtOR0o70rbp82nrgWCAAoEgud0u8qkalcuHtPf0KTkwHXkflxnPBAEQAAEQAAEzEZiZCFt9/Jhi8bjEUgz6famC8afTaW/1J1YKa+WcMO+0HcmGfM4KU1WVHi4tSQ92b/spwlrN9ArgrCAAAiAAAiBwPwRuLMKeN+YPRiNaXXssuaVnZ2dkdDoixhrNpkWnI3ltka6LJ4wFmKbp5Pa4qVQs0j7CWu/nKuOpIAACIAACIGAuAjMTYelMjlLpFPVP+jwRKUKs3uC1RS2LrS26TMznBd5XlTAWYV6fl4r7RSrIdCTCWs31HuC0IAACIAACIDB3AjcWYU6ng1wut6xMHLIxP5ujZDpNvW73cl3RtBJm2QXeLMKuIio4Nf9qd+T2J3+PduTc7zEeCAIgAAIgAAKmI3BjEfZiTtijV35Ndkfyth5OzOdqmIS1WnKBt7QjtXXe08Rp+aHwiqwKyO/t0WFpHyLMdO8BDgwCIAACIAACcycwMxHGYa3Z3OrlCsVjSc0/OjqyYDtS11Num+1nmqa9yZkcPp8q+5o4pZZHQvd2tiHC5n6P8UAQAAEQAAEQMB2BG4uwzyIqnDQcjSm3tkb+QFC299SqNTKMjoUT87kSJmuLwuR0uUj3++VT2NuTDzxhpnsRcGAQAAEQAAEQmDeBW4iwK0/YVISlc6uUy+VkZRHvjRwOBlSt8doiq0VUPKuE6W+yJ4x3R7InzOfz0eHBIW1/+gm5nA7py/b7fdkbid2R877XeB4IgAAIgAAILDyBG4uwFz1hq49foXg8Qb2uQc1WSwz60wXeLYvlhF2GtXJifigUEvHF+yN5SqF8eEh7O5/lhEGELfwLgAOCAAiAAAiAwH0RmJkIy609olg8IRWwZqtJXcOgWq1mTRGmcGK+qq2zF+xKhHF/Np/PU7lUhCfsvq4zngsCIAACIAAC5iFwYxE2jahwSQFoOBpRLJGkbC5Ho+GIWq0mGSLCqmS021tnk8lbrVareNdYHtz1A/j7O5/lhPEC7yBxVpjL7Sa3203HR0eXOWHTdiR/hsOhLNTkz/n5uXxe8s/bRPTTl/xafBkIgAAIgAAIgIC5CNxChDnJ5eLPVISls6vTiIp+X6xQ7AtrNOrU6XQs1o6UtUW2Td0fkLBWroSxGo3EYlTI52n36aeohJnrJcBpQQAEQAAEQOA+CNxShHElzCUijD1hmUyWjiplGgyGMh3JQqzZbFhMhD3nCeO1RV6vlzTeIalqtLuzTaX9AkTYfVxlPBMEQAAEQAAEzEXgxiLsRWN+Mp2h1UePeBqS2s0Wddmg32hQq93Z6nfHbw2HVmlHPifCeDqSK2GqpklUxWGpRMVCHiLMXC8BTgsCIAACIAAC90FgZiIslclSIpkUGxTvjWRPWL1Wo5aVpyPDoZAIMI+ikMejUKm4DxF2H9cYzwQBEAABEAAB8xGYnQhLZymV4d2RPTo56fHOSJmOtKQI48R8VdXeDAYD5PcHxJjPrclisQhPmPleApwYBEAABEAABO6DwMxE2Oqjx5RKp6nRaIg5X4z5nBPWsWBYq+cyooLbkSy+WITxDsn9QoEOEVFxHxcZzwQBEAABEAABsxGYmQjj3ZHpTEZ2RrIIYzFmXRG2ZNvUdH09EAySxu1Ij0fakqVSkfI7O/CEme01wHlBAARAAARAYP4EbizCpjlh7mfTkdnVNUqmUtRpd6QdyQZ9jqhotSyamC9hraGQTEdKTIXbTdXj4xcWePdpOMTaovnfazwRBEAABEAABBaewI1F2IvTkdnVR7QSWXlmzO92u+IJ63TaWxeWCmuV6Uj7pqqpIsK4ChYMhWRzOYswjqlw2O00HPQvw1ohwhb+NcABQQAEQAAEQGD+BGYiwkajMWXX1mglEqHJ6amIL25L8nRkp93Z6k3Gbw0tk5h/GVGh6f519oTxZKTq80lERfW4SvldbkfaaSAibCiJ+VjgPf+bjSeCAAiAAAiAwIITuLEI+1w7cjymbG6VwisRKQBxPEWv15MF3q1W01phrbqup5bYmK/p62zK51ak7veTw+6gUrFIB6V9eMIW/NbjeCAAAiAAAiCwAARuLMJebEfGk2nxhI3HI2o1p7sj2ZzftmJOGEdU6Lr/TV5bpOu6mPJtSzYqV8pUKuSJ4fAm86vdkaiELcBVxxFAAARAAARAYLEIzEyEJTNZikVjNDmbSEZYq9WSmIpOixd4jy20wPuyHanrftkdqfh8ssTb6XTKzqY9TEcu1hXHaUAABEAABEBgMQncSoTx3ki3e7rAm6cjI9EYjUZDEV+9blfWFrVbza3eZGI9T5iq6etsyHc5nWLMZxjcjiztczuSPWGohC3mncepQAAEQAAEQGAhCNxKhLEAu1rgnUinKZVKi/ZgQ778Xa+T0e5YsxL2zJjv8UhWmMPppEq5TMUCL/CGMX8hrjcOAQIgAAIgAAKLS2BmIox3R0ZiMRqPRtRutabTkVY05juvFnirmhjzNb9fssK4HXl8dHQ5HelAJWxxLz1OBgIgAAIgAAKLQGBmIozbkSuRKA2HA+p2DWo3W1NjvlXXFmmavq7puhjzWYRxWOtR5YgKe58l5vf7fYmngDF/Ee46zgACIAACIAACC0VgZiIsk1sVT1i/fyJ+MDbmc0WMc8IsZ8yfLvBW3wz4A8RCjGMqnG43lQ8PqZjfk4gKFmDck4UIW6gLj8OAAAiAAAiAwKIQmJkIS2VyFIvHJZnBMDocTSGVsE6nY62cMG5HKjb7ptfnld2R/oCffD6VFEWh/cI+FQt7kpgPY/6i3HGcAwRAAARAAAQWksCNRRhboNiUz5/ReEzsCeMF3hzSanQ6Mtw5ZTcAACAASURBVCHJC7y7RteaifkyHRkMShUsFA7T0pKNDg8PaH9v91lYK9qRC3npcSgQAAEQAAEQWAQCtxJhLMSuIirSuRzF40k6P5tQtVqdhrWyMd+KYa0em21T1bR1v3+amB8IBGnZbqdy+bN25LQShgXei3DLcQYQAAEQAAEQWEACMxNhqWyWYrEEnY7HVG/UqccijJPzLecJc+opxctri3g6Mihp+V7FS063i47KZdq/9ISxAOv34QlbwEuPI4EACIAACIDAIhC4sQibri3iduQ0rDWVzVE0FqNhf0DdXldS8xsNzglrWy+slT1hqqauB0PcjlTJ7fGQ4vVKRthhqfQsJwwibBHuOM4AAiAAAiAAAgtJYEYibEzxZJJSafaEdal/ciLtSA5t5enI3mRsocR8p57yKLZNTdfX/YEAqapKwWCIHjx8KGuL9vd4OtJOg+FQJiR5OnI8Hsvn/PxcPi/5520i+ulLfi2+DARAAARAAARAwFwEbiXCnl9blM5mJaLi4uJCxJflPWEiwvwB0v1+0lSV7A4HHZRKVCzkL435HFExpOFwiJwwc70UOC0IgAAIgAAIzIPAjUWY0+m4nI6ctiOT6Qwlkykp+LQ7bWo1G9RstqjValovooKN+dO1RQFSNZ10TaMlm+0LifmohM3jDuMZIAACIAACIGBKAjcWYewJe74SluEF3pEITSYTarfb4gnjtUWdVnPrbDJ5q9VqFe+a0IO7fgB//2drizRNFnjrup98Xp9MRzbqNdr+9BNEVMzjF4FngAAIgAAIgIC5CcxMhD165RsUCIZkOtLoGpKYz23JtuUiKpzOlMfrnXrC/AHiwFYWYQ+XlqhWPcbuSHO/EDg9CIAACIAACMyLwK1EGGeEcTWM25FcCQuHw3R+di4ijDPCms0Gi7Gtfnfy1nBooUoYry3SNf3NUChEXlUVEcYTkpwTVtjZIQcb8wfwhM3rFuM5IAACIAACIGBCArMRYeMxZXOrsraIbVBsyu8aBtVqNQt7wjR9nU35HNYqH1Wj4n7hOWM+h7UOYMw34VuBI4MACIAACIDAHAjMRoSxMZ/XFqUz1Om0RYDxp9liY357q2+piApdT4kxX5tGVLAA44gKh9NJlUqZ9p4+RSVsDjcXjwABEAABEAABkxO4pQibhrVyFFbu0WOKxuI0Gg0/i6hoNCzoCbsSYbp/PXCZE+b1+sijeCSiYpqYz+3IISphJn87cHwQAAEQAAEQuEMCtxRhU0/YYDiidDZHyVSSTk5OpArW6XSo0WBPmFUrYZcijCthHkWR5PyDg+KzsFZOy+d2JCtU/pyeniKs9Q5vMr41CIAACIAACJiMwC1F2OfXFnFOmGF06KTXm4a1WlKE8XSkwtOR/nV/wE+apokAU3xeOiwd0N7OU4moYHMcRJjJXgccFwRAAARAAATmR2BmIiy39ojiiST1ul0RYpwV1mw2LVgJu1xbpGr6eigcIo/HQxxV4fa46eDggAq7O88S87E7cn43GU8CARAAARAAAZMRuJUI+1xYa26VEskk9U/6sribC0G1WpXFmMUS869EmK6tBzkjzKcSh7byn3K5TAf7BXLaeXcktyOxtshkLwSOCwIgAAIgAALzInArEfZ8TlgylaFoLEb0gC6N+R1JzG+zJ+xsYqEF3mzMX7Jt+jRtnYPRNF0nv+6XdmQhn6fdp59eijAY8+d1i/EcEAABEAABEDAhgRuLMKfTSfxhIcZhrauPX6FMNivtSG5DtlstqlWrvEfSYpWwy+lIldcWBUOkqippmi4w8vk9Kh8eTEXYYCDlQBjzTfha4MggAAIgAAIgcPcEbizCPr87ckyxRIIy2RyNhkOOpZDpyHqd1xZZXIRxJUz1+chud1DlqEKF3d3LiAqIsLu/v3gCCIAACIAACJiWwMxEWCa3SpFolE7HI+oYhlTCZHek5SphTj3l9tp+pmnam2zI5+lIXuLtcrupUMhPPWEOByphpn0ncHAQAAEQAAEQmAuBGYmwESXSGcpksrIyscXtyMvpSOst8JZ2pH1T1VQJa+UPCzCeUtgv7FPlsAQRNpe7i4eAAAiAAAiAgKkJzEyEReNJSmfSUgAa9PviC+Ml3h2js9Ubjy1mzLfZNlVVmybma5pEVCzZbFQpH1KxwJUweMJM/Vrg8CAAAiAAAiBw9wRmJsJSmaysLTo7m1Cz0ZAdkhzWarSNrbPJ+K1Wq1W86x/nwV0/gL+/U9dTbhu3I/U3OaJCwlpVVfLCikVOzGdPmEOU6GCIiIp5/E7wDBAAARAAARAwIYEbizCn00FOp+vZdGQ6t0qpVErWFhmdaVgrR1QY7dZWb2K1iAquhGn6ejAYIC/nhAWDskSzVCpSfmcbifkmfBNwZBAAARAAARCYM4FbiDCn2KD4wxEV2dVHsjuS25HchuS1RZIT1m5ZNaKCRVhQcsKCgSA9ePiAKpUKFbgShoiKOd9jPA4EQAAEQAAETEfgxiKMIyo+C2sdU2Z1laLRKF1cXIgIa3ElrFYjo92xWDvyMjHfx8Z8FmEqT0fqZHc4qHx4SMV8nhz2ZWlFsiIdDodY4G269wIHBgEQAAEQAIE7JzATETYajSmZzVI8HqfxeDydjux0qFGvcV6YNSthPlV9LqxVI5ttmY6OKlQs5JGYf+f3Fg8AARAAARAAAdMTuJUIe353JBvzI5EoTc4mkhHGYa1cEbNgTpgzpXi9m6rufzYd6fV6yeP2UHF/n0rFz3LCUAkz/QuCHwAEQAAEQAAE7orArUTY87sjE6k0pdIZ6vdPZHWR5IQ1GrI7sjexYESFdinCFEUh3R8g7s+yCCsfFMlht9NwyIn5A6wtuquri+8LAiAAAiAAAuYmMDMRFkskKZVO03g0pmazQb1e71KENS06Halq66FwSAQYq9GlJRvVqse0z+1Ih4OGgz5EmLlfDpweBEAABEAABO6SwK1E2FU7cjAaSRUsvLJCZ2dnsreafWGWXuCtabq0I30c1irGfKcs7+bpSK6KQYTd5b3F9wYBEAABEAAB0xOYiQjjiAreHRmLJ2g0Gn7mCWs0qNVqWtOYr+kcUREir89HuqaRy+2hg1JxGlGB3ZGmfzPwA4AACIAACIDAHROYmQhLZ3OUTKVp0D8RP5hhdKler1lThHFivq773/T7/ZKY7/Eo5FEUOj4+or3tpxBhd3xr8e1BAARAAARAwAIEZibCcmuPaSUSoZNej05Oes8WeHdaza2zycRaa4s8NtsmtyP9vDtSVYmnI7kdySKsmN+DCLPAm4EfAQRAAARAAATumMBsRNhwRKlsTkTYeDSibteQiArZIWnVtUXiCQsGiathPt90d+TBQYl2n6uEIaLijq8vvj0IgAAIgAAImJfAbETYaES5R48pmUhSr39CXRZgzaYs8LaeJ8zpTLkV5Vk7Uvf7KRQKET14QJVyhfK7O8SLNYcDjqjoI6LCvC8HTg4CIAACIAACd0ngViLsKidsMBxRZnWNorEoPbi4oFqtTq1mQ4RYq9Xa6vcmbw2HreJd/iD8vR/c9QP4+zt1PeVZsm2yMZ8rYbyyyO3xyETk4cEBHZaK5HDYaTgYQoTN4xeCZ4AACIAACICAOQnMRITxdCTnhCWSSSn89E/6XAGTxHxuR1rLE3a5O1LVNBFhPlUVX5iTIyrKZSoV8uRwLNMAIsycrwRODQIgAAIgAALzITATESa7IzNZisVjsq+a/WAGry3ixPx2y2IRFZcijCthV8Z8t9tDHsVDlXKZigVeW2SX5d1oR87nFuMpIAACIAACIGBCAjMRYVwJExEWi9HJyQn1T06mxnxuRzabFmxH2mybut8vOWE+n08+07DWQyoWPpuOhDHfhK8EjgwCIAACIAAC8yFwSxHmIpfLTSzCUpkcxeNxGo6G1DUMMgxDcsKaLMImk7eGLSt5wjiigsNaQ2EJauWW5MOHS3R4UKLDYnFaCRsOpRrGpUHu0Z6entL5+bl8XvLP20T005f8WnwZCIAACIAACICAuQjcWIQ5nU7ij9vlouFoTPFUiuKJBF2cn0sVjANbazUOa21v9a22wFux2zdVVV0P+AOkBwK09PAhabouxvzS/lU7EsZ8c70LOC0IgAAIgAAIzJXAjUUYDwOyAHO5p5WwZDpDsUSCOq0WnZ2fy3Qke8I6nc5Wbzy2XiWMjfncjuT9kTwdyZ/jyhHtbn9KDvvnjfnj8YjGY1TC5nq18TAQAAEQAAEQWGwCMxFho/FYcsKi0egzTxgLsHq9ToblpiM5osJm22QRFuJ2pK6LElUUrxjz8zvbElEBY/5i33ycDgRAAARAAATumcDtRJh76gnj6cjsGueExanX69KgzxEVLWlHWm86UtdTvDtSU7U3g6EQqZpGXkUht0eh4n5BPGGIqLjna43HgwAIgAAIgMDiE5iZCGNPWCqToX6vR91ejzrtNtVZhHXYE2Y5Y759U9XU9XA4TF6fjxSPQopXoYNSifZld6Sd+v2BVMPYlA9j/uK/CTghCIAACIAACMyZwK1EmMvlIk7Nl+nIbE7CWk+6XeqdnMiEZLVaJcPobJ2Nx9Zc4M0ri9gTpmkaPVzi6Ug25u8/ywmDCJvzdcbjQAAEQAAEQMA8BGYmwhKpNMUTSTo/m8hkpOyNbDap0+5snU0sKMJ8Khvzp2uLeDLy4YOHVDmqUFEqYQ4aDrkSNkREhXleBpwUBEAABEAABOZJ4MYi7FlEhdtNvDsylc1QNBqTGCz2g7VbLWo06izIrNiOZGO+LiKMM8J4gffFxQUdHx3R/t7edHfkEBEV87zJeBYIgAAIgAAImIzAjUUYR1S82I6MRCL04MEDMeTL2qJ6nVqWW1t0aczXdf1Njqjwer1SCVtaWqJGvUF7O0+lEobpSJO9CjguCIAACIAACMyXwMxEWG7tEfE+67OzM6mCdbtdqtd4gXd7q2e1sFaZjtQ0EWG8soi9YQ8fPpQF3oelIjntiKiY7z3G00AABEAABEDAdARmI8LGY/GDxeLxaTuy2bxcW8Q5YR3ribBpTti0HckCTFVVKQEeHx1TsZCftiOxwNt0bwMODAIgAAIgAAJzJHBrEcY5pZzAkMpkaSUSIbogjqUQIcbtyI7lwlqdesrttf9M19U3A4GpCNNUTUTYERvzCwWIsDneYDwKBEAABEAABExKYEYibCwZYZFIlC7oQqYjn4kww2pri5x6yqPYNlVdW2cRxn6wz3LCDqiwt3M5HQljvklfChwbBEAABEAABOZB4PYiTBZ4jyiTW5WcsF6vJ59n05G8wPvMcmGttk1N09elCqZpFAqHyWZbpsODEhX2dmHMn8fVxTNAAARAAARAwNwEbi3CrsJa07lVSiaSdDo5pVq1+qwaZsnpSOXSE3YlwvyBADkcTllbVNovQISZ+6XA6UEABEAABEBgHgRmJsKS6Qyl0hkaDYfUbDaeiTBLesKm7cipMV9RFIpEo1IJK5WKtL+3S5zfAWP+PO4vngECIAACIAACpiVwaxF2ZcyXSlgqRZPTU8kslYiKOoe1tqwW1upMeWzeTU1E2GVOmKbJAu+DUpEKHNZqX0ZYq2nfCRwcBEAABEAABOZC4PYizOWi8XhMqVyOkskU9U/6LLyeibBWs7nV703eGg5bxbv+iR7c9QP4+zvZmO+desJ4b6Ti9ZKqacQrBCplno5kETZNzOfAVv4bC7zn8ZvBM0AABEAABEDAVARuJcLcbhe5nC4asgjLZmVtEWuOTrtNvW6XGs0GrzCyWiVMT01zwqbTkewH83g8tLy8PA1rLXJY6zINhgPq9wciwCDCTPVS4LAgAAIgAAIgMA8CtxJhn60tGlM8maJYPEanp6d00jsRXxjvjjTa7a2zyeStVssqlTD9SoRNK2FcBQsFg/TQZqODYpFKEtbKC7wRUTGPG4xngAAIgAAIgIBJCdxKhEklzOWWiIpEOiOesPPJhGr1urV3Rz5fCWMRpvp85PX5qFQs0t7ujqwtgggz6SuBY4MACIAACIDAfAjMTIRlVtcolUpT1+jIyiIObOVKWLvdtmY70qeqMh3pUzXZH8lZHZVymfK7u+R0YjpyPvcXTwEBEAABEAAB0xK4lQi7akcOhiPKrK5SLBajQb9PHcOQSli9XqNOp2NBEbY09YQFQ0FSWYSpKrk9HhkL3f70k2liPnZHmvatwMFBAARAAARAYA4EZiLCuB25+vgVWVvU75+IAOuICKtzcr4FE/NZhOlTT5jPp5Kma1IJ43Ykh7Xa2ZjfH8h0JIz5c7jGeAQIgAAIgAAImI/ArUQY6w6uho3G42eeMK6E8coibklKO9Jya4sud0dyThhPRuq6TrruJ5t9mY7KZSrs7k5F2AAizHzvA04MAiAAAiAAAnMjcCsRdtWO5GIPtyOjsbhMRzabTRFiPCFpyYgKxWbfVHV13e8PkKqqxKGty/ZlKu7vSyWMc8IgwuZ2ifEgEAABEAABEDAjgZmIsOFoTMl0mlLpNJ2Ox9KG7HTa1Gy2+O+t3nj81tCKERWhUEgWeLMnbHnZTuXyoawtEk8YcsLM+ELgzCAAAiAAAiAwLwIzEWFszE9nsxRPJCQ9nz1hPB1Zq9WsuLZomhPmUzWZjpSsMBZhdod4woqFPDkdiKiY1w3Gc0AABEAABEDApARuLcK4JcnG/FQmKzlhVyKs0WhIRazbsWxYq7Y+9YMFSNNUqYbtF/Zpb2cbIsykbwOODQIgAAIgAAJzJDATETYajSm7tkbpTIaMjnHZihQ/mFUT8+2bqsaeMD/x6iKvzytri7j0t7e9/YUF3uPxiMbjUzo/P/9/2XvT5DaSpFv7SMQ8ZSYGThg5SP3etQgb0QpqD/WfWgq38naXOAHgBGJIzAQSIPWZOwiVqrq/a7pkElRmH5rBVD9YjODDCLNj7h7n6Ocnv34D8PtPfi+/jQRIgARIgARIwFsEXizCYvo6cq4iLLe5qYP5Q8mNbLd1QH/Q6x8/LBz/xRat2pFi1CoD+uFIWLMjz09OEI2EdTB/MpnQosJbF4K7JQESIAESIIF1EXi5CIvFIDNheweHmh05m870VaRYVDwN6PvQrFUDvJc+YTKYH48nEI1FcXF+jubNtQ7mU4St6wxzHRIgARIgARLwJAFXRJjMhG3t7KKyt6fFn8l4oi1JNWvt2T4VYYZZldJfPB5XEWaYBq6urtQnjIP5nrwM3DQJkAAJkAAJrJOAKyJsFVuUz+fVKX88GmE8HqN1d4de34/ZkRuBIzFrzWQzMEzre3bk9fUNzk/+UJ8wBniv8xxzLRIgARIgARLwHIEXi7BoLKZjT3uHH7C7m9fYouEqwLvdXpq1Piz85xMmIkyc8sU1P5FIIBQK4ebmBo2Lc4owz90DbpgESIAESIAE1k7ANRFWLFews7urZq2j0QhiUSGvI2276792ZFQqYaapM2HSjszmcojHYri8usL5yVdEZSaMZq1rP81ckARIgARIgAQ8RODFIkzyI3Uw//AQ0o6UmbB2q4XJeIx2pyOmrcf3fquExQKBL6ZpfRLHfEMc81MpRCIRXF1eonZ+jrCYtfJ1pIfuAbdKAiRAAiRAAmsn8GwRFomEEYlEISJMfMJKT475Mgq1akf62jF/9TpSDFtNywLwThPLl2atYYqwtZ9lLkgCJEACJEACniLwbBEWDoexCvCW15FiUZHJZvHt2zf0ez1tRYomkUrYZOGzmTCphFmm9Smb24SVthREOBRGq3WH89MTWlR46g5wsyRAAiRAAiTwJgRcEWH3TyJsc3NTh/TFIktEWLt1txzM95sIW2ZHGtVcbhPJZBJWOq0B3s3mLS4owt7kJHNREiABEiABEvAYAVdEmFTCKvsH2N7e1nQe2+6qa760I/u+s6iIWKV4InCUMpcB3iLCpAQYDIXUk+P0j3+xEuaxW8DtkgAJkAAJkMAbEHBNhB18+Ijc5hbmc0cji0SEqWO+tCNHi8/TqV1/7d/v3WsvID8/YlklqYSZplWVV5EiwiS8W/qwPdtG7fyMFhXr+ENwDRIgARIgARLwNgHXRFh5bx+mlca7d8Cg338SYS3/tiNNK62VMMMw9IXkxvsNNBp13FxdUoR5+1Jw9yRAAiRAAiSwDgIvFmHR6NKsdadQQLFUwsPDgw7mi3O+VML85xP21I40LLO6ubn1vRImfmFiUcHB/HWcW65BAiRAAiRAAp4n8GIRpj5hT4P5+XxBHfNXlbC7uyYGvd7xyJ+D+WZ1a2tLzVqlHSn/XjYuUb9YtiPldYJ8RKHKZz6f4/HxUT8/+fUbgN9/8nv5bSRAAiRAAiRAAt4i8GIRJu4MM8dBsbKHYrGomZEiwuTfu2ZTsyO/LRafbdsvM2FSCUsGjtQnLJ1GIpVEOp3Bxvv3aN7dfY8togjz1k3gbkmABEiABEhgzQRcFGEVbG1u4eHxEd1uF6PhUKOLej2fWVRYllXaCASOksbydaRkR4oSlfzIeq2Gy3oNYqI2vZ9gMmElbM0HmsuRAAmQAAmQgFcIvFiESTtSLCoKpTJK5bLmRkoRqNvp6EzYsD84flg4PqqEWVZJzFoNw/gk7UjDMBGLx5FIJFGvXaBRqyESXrYjJcOJ7Uiv3AXukwRIgARIgATWSsAlEeagUC6jXCljNBxpbqQM5jebTR/6hD1ZVFir15GmqVWwjUBA+6+N2gVCwSBnwtZ6jrkYCZAACZAACXiOwItFWDQmM2FzFMsVSGFosVhoNUxeSIpfWNfu+tAxf0NmwsxqJptBMplSx3wpCV5fX+Ps6x/L7MjplJUwz90HbpgESIAESIAE1kbAFRE2nc6w/+Ejdnd3VXfY3aVjvogwGcz3X2zRdxGW1fBufSGZSuGy0cDFmbyODFKEre0McyESIAESIAES8CSBl4swfR05R3l/X19HDgYDbUdqgLeIMHHMf/BZgHcisHwdKUP52VwWiXgSoUgYd7dNrYSFKMI8eRu4aRIgARIgARJYIwHXRJjEFm1ubcGZzTAaj9ButXQ4v9+zj0dDn8UWyWC+aVmf0lYa6XRah/PfvX+nv/TF6ekyO3LKwfw1HmQuRQIkQAIkQAJeI/BiEbZ6HSkB3hKl+O3xUYfyxaZC2pIqwvxo1iqxRZZlaWRRNBJRm4q7Vgv18/OnmTCKMK/dBu6XBEiABEiABNZIwDURJmatuVwOUzGKn051MF9akv6LLbKsUiIQOpLYIhFhMgsm2U3yQuHu7g6XtQtmR67xBHMpEiABEiABEvAogReLsGhsmR1ZKFewubm5dGaYTHQ2TERY3+75zycsHggcSSUsk8noy8hUysDGxns0b29xcbZsR/J1pEevBLdNAiRAAiRAAush4IoIk9eRlf19bG1va4D3UARYt4t2p+PPSpiIMLGokLgiqYYlUymEQiHc3NygfvHUjqRZ63qOMFchARIgARIgAW8SeLEIW82EFct72NndgTNzMBwO5FWkP2OLImLWuhE4MtOWxhZZ6YzGFMUTCVxfSoD3BcLhkPZl6ZjvzVvBXZMACZAACZDAGgi4JMIclCoV7OYLGI9HmE2n2opst1uwu7b/LCpWlbBcNgdDKmHJJBLJJBr1Oi5OTzgTtoaTyyVIgARIgARIwOMEXizC5FHgzHEgryOLJcmOHKpRa9+20Wq3lj5hfnwdKe3IbDan4kvmwsSwVURY7eyUIszjt4LbJwESIAESIIE1EHBNhJX3DlAslzAWo9ZuF6PhUCthvhRhsY3Al5SR+pTLbapFhTwLDYXCOpj/xz//V0XY/f1EXykwwHsNx5hLkAAJkAAJkID3CLxYhMlM2Gzm4MP//B8dzJ87M7XLGvR6y3/7fR+2IzcCRynDUMd8qYJZpolwJIJ6rYarek1nxESAcSbMezeCOyYBEiABEiCBNRFwRYRNxaKiWEapUsZsOoPds7Ua1u2KY74vRdjGkWGlq9lsBoZhIZFMwDRNnJ2eokGfsDWdXS5DAiRAAiRAAp4m8GIRtpoJE5+wg4MDNWkdjkbilI92u4Oe3T2ePDx8ntp2/bVJvXvtBeTnRyKRUjyZ1OxIeR2ZMgw1bE0mU2g0fhzMl0oY25Hr+JtwDRIgARIgARLwIAHXRFh5/xClUlFnwcSo9S8WFcPh5+l06hMRtnLMN42qtCLFsFWG8sW19ubm+s/sSLYjPXgfuGUSIAESIAESWBuBF4uwH7Mjd3Z31S1fhvM7YtQq2ZGD/vHIcXxUCROfsCezVksDvDOIxWMwLUtfR56fniwd8ynC1naKuRAJkAAJkAAJeJCAqyJMLCp6PRuT8XgZ4G13/fk6Mr6xcZQ0zGoum0U6Iy3JlP7tW3ct1C/OVITJUD5fR3rwSnDLJEACJEACJLAeAq6JsFJlH7nNHN7hHfr9PjqdNjrtNvr9ns9mwrQSFjoyn9qR8kJSWpLBYEhnwv6TT5jjzOA4czw+PurnJ79+A/D7T34vv40ESIAESIAESMBbBF4swlaD+eX9fRSLJSzmc82M7MqnK5Ww/vFk4ad2ZMQqxRMSW7QM8Jbh/FA4jFgsjuurK62EiU8YA7y9dRO4WxIgARIgARJYM4GXizD1CZuhVNnT2KLJZAzHcdButZZzYfI60p+O+VY1k04jnc0imUggGovj6rKBCzrmr/kMczkSIAESIAES8CSBl4uwp9giccwvlIo6DzYajbQVuayE2T4TYU8WFVY6U02n0+oRJvFFUhKs1Wqon58jEhbHfJq1evJKcNMkQAIkQAIksB4CLomwuVbCypWyao92u61WFSLCut2Oz0TY0+tI07JUhFlWBjIXFolEcNlo4OzkK8Iiwn4YzOdM2HpOM1chARIgARIgAQ8RcE2E7R9+QLFUxPR+umpDrl5I+kyE/WDWKjNhYk0RDoWRzmZUhK0sKn4UYdKvnc85mO+hi8GtkgAJkAAJkMBrE3ixCIvForifOtg7OFQR1ml3dEZMrCpkJsx/g/mrSphpVdOZtIowerF5aAAAIABJREFUwzARDAZxdXmJy3od4VBQS4K0qHjt88ufTwIkQAIkQAKeJfBiEfY9tqhURr5Q0IJPv9dHr9dFp+PHmbAnEWZZ6aoIMBFiiUQSGxsbaN3dofY0EzadMrbIs9eCGycBEiABEiCB1yfwYhG2csyXmbDc5iYeHh4wGo5gd+VlpI2uX19HymC+tCOTqZTGFiWSSbWokNeRS8f8CbMjX/8AcwUSIAESIAES8CoB10SY+ITl8wUMh0OMxyMMB0NtR/pvMH/lE2ZZ1Wwup+Irk84gHI3gqkGLCq/eBO6bBEiABEiABNZM4MUibNWOrOwfIF8sYjadqlGriLF2uyXVMJ8N5ks7ciNwZFhmVawpkqkkctlNbAQ2cHt7i3N5HUmz1jWfYy5HAiRAAiRAAp4j4JoI2zs8xNb2Dh4XC7RarScR1vahT9hKhJlmVawpZC4sFo0iGo/jrnmL2hkd8z13DbhhEiABEiABElg/gReLMHkdOZ05KO3tY2tr+8kea7KcB9PXkZIdufg8te36a/967157Afn5kb+8jszAMAyk0xkEQ0Hc3tyoRQUrYev4S3ANEiABEiABEvA0ARdEWExF2N7BAbZ3dvR1pIgvCfGWf23fOeZbVikWCHwxTfPT1uYWEqkUEomEvpC8vGxogLcM5tMx39MXg5snARIgARIggdcm4JIIm6G8f4BisYjhcITxaKjtyGaziUHPPh75LTtSRJhlpT/lcjmkDAPJZBKBQECzmsQxPxIK4X46xWQyUdM0mrW+9jnmzycBEiABEiABzxF4sQhbDebvHX7QCMXFYq4CbNDv62yYBHh/Wyw+275pR0asUiwR+GKYpoowy7L0hWQwFELz5ga187MnEUafMM9dB26YBEiABEiABNZHwDURJjNh29vSjnQ0N1JmwkSE9fs9H76ODASODNOs5nKbSCZTME1TX0fWazU0b651JoyO+es7xVyJBEiABEiABDxI4MUibGXWurWzi1K5rGatPdvWapiIsJ4fZ8LiKsKs6qodmUqmEIvHVIRd1moIqQibMLbIgzeCWyYBEiABEiCBNRF4sQiTdqTjzJEvl1EuVzAZjzEYDrQd2ZZ2pJ9FmDjmS26kYRo6E3ZzfY1G7WLpmM+ZsDWdYS5DAiRAAiRAAp4k4IoIm80cFWG7u7tYLBbo93roD/oa5u2/StjKMT+d1tgimQkLhyNIGSlcX13j/PQrRZgn7wI3TQIkQAIkQAJrJeCKCJvOZtg7+IDdfF4rYLPZVGfCJLZIBvMnvnsduRH4YlrWp2UlzEAqZcAwTdTrFzj7eoJIOMRK2FrPMRcjARIgARIgAc8RcEWESSVMHPNLlQr6dg+DQV99wkSE9SS2yHdmrRpbZFWzT475qVQKkUgU19cS4C2O+UGKMM/dBW6YBEiABEiABNZKwB0R5sxR2d/HTj6P2f1URViv10O73fapCAsEjkzT0nZkyjQh/8rXzfUNLuu1J8d8saigT9hajzMXIwESIAESIAHvEHi5CHuKLSqWytjZ3dXfXCpg6pjfbvt3MN+y0tVMNqtO+bnNHB4fH/UlwsXZKcIhGcynCPPOPeBOSYAESIAESGDtBFwRYdKOLO8dqBZ5//69ahGxqBAx1u12/DcTJhYVKcOoptNpfR1ppdOIxxO4ub7C6clXhIPSjqRZ69qPMxckARIgARIgAe8QeLkIi0Yxc+bY//ABO7t5TMYjdLtdDPo9/XfY7x8/+Mox/ynA2zBMrYRJbJGIsWg0huurK5x+/UMH82nW6p1bwJ2SAAmQAAmQwBsQcEeEzRzsf/ioryPFo9TudpeD+TIT5lfHfNOSmbCsvo4UMSY+Ybc3N5odKY759Al7g+PMJUmABEiABEjAOwTcEWGOg/3DD9je2cHD4kEH8vuDnoowW15H+s2iQtqR6XSmmn4ya7XSlvZhJbH84vSEIsw7F4A7JQESIAESIIG3IuCaCKvsH2JrexuPjw/fK2Hdbgedjogw5/PUNwHeT+1I00pXxahVhFg8HtdK2HAwwB///Cci4SAmk/vvsUWOM9NYARnel89Pfv0G4Pef/F5+GwmQAAmQAAmQgLcIvFiExfR15Bwf/ud/1LN0sZhjPBrLQL4atvrarDWbzepQvmVawDvg9vYW9XPxCeNMmLfuAXdLAiRAAiRAAmsn8GIRtsqOLFb2sL2zrb+ABHjLUL5vfcJigdAX00ypY75lpRGNxdSq4rJR1+xIzoSt/SBzQRIgARIgARLwGoEXirAYotEIZo6DYrmCQrGI0WiE+8nke2zRoNc/HvmxHWmszFpTKSRTKS0Dnp+d4UrMWhlb5LWLwP2SAAmQAAmQwLoJvFCERSGVMA3wLpWwt3+A4aCPwWCgH/EJExH2sHA+276ZCfshwFvakYlkUtuR0VgUV1dXOpgfCYd1HoyO+es+z1yPBEiABEiABDxDwB0R5jioHBwiny/gfjLWyCIxa5V2pC9nwuR1pFTCcrks4okk0paFUDiM66tr1C/OmR3pmfPPjZIACZAACZDAmxFwSYTNNbxbfMKc2UxbkdKWbLVa/s2OXJm1SitSvMKkJNi6u1OzVs6EvdmB5sIkQAIkQAIk4BUCLokwBwcfPiK7uYnp/T0G/WVLUs1ae73jycPCbxYVoSPTMqvZTEbbkaZlqQgTs9bTr1+1HTm9n2Byf4/ZbKaf+ZwWFV65FdwnCZAACZAACayBgCsibOo4OBCz1t1dHcrv2T2MhgO0O2JT0fWZWWskUkokk0cpw6xubm1pFSwWjyOZTKJWq6lFhYqw6VTjA6ZTirA1HGQuQQIkQAIkQAJeI+CKCFu9jixX9jAcDjAZjzW26O6uKRWx45HjQ7NWaUfmNjf1ZaRpmggGQ7i6vMRlfWlRwexIr90F7pcESIAESIAE1krANRFWKJWRLxS066aD+YMBWq27ZTvSj7FFIsKyuZwKMGlJSjuyeXuL85MThEJBirC1nmMuRgIkQAIkQAKeI+CKCHPmc+wdLGOLpAA0Gg5ViLXbLf+KsJRhaCXMNC2EgkFtSXY7HQZ4e+4OcMMkQAIkQAIk8CYEXBFh0o6UAG+JURRrLMdx0OvZ+liw3+/7rBL25BNmmGY1k80iZRhIxONqUSHPQVexRTITRp+wNznUXJQESIAESIAEvEDANRFWquxBCkNiUTF+mgnT15F9X7YjQ0emuayExRMJSJB3MBjEzfU16hJbFAzqYD5FmBfuAPdIAiRAAiRAAm9CwBURJu1IiS3a2dnF4mGhuZFj8QmTStigf/zg+NAxP2WaVem/xmIxbG5uIRQKodGoo3Z2ysH8NznLXJQESIAESIAEPEXAFREm7cjy/gGKpRLmM0dfRY4nE9zd3mLQ7x2PfDmYr475OR3KN1JiUxHD1dUlLk5Pv1tUsBLmqcvAzZIACZAACZDAOgm8WIRJIeh+NkNlb19fR07GEwwGfY0tkhGpQc/2qwgzq5lMVo1aU8kUwpEw6rUari8bCKtZK7Mj13mSuRYJkAAJkAAJeIyACyIsiunMwW6hiGK5DGc6U68wiS7qdJ4c8/1YCUulDLWokMF8EWFSCatdXKgIY4C3x64Bt0sCJEACJEAC6yfgqgiT/EgxapUq2KDfQ7vV1pkw//mEbQSOZCZM2pFi1ppMJBGJRnDZuMRVo45oJKxD+eLXwdii9Z9qrkgCJEACJEACHiDwYhEmHqVSCcsXiygUi/ooUETY0qy1hb4fsyNjgcAX07Q+pdNpiE1FIpFAPB7H9fXV9+xIyW+iCPPAFeAWSYAESIAESOBtCLgmwg4+fMBuvqD2FOPREO12G91uB4Ne7/hhsfhs23b9tX/Fd6+9gPz8iGWV4oHAkWFa1a2tLcRiUVjpDN6/39CIAL6OXMdfgWuQAAmQAAmQgOcJuCLCVq8jxTbr28MDOt2OBnk3m03/OuaLCMtms0gmU0gkl5UweR1ZP79AJMzsSM9fDf4CJEACJEACJPC6BFwRYdKOlHkwqYRNJmOMRiONLmq3WrB7tg9nwp4qYTITJkat0VhM/cKazVucff1Kn7DXPbT86SRAAiRAAiTgBwKuiLBVbJF4ly7n0Sewu7bPRZixjC0y5HVkKoVoLI6b6ytc0KzVDxeDvwMJkAAJkAAJvDYB10SYmLXu7u7ifnKPwbCPfq8PH8cWLWfCpB0pPmHJZFKF2Pn5+ffsSBnKXw3mO84MjjPH4+Ojfn7y6zcAv//k9/LbSIAESIAESIAEvEXANREm2ZF7+/sYDAb6OrLX66Hjy3akBHgnRYSJRcWmzoJJfqRhmPo68uL0hO1Ib10C7pYESIAESIAE3oKAayKsIpWwfAH9fk9zI+WVpFhU9HriE+Z8nvrrdWToyDCNqsyDmaYJsaoIR6K4urxE7XyZHckA77c4z1yTBEiABEiABDxDwDURVn6KLZpNpxrg3e/11DXf9qcICxylDENji8QxP5PJIByOoHZxjqt6HeEwRZhnrgA3SgIkQAIkQAJvQ8AdESaxRcUS9vb2MJ1N0el0MOj39d9+v+ez15HSjkyIY75RzUp2ZDoNcawV5/yLszPcXF2yHfk2h5mrkgAJkAAJkICXCLgjwhwH2/kC9vb2dR5MXkf2JDuy3UbPdyJMzFqfYovErFUqYTIXJq759XodjYtzijAvXQHulQRIgARIgATehoA7Imw+R7FcQbFUWs6DjUY6oH/3ZNb67cFvjvlPIkzakDIXJlWwSCSCm+ubH2bC7jGZMDvybc41VyUBEiABEiCBX56AOyLMmaO8t4ed3V1MpzMMB32dB+tKW1Jii3wnwgKBI9OyqpaVhthUxOJxFWLimH/6r38hEg5jOqUI++WPPzdIAiRAAiRAAm9HwBURJo75hx8/6uvI4XCAyXis2ZE6mG93fTYT9pQdaVrpqryKlEqYYZo6mH/XvMXJH38gHAqqRxgDvN/uZHNlEiABEiABEvjFCbgiwmbOHAcfPkIc82ez6dPLyC66XRFhMpjvO4uKpVmrCDBpSYprfiAQxOVVA9eNBkJBirBf/OBzeyRAAiRAAiTw1gReLMIkMlEqYfliEYViEfP5HIOBuOV3tBLW8112ZMQqRROBI8syq+l0Rn3CpBIWCoVxe3ujZq3SjmQl7K3PNtcnARIgARIggV+awItFmLgzTGczVPYPsb2zDcdxtBImjvniF+ZLEZYQx/yndqRUwax0Gu/fv8fNzQ0aFxeIhEMUYb/0uefmSIAESIAESODNCbgmwoplGczf0WhEW8xa+/2laavdOx75rR2ZCIS+GJbxSSphYlGRtiyEwhGNLaoxwPvNTzU3QAIkQAIkQAIeIOCKCJvNHGiAdz4PZzZT8SUtyW5XzFr7xyPHhzNhKcOsyjxYbnMT0WgMkWgEV42GVsLEMZ/tSA8cf26RBEiABEiABN6OgDsizHHUJ0zmwmZPjwLv7u6WFhV9qYQt/JYduQzwltgisajY2NhAKmWoWetVo8525NsdaK5MAiRAAiRAAl4h4IoIWw3ml0plDIYDLBYLjSzqtCXA22+xRU8WFZIdubm5qeIrHk+oV9jtzbVGF9Giwivnn/skARIgARIggTcj4IoIc8SsdX8f2zs7mIwnGI+Xjvmtuzv/xhZJJUxakaZlIplMIRQM4frmGrWzM1bC3uw8c2ESIAESIAES8AwBV0SYVMLKe/vYye9i7jiaHynZkSrCpBL24Ld25Ia8jly2I1OplFpUBAIBfR15Va+zEuaZ88+NkgAJkAAJkMCbEXBFhIlZa75Y0teRD4uF2lNIJUxakv6zqHhqR4pZq8yDSXh3NpvDN3zTxPKaBHjTrPXNTjQXJgESIAESIAGPEHBNhEl2ZCabxTtAI4vGT9FFvhRh0Y2NL6ZhfsrmchpbZJoW3r1/j+btLeoXMhPG15EeuQDcJgmQAAmQAAm8FQGXRJiDUmUPW9s7+Pb4KNUvdctvt1o6E3b/8OCj15ERqxRPLF9Hbu1sw0iZME0Di4cH7b/WfzBrlRBvSTSfzWYaJSAmavL5ya/fAPz+k9/LbyMBEiABEiABEvAWAVdEmDjmiwiTOfXARkCEl5q1Nm9u/DkTFtsIfDHMZSUsbaVhGCm839hAs9lE/fyM2ZHeugTcLQmQAAmQAAm8BQFXRNjMkcH8A2xtb+Hh4VGNWsU1v9Vqod/3m0WFVMKSoSPDNKrpTBqWaSGZSiEUDuPu9hbnZ6eIsB35FoeZa5IACZAACZCAlwi4IsLkdWTlQETYtjrmr15HLgfz+8cTv8UWxQN/ijCZB0sklj5hl406Lms1zoR56QpwryRAAiRAAiTwNgRcEWFSCSuUyiiUSrgfjzEajZYB3p0O+r2+z7IjVzNhlqVmrYlkEkYqhWg8ri8jlxYVHMx/m/PMVUmABEiABEjAMwTcE2HFEkp7eyrCZB5sOBotfcJs+3gyWnyeTu36a1ORl5mv/hWxrJLMhJmW9SmbySAtNhWxmAZ4X11eolE/RyQUZnbkq/8luAAJkAAJkAAJeJqAeyKsVEa+UNB25HgyQbfdVp8wW0SY78xaA6Ej0zKr6XQa8URco4ui0SiuLq9w3agzwNvTd4KbJwESIAESIIG1EHBNhO0WSigU8pjc36tR62Q8fhJhMpjv+MiiQsxaxTHfNKvpTEZji2QuDHinnhy1izMO5q/l7HIREiABEiABEvA0AVdE2FReR1b2II4N+AadBxOvsG6360PH/IhViiUCX6y09cmy0lDX/EQCwVAIN1fXaNTOORPm6TvBzZMACZAACZDAWgi4IsJkML9YrmB3Nw/HcTTAW1zzxbDV7nb9NRNmWVZpIyDZkWmNLTIMQ4fzxaLisl7HdaPBduRazi4XIQESIAESIAFPE3BNhO0WiiiWSpjNHIxGQ/R7PRVifbt3/LBwPtu2jwbz44HAUcowqzmJLUqn1aIiHIng5voaF6cniIQ5mO/pa8HNkwAJkAAJkMDrE3BNhJX3D7C7u4vpdIrxaKStSB+btS5nwjY3t2Balg7lixCrXVygUashEqZFxeufXa5AAiRAAiRAAp4m4I4ImzkolMsoVyoYjca4v5+INQXu7pro9Qb+G8xPhEJHyVSqupnbVPElzvmBQBB3zTucn54gHArSosLT94KbJwESIAESIIFXJ+CKCHPmc0glbGtrG4vFXE1axbBVfMIGw8HxyPHT68gfzFolLDOVSi2FWDqNeq2Okz/+yXbkq59bLkACJEACJEACnifgigiT2KLDjx9RLJdhd22dCRv0+9qO7PXs48li4TOLChnMl5kwEWGGgXg8rh+xqPj6r3/ydaTn7wV/ARIgARIgARJ4dQKuiLCZM8fhP/4BmVMfjyeYjEfqmq+VsP7AZ4P5YlGRDHwxDfNTJpPR8G7DMBGLx3B3d4fTP/5FEfbq55YLkAAJkAAJkIDnCbgkwhwcfPgImVOfTCbo9XsYDQbodCXAu3c8GfottigQ+GJZ6U/SghQBFo/HEI3FcNds4uL0lBYVnr8X/AVIgARIgARI4NUJuCbCKvsH2Nzawv1kgvFTfqS8kOzb3eOHxcKfFhVSCROLCvEKe/fuPdrtFmpnp6yEvfq55QIkQAIkQAIk4HkCromw8t4+crlNPH571Fak3e3qgH6vL7FFPpwJs9Lpqjjmm6aJZMpAKBTE9eUVLusXCNMnzPM3g78ACZAACZAACbwyAXdE2GyGfKmCfEEc8+cYDvoaXaRCzO76TIQ9xRYZ5nImTKpg4hUWi8XUrPX06x98HfnKp5Y/ngRIgARIgAR8QMAVETadzbD/4aOatU7GE82NlGqYVsJkJmzks5kwccw3LamEWSrAVjYV9VoNtfNzmrX64GbwVyABEiABEiCBVybgjghzHJQqeyiXxax1iMFgoGatmh3px0pYPBk4sqx01TBNrIRYJBLB7c0tTr/+i5WwVz61/PEkQAIkQAIk4AMCrogwCfDeP/yA7Z0djS1aCTCthnXFJ8xPZq2WVdJKmJmumqa0ItPIZDPY2Ajg9vaG2ZE+uBX8FUiABEiABEhgDQRcE2Hl/X1sb+/i4WGBjrQh7S56vb7/KmGWZZU2QiE1axWLCv1kMvj27Rtubq7ROD/nYP4aTi6XIAESIAESIAGPE3BNhBXLFezs7uLdu3c6Cyb2FGpR0e8dPziO/ywqDNPSmbBsNodkKqmO+Y1GA+cnJ5wJ8/it4PZJgARIgARIYA0EXBFhElu0d3iIYrGoHmHD4VATfGQmzHexRVIJex8IHCVTRjWbzWpskVTDQqEQLhsNNOo1REIhBniv4fRyCRIgARIgARLwMAFXRJjMhOVLJRSLJcydObrdjr6O7LTbYlfhP7PWRCD0xTCNT9KGTKUMnQl7//49ms3mk1lrGPf3ExVis9lMP/P5HI+Pj/r5ya/fAPz+k9/LbyMBEiABEiABEvAWAddEmJi1bm3vqMbodNoa4C2xRQNbRJgP25FiUZFOW7DSIsRSCGwEcH1zjcvaBR3zvXUJuFsSIAESIAESeAsCromwQqmCnfwuHhYLDAcDrYZ1u7bGFo185ZgfsUpiUSEzYVmJLcpk1Kg1GAjitnmLxsUFZ8Le4ihzTRIgARIgARLwFgFXRdj29jbmi7nmR8oLSfkMerbPRJhllRKh0FEqZVTFMV9aktFIFPFEHNfX1xrgHQlzJsxb94C7JQESIAESIIG1E3BNhJX3D9Qxfzwa4356ry8kVYQN+scjx3c+YaEjwzTUokKEWCgcRjAYVJfa0z9o1rr2Y8wFSYAESIAESMB7BNwRYTNHY4tSRkrnz53ZTOfB7E4Xdq/vT7NWwxSfsAwy2ay2IxOJJOq1CzQu6BPmvXvAHZMACZAACZDA2gm4JMJmKEpsUaWi9hSTyeSpEtZeZkf6aibsu2O+VV2+jkw9BXjH1Z6idn7G2KK1n2MuSAIkQAIkQAKeI+COCHvKjiyVy+oTJrFFIsbEoqLfs/1nUSGxRTKYL+1I0zQhGZLxeAI311c4YTvSc7eAGyYBEiABEiCBNyDgiggTs9bDjx+xs5vHeDxCv9eTCpg65vvOrDWyqoRZVlXc8qUSJjYVoXAIV40GLqQSRrPWNzjLXJIESIAESIAEPEXANREm2ZHimO/MHLWnkBn1drvtv+zIlQhTi4pcDoZhYGtza/kaodvBxRlFmKeuADdLAiRAAiRAAm9DwB0R5jio7O1/d2to3jXVrLXVakmIt/8G85cWFSmthMlQvsyGrQbz6zKYHwphOp3qcBwd89/mZHNVEiABEiABEvjFCbgiwmYzB6W9PchM2Gg00oLQZDxBu92Sipi/LCpW2ZGr15HJZBJWOo1kMoWrq0taVPziJ57bIwESIAESIIFfhIArImw6m+Hgwz+QLxQwHA40uHvlmi+vI78tFp9t266/9u/87rUXkJ//YztSPMIMw4RpmYhEomje3nAwfx1/BK5BAiRAAiRAAt4n4JoIO/z4D2xtb2sXTl5HSoC3VMRs2/apRYWVrmazWSRTKR3OD4fDaNQbuGrUaFHh/YvB34AESIAESIAEXpuAayIsXyyhWCrpCJQM5UslzPeD+VIJE4uKeCKBSCSCq6srXNZEhDG26LVPLn8+CZAACZAACXicgGsirFAqaztSKmHj0UgtKiS2yLcWFfI6MiM+YZalsUW5XA6NRgNnJ19pUeHxW8HtkwAJkAAJkMAaCLgiwmaOg72DQxRLZbRbd1oN87UIiwUCXwzD/CSVsEQioWatm5ubODk5Qe30FGFWwtZwdrkECZAACZAACXiagGsiTHzCDg4/oH13pwJs9UrSt7FF8jpyZdYqNhWRaBTX19e4qtfZjvT0neDmSYAESIAESGAtBFwRYeKYny8WsZsvYHp/j8n9RH3C2q0WBv2eD2OLNjaOTCtdzW1u6mB+PBZHNBbD1WUDl/Wa+oTd39/rhz5haznIXIQESIAESIAEvEbAFREmPmEyE1YoFdWfdDwaq1VFq3UHu2sfTx4Wn6e+saiIREqxRPKLaVmf5HWkDOYnkkmkUgbqtRouzk4QDgVxfz+lCPPadeB+SYAESIAESGB9BNwRYeKYv3+AUrmCwaCP0XCEXt9Gu9X24WB+JFKKJ5NHKcPQdqQM5othq3xqFxeon589zYRRhK3vHHMlEiABEiABEvAcAVdEmLQjxTG/UqlgOBzqR7zCxKKi3+8dT4aLz9Opn8xaNwJHhgZ4Z3UoX4bz5dOo11GTAO9wmO1Iz90FbpgESIAESIAE1krAJRE2Q2lvH6VSSQfy5dPv9VSE+c+iImKV4omlCBNbing8rp+UYeDm5hrnJycUYWs9w1yMBEiABEiABDxJwDURJhYVO7u72o6UmbDxePwU4O1Tx3zxCRMRJm3IdDqD9xsbaDZvcXFKEebJq8BNkwAJkAAJkMB6CbgmwioHh9je2sbD4wO6nY62JFutlr8rYdKOFHsKy7IQDke0Ela/uKBFxXoPMVcjARIgARIgAS8ScEeEOY4O5W/v7sKZzmDbXX0l6c92pGWV4oGAWlSk02ltQybiYlERx/XVJRo1EWGcCfPibeCeSYAESIAESGCNBNwRYWJRUS4jn8/jfjLBaDxWn7But4u+3T0eLfxkUWFZJXHMt0zrU1qzIy0kU0mEQiFcX11RhK3x9HIpEiABEiABEvAwAZdE2AzFcgU7u3nM587315G+FGGWZZU2NgJHScOoZuR1pGHoRxzzb25ucHF6ynakh28Et04CJEACJEACayLgigibOTOU9w+ws7OL6f0U/UEPg14f7U5naVHht0pYIhQ6MgyjallpxOJxzY2MRKK4bNCiYk0Hl8uQAAmQAAmQgNcJuCLCxCesvLevjvkiwlp3TX0dKbNhfbt/PFo4fnLMX1pUmOITlsshEono60iJLbq9ucbF2enfYoumkEiB+XyOx8dH/fzk128Afv/J7+W3kQAJkAAJkAAJeIuAKyJs5jg/VMIm6HQ6mE6nmh1p237L6P2cAAAgAElEQVSLLXoazDcMU0VYKpVS1/z37zdw12w+mbUyO9Jb94C7JQESIAESIIG1E3BNhJUq+9jc2sLj44PYUiwDvNWs1Y/tyEDoyLDMqlhTrLIj4/EEbq6v/kMlbKYh3qyErf1wc0ESIAESIAES+JUJuCPCZg4qBwfYyecxFsd8iS3q9aQKpjNhI8en7UjryaIilUwhEhWfsBs0Ls7/1o6kCPuVbwD3RgIkQAIkQAJvRMAdEeY4KFb2sLOzo5GJYtQqlTCZCbO79vFk5LPsyIRUwkyjKhYVkh2ZTCQRi8dw2bhEvXaOSIjtyDc60FyWBEiABEiABLxCwD0RVt5DoVjQgXyphkklrNvt6GD+w8L5bNs+CvBWnzAr/UlakWLWupnLIRQOq0/Y2clXmrV65fhznyRAAiRAAiTwdgT+n0VYIBBAOBzWR4HRaFQ/8jpy//AQu/k8HMfB3d2dVsJEiPXtnv9EmDjmS3bkKrYom80hGAri9pbZkW93lrkyCZAACZAACXiKwP+zCAsGgyrC5POnCJtBsiO3tnewcGZot1tPsUUdDHq2/xzzv4uwXBaJeEJDvNWs9fqajvmeOv/cLAmQAAmQAAm8GQHXRJg65q9ii4ZDjEYjfR056Pm0HWka5qfc5iYSySRi0SiSKQP12gWuGnW2I9/sPHNhEiABEiABEvAMAZdEmIN8sagh3sPhQKtg8kKy1WqJXYX/HPNXlTAJ8E6mUhCrimAohKtGgyLMM2efGyUBEiABEiCBNyXgkgibIV8soVAowpk7ak0xHAw0wNvXIiyjAd4mxKri3bt3Oph/Va8jHObryDc91lycBEiABEiABH59Aq6IMEnlyZdKOpj/7ds32Cq+euh2OrB9VwmLRErxROLITKd1MD+VMtQxX4blRITVzs/Yjvz1Dz53SAIkQAIkQAJvTcAVETadzVDa20c+n1dj+FUlTAb0NbbIbwHeP76OlCpYLBpDOBLG7c0tauenFGFvfay5PgmQAAmQAAn8+gRcE2ES4L29s4vZbIr7yb16hHXabdi9/vHEjwHeKdOs5nI5bUXG43GEQiE0m01cnJ5QhP36B587JAESIAESIIG3JvBMERZCOPyjT9gMlX2xqNhSn7DJeKzzYBLg3ev7MDtSKmEpYynCDMOEaRoIhqQSdo3zU6mEcSbsrU821ycBEiABEiCBX5zAM0XY33zCHAd7+wfY2d2FM5uh92TUKiJMsiN92o40q+l0BqlUSl3zE4mEzoRRhP3iR57bIwESIAESIIFfg4ArImzmOKjsH+hgvviDiVv+QF9HdmRA338iLBYIfTFN45NYVBiGActKIxgOLmfCzk4Z4P1rHG7uggRIgARIgAR+ZQKuibCyVMK2d54sKrro9/v6OnLQG/gztsi0rGpGKmGmCRFjgY2AOubL60haVPzKZ557IwESIAESIIFfgoBrIqxU2cPObh4PiwW6dhf9HwK8R74azLesUjwQOjJMoyo+YdKGFK8wcc6v12poXJxrptP9/b1+ZrOZfuTZ6OPjo35+8us3AL//5Pfy20iABEiABEiABLxFwB0RNpuhWNlDsVzGeDhUjzBpS3a0Eua32KKIVYonA0eGYVblZaQKsERSnfN1JuzsKyIhijBv3QPulgRIgARIgATWTsAVETadORrgXSjkdRZMIotW7Uh9HTlcfJ5O7fpr/3bvXnsB+fkRyyolAqEvhmV+krgiCe/OZLNa/WrU6wzwXscfgWuQAAmQAAmQgPcJuCTCZpAA72KprD5h4g82HA7VtLVv94791Y4Ux/xk8sg0raqIL6mCpTNpbGxs6ExYo3ZBnzDvXwz+BiRAAiRAAiTw2gRcEWEzZ4ZCqaIWFQ8PD+h2uhiNhuh02kvH/OHw83Q69U8l7EefMIktymQzCAZDuGzUGVv02keWP58ESIAESIAE/EHAFRG2ii0qFkuYzx102h0MBn20Wi0M+73jh8Xis237qB2psUWGWc2uzFotE5FIBGenp7i+bLAS5o/Lwd+CBEiABEiABF6TwLNEmCT0iOaIRqP6ERG2Uyjg4OAQ0+lUB/PldaRkR/rWJ8wwUjoTltvcRCgYRDgSRc/u4uzkK33CXvPI8meTAAmQAAmQgD8IPEuEyQy6fFYiTMxa9w8PYVppzKYzOM5Mq2A920avP/BZdqRaVASWM2G5HJKJhA7mizKlY74/bgV/CxIgARIgARJYA4FnibBQKIxI5E8RJq8j9w4OsJPPY+E4aMtgvlhUtFvo2/bxaLH4PPVTOzIWCHwxTetTNptVi4p4Iol4PIbzszNcX14yO3INJ5dLkAAJkAAJkIDHCbgjwhwHu7t5jS6aTCYYj5ZeYSLG/OkTlggcGaZZTWcyMJ9sKqQ0eH19hcYFX0d6/FJw+yRAAiRAAiSwDgLPEmF/b0fKTJhYVEh2pJjDiz2FtCIltkh9wvxWCdPBfNOqZjMZGKapAd7hUBjNuybOORO2joPLNUiABEiABEjA6wRcEWEyE7Z3eIitzW2IXYUEeItZq1bCBv3jB8fx3+tI00qrY76RSsEwLcTjcVxfXeLs5ITtSK9fC+6fBEiABEiABF6fgCsiTCphe4cfkM8XMB6P9GWkOOd3u1307a7/ZsJWlTAJ7paPWFXIV7PZxNnXP/TVwpTZka9/fLkCCZAACZAACXiXgGsibP/wI7a2t5SEVMCkFSkibNDz4WD+yidslR0pryPfv3+Pm5sb1CXAOxSiCPPupeDOSYAESIAESGAdBFwRYdKOlADvne1tPD5+U6d8Gcy3bRFhPjRrjW0Evhim+SmTTsPKZJBKJrERCKDZvEXj/FwrYfdPlbDpk2fHfD7H4+Ojfn7y6zcAv//k9/LbSIAESIAESIAEvEXAPRFWrmBrexuLxQLDwRB2t4tOt+NTx/yNH15HmqaGeIcjEVxdXuKyXvuLYz5FmLduBHdLAiRAAiRAAmsi4IoIk5mwQqmMfKGA2XS6fB3Z6/n4deRG4ChlmtVcLodEIgGxqhCz1ka9jst6nYP5azq9XIYESIAESIAEPEzAJRHmIF8qoVQqwXEcFV+j0Qhtcc3v9Y4nDz4za41LJcyyqmLWahimvoz8hm+4a97i9vqa2ZEevhHcOgmQAAmQAAmsiYBLImyGrd1dbG1t4x3eYTwZ6wvJTrsN27Z9KsJWZq2mqYatwWAQN9fXqJ2daZzAaiZMjNPkw5mwNR1pLkMCJEACJEAC3iDgigi7n85Q3tvHzu4uFov5MjNS2pHdjj8DvJcWFWY1k5FKmIFsNodINIKLszPUaxcM8PbG4ecuSYAESIAESOAtCbgiwvR1ZLmCyv4+ZvdTtDvtZSVMHPN7tn8d88UjTBzzRYjFYjFcNhrfLSpYCXvLc821SYAESIAESOCXJ+COCJs5KO3tIV8s4n4yUcf8ZSWs60MRFrFKccmOtKxqJpNBIpmEkTIQjUVxe3Ot1bDIDxYVbEf+8peAGyQBEiABEiCBtyDgigiT15GrdqSKsMFAX0hKJcy3Zq2maVUty1KfMNO0dA6sXqtpJYwi7C3OMtckARIgARIgAU8RcE2ElSp7KJbKmM2m2oqUeTDbttG3+8ejhfN5atv11ybz7rUXkJ8fsaxSLBD6YlnGJ2lHWukMpCL2DcDd7S3OJTuSg/nr+FNwDRIgARIgARLwMgF3RNhUsiMPsbm1pa8jxaRVzFqX2ZE9/4mwRCD0JWWmPllWWgVYJBJByjTRqNXQuLhAOBzi60gvXwvunQRIgARIgARen4ArImw2c1CoVFAqlzHo9TGd3msrchlbNDh+WDifbT9VwhKB0JFhGlUJ7hazVvnEEwm1qFjOhFGEvf7Z5QokQAIkQAIk4GkCzxRhIYTDEUSjUf3ITJi8jNzZyWM8HmE0HmM0HKLdbvmwHfk0mJ8yjKo45adSBlKppIqwRqOBy9oFZ8I8fSe4eRIgARIgARJYC4FnirCwZlT/KMIktqhYKmE8HutgvryQlLmwfr9/PBkuPk+nPpoJE58wGczPfHfMjyEWT+CyUUeDImwtJ5eLkAAJkAAJkIDHCbgmwsQnrFAsYTIeYTyZPPmEtdG37eOHxcJH7chIpBRPJI4M09J2pPqEpQwEgkFcX13qXBjbkR6/Ftw+CZAACZAACbw+AddEWEFEWL6A+WIu1S8VYdKO1OzIhc+yI2OBwBfDMD9JdmQymVSvsFQyhaurS1ycnbId+foHlyuQAAmQAAmQgNcJuCbCKvsH2M0XMBouPcLk02630e/7UIRFN6QdaVbTmTTS6cxSiCUSuLq8VIuKH19HTqdTTTVndqTX7wr3TwIkQAIkQAKuEnBFhMnryMrhIQqFAkajkQqwbqfz5JjfO75/8FElzLKs0kYgcJQ0zGpucxOmYSAajSGZSqF2cYHLOgfzXT2i/GEkQAIkQAIk4E8CLomwGfKlMsp7exgOBmqRJe3Iu7s7DPs+tKiQwfyUYVY3Nzf1VaSRSiGeSOpgfu38r7FFrIT58+bwtyIBEiABEiCBFxJwRYSJRUVpbx/FYlFfR8pM2Hg0QuvuDr3+4HjiN8f8H0VYyjCQTCQQjcW0HUkR9sIjyf+dBEiABEiABP47CDxThP27T5hkR+YLBa2CSTtSLCqkEubLmbCVRYXMhJlWGqlUCoFAAM1mE7V/G8yfQvq1nAn777hR/C1JgARIgARI4CcJPEuEhUIhTer50SesvH+Ara0tPCwetBLW69k6F2b3bJ+9jhSz1mToKGWkqhJZZKWXIiwYDOL29gY1dcwPM7boJ08gv40ESIAESIAE/ksJPEuEyeO/vzvmSyVse2dHCz4yFya5kRJd1PdrOzKZMlSEiWu+aZjAO6DdaqN2fopwiLFF/6UXir82CZAACZAACfwsgWeKsL865ku3rby/D/Euxbdv6IlbfqejImww6PuwEpYIHBmWVc1lszqYL0JM2pF3zSYuTsWigpWwnz2B/D4SIAESIAES+C8l4IoImzozVPYOsbUt7ciFii/JkGy12tKW9JkIs6ySzIQZplnNpDMwLUv7spFoFM3bW40tYiXsv/Q68dcmARIgARIggZ8n4IoImzkOJLZoa2sb0+k97u+nsHtdrYb50jE/vrGshEk7chlblML7jQ1Vn1oJCwZxP53qXNhsNtMPB/N//lTyO0mABEiABEjgv4DAs0TY3wfzRYRVDg6RzWTx8LCQOTB5FamaxH+VsEikFEsmv1im9Wk5lG/ASlvYeBJh51+/IhyiCPsvuDz8FUmABEiABEjgJQTcEWGzGfYOPyCTzakIs21bLSpsuyv/7c92ZCplVGUWLJ1Oq0eYiLGlWes5A7xfciT5/5IACZAACZDAfweBZ4kwmTuXz18sKvb2USiW9GXkZDLW15Hdbgf9Xv94Mlp8nk7t+msjfffaC8jPj6xmwgyzmslmYVlpiF+YVMLEokKyI0PBIMQpX9qRdMxfx1+Fa5AACZAACZCA5wi4IsLkdeTe4aFaVDw8PKgAs9WiQgbzfRjgnZDYIhnMz2SQMsynAO8kahfnaNRqWglbiTDOhHnuUnDDJEACJEACJLAOAq6IMIktKpRKKFf2vgd4SztSLSp6/eOHhfPZtn1UCYsFAl9M0/qkPmEyF2YYatZ6fXW99AkTEXbPStg6TjDXIAESIAESIAGPEnBNhIlZ6+5uHvPFXOfBVmat/hvM/25RYVVzuRwSyaQKsXg8gdrFhYqwUCj4XYSxEubRq8FtkwAJkAAJkMDrEnBFhMnrSBFh5UpFA7ylFSn5ka1WC4OefTxaLD5P/VQJ0+xIy9LB/GQiCZkNCwZDuLm+0sH8pQgTrw5aVLzu+eVPJwESIAESIAHPEnBVhO3s7qodVqfdVhEm1bC+3fNfOzIRCB0ZllmVCphhGPoJhkK4vr7GJc1aPXsbuHESIAESIAESWCMB10RYoVzWdqTjOBj0BxJXtMyOtHvHo4Xjr0rYaiYsm81qO1Jmw97hHW5ubnBZv2CA9xpPMJciARIgARIgAY8SeJEIi0QiiMVimDkz5ItlfR2Jb1BrCqmEtdt+jC2KWKV4MnRkmkufMPEHMy0TiUQCV5eXOP36B0WYR28Dt00CJEACJEACayTwIhH2o0/Y/oePKBQKGI/GsHtLs1YRY7YtAd5+qoSpCFvOhIlHmHwSyQSi0Riury5RPz/T15GS3bScCZtCPDwYW7TGY82lSIAESIAESODXJ/AsEfZvsUWzGUryOjKfV90xGo10OF+c8/3XjoxESvFk8si00joTlkwmNT9SKmGNRn0pwkIUYb/+2ecOSYAESIAESOBNCTxLhEmhJxyOfHfMl0JPaW8PxVJJBVi/1/s+mG/bXX/GFhmmVMKs5WC+aSqM5m0T56eSHSkijK8j3/Roc3ESIAESIAES+LUJPFOE/TW2SCwq9g4OsbW9rc4MvV4Pfc2OtH0Y4C0+YRsrx/w0MpkskqmUqtLbm2ucn55QhP3ah567IwESIAESIIFfgcCzRNi/tSMdB5WDA+zs5jGbTjEcDNHptNDpdKUqdjx58J1PWOjItIyqaZowTAubm5v6x7xsNHB92UAoKLFFy0oYsyN/hXPOPZAACZAACZDAL0fgWSLs7wHeUgnbLRRRKBSBd8Dd3Z22JKUiZtuSHem3wfxE4MiwrGo2k4FpWYgnEojH42jU62hcnP9tMH8Gcc3nYP4vd/i5IRIgARIgARJ4SwKuiDDJjixVljNh4pg/Ho3Qs220Ox2ftiMDgaNkMqWxRaZkRyaTCEUiuLm6Qv3iHKFgkAHeb3msuTYJkAAJkAAJ/PoEninC/jaY7zgqwrQdOZthOBygZ3fRarUxGAx9VglbZUcapvqEyXC+tCUj0Rga9ZrGFoUltmi6sqhgJezXvwfcIQmQAAmQAAmsnYA7Iuz768iyjkJJFUyG8iW2aNDr+88xX7IjDdOsylB+yjCQtiwEgkE1a23UajqYv5oJY4D32g81FyQBEiABEiABLxB4lgj7d58wBxJblC8UsFgsluKrL7FFbQx6A19mR35JmalPIsLEH0wMWyPRCG5vb3F+snwdSRHmhfPPPZIACZAACZDAmxF4lgj7u0/YdLa0qNje2dYunBi1il+YBHkP+gP/VcKWAd6GOuZLK1IsKt6/f4/m7S2uGnXIywXx6lg65rMd+WbHmwuTAAmQAAmQwK9L4Jki7G8+YbMZdosl9Ql7fHzEcDB4ehnZRd/2aTsyZZjV7e1t9QdLZ9KIRKI6mH9xfvpUCeNM2K977rkzEiABEiABEnhzAi6IsAikElbW2KKCduEkM1Jc9G9vbtDvi0WF73zCZCbMqor4Ms2nwfxIBNciwk5PIP3a1WA+fcLe/JBzAyRAAiRAAiTwKxJwQYRFIT5hlf0D7O7mMZ1NtQomw/kyG9br+TjAO51evo4Uj7BwZOmYv3wd+acIYzvyVzz33BMJkAAJkAAJvDmBZ4mw/+SYXyxXsLO7q4754hW2eh2p2ZHDxefp1K6/9m/77rUXkJ8fsazScibMrFqmqa8jV9mRy9eRF/QJW8cfgmuQAAmQAAmQgLcJuCrCdguF79mRQ8mO9KVj/pNPmCkB3um0OuYnk0lEozFcXy1FWFDMWjmY7+2rwd2TAAmQAAmQwOsSeJYI+/fYojmK5TIKxSImkwlGw+H3SlivZ/tvJiwWCHyxTOuTCDBpR8bicW1Jtu5aOD/5ilAoqC8j+TrydU8vfzoJkAAJkAAJeJiAayJs//ADcps5bUVOxhPYdhc9uwe71/WfCJN2ZMpIVbe2tpCQKlgsptWwm+trXJyeqgijY76HrwW3TgIkQAIkQAKvT+DFIiwSifw5mJ/PYzgc4l6qYaMhms2mP81a4xsb+joym8upWau8kHy/8R7tVuuHwXxWwl7//HIFEiABEiABEvAsgReLsGg0qnYUpb09iCYRnzB5GTkUs9ZWaxng/fDweWr7aDB/FVskryNFhG1ubmpskZi1SjtS+rVsR3r2UnDjJEACJEACJLAOAi6JsBkqhx+wvb2DxWKOu2ZTHfPFL6zX86lPmJXOVNPptLYjTcPA+40NVZ+nX/9AJBzC/T3NWtdxgrkGCZAACZAACXiUgCsibDqb4eDDR30oqJWwXk+H89UnrGv7L7YoHggdWWmrmslkNLYoEo2qQWvr7g71C/EJk8F8ijCPXgpumwRIgARIgATWQcAVESZmraXKHnKbm3Ac57tNRbfTge1PERY4ktgiaUPqTJhlQYbjxCdMRFhILCqmFGHrOMFcgwRIgARIgAQ8SsAlETZHqVJBXnzCplPtykk78u7uzp+xRbGNwBfDND9lshmkkimtholNhVTCTv71L1pUePQ2cNskQAIkQAIksEYCrogwx5nj8B//0EqYWFT0+30N8e602xj0escPD4vPth8H8zOZLAzD0LkwCfBu3TVxfnqisUUczF/jMeZSJEACJEACJOA9As8SYf8ptmjv4FBFmFTCRsORVMDQ6TyJsIXPRJiYtRqG+SmbzSKVMhBPxJBIJDXAu3Z+9pfsSAZ4e+9WcMckQAIkQAIksAYCLxJhMgYVi8Ugg/nlvX3s7OYxHo+0Gjbo930qwiJWKZZYtiNlJiyZTCEajSCZMnB12fi37EiKsDUcYy5BAiRAAiRAAt4j8CIRJh5h6hPmOJAA73yhiOGgr5244VBmwpr+nAlb+oRZ1Vw2C8O0VInKC8mb6yuKMO9dAu6YBEiABEiABN6CwLNE2P9fdqRUwqb3E0zu79G3e2i1n8xaFws/mrVaVWlHyutIwzQ1tuiy0cDF2elfXkeyEvYW55prkgAJkAAJkMAvT+BZIiwUCiMSCWsVbFUJq+wfaIC3xBb1xSdMHPPbbdi+C/COWKV4MnRkmIb6hKVSKW1JxhPx7zNhP1pUUIT98peAGyQBEiABEiCBtyDwLBH2YyVMunDiDSYzYbv55UzYcDDEQF5HdsQxv388WTg+q4RtBI4Ma2nWalmWVsICgQBub29QOzujT9hbHGWuSQIkQAIkQALeIvBCERZBJBr7LsK2tnfw8LDQSpht20sRZkt2pJ/akVoJW86ESWyReIRJJSwUDqHdbuH86wnCGlvEAG9v3QXulgRIgARIgATWSuCZIiyEcDiijwKj0eXryL3DD9jMbWI2m2E4GqBn92B3uz5sR1pWSQbzTdOqilO+VMES8bgO5ktEwNlXCfCmCFvrMeZiJEACJEACJOA9Aq6JsP3Dj8hks7i/nywNW3s9dc7330zYkwgzTFMrYYYhryOjiMZiWgm7OD2lWav3LgJ3TAIkQAIkQALrJvAsEfafzFplMD+by+F+MsFkMlHXfA3w9t1MmLQjE9KONKvyC6czGSQTCWxsBNDptHAilbBQSAM0pSUppUH5zOdzTTeXz09+/Qbg95/8Xn4bCZAACZAACZCAtwg8S4T9u0WFg4MPH5DJ5PDw8IDhaIhup412u41er3c88ZVFxUqEWVZ1NZQvc2GhYAjN5i1q5xLgHfghwHuK2cyhCPPWxeBuSYAESIAESOC1CTxLhP2nSlhpbw/b2zuYOw7sXg+DvsyE2TKgfzwZLT5Pp3b9tX+Zd6+9gPz8yJMIM9Ppai6XU6NWyY+MxRO4ubrCxfmfPmFSEpSno6yEreMvwzVIgARIgARIwFMEXBNhS4uKAiZjyY0U1/wJ7u5asO2uzyphP8yEZbM5fR0pw/linnZ9danZkSufMIowT10GbpYESIAESIAE1knAJRE2R2mvgkK+iJkzkxakDuYv25G2X0XY0jFfzVqfPpf1+r855nMmbJ3nmWuRAAmQAAmQgGcIuCbCKvv7KJRKGA4G3z8t34qwUOjINM1qJp3RduTm9rb+e3t9ja//+qdWwpY+YROdB2M70jMXghslARIgARIggXURcEWEOfM5Dv/xP9jd3dWXkc3bW/232xXH/N7xyPGbY/5TgLcM5otXmLQkg8GgtiOvGg0EZTD/fsrXkes6xlyHBEiABEiABLxHwDURli8WdSZMnBjUMb9n62C+b9uRpr6OTCNlGBC/sGgsrvNgl/UaQqHgdxHG7Ejv3QrumARIgARIgATWQMAVETZzHORLZezt7WEynsgwvg7ny7/6OtJXFhWrwXzDrKpHWDL5vRpWu7hQIRYMLC0qOJi/hiPMJUiABEiABEjAmwReJMIikYiOQkk7srS3j3KlgkFvKb6Gw+HSrNV3FhU/vI6USpgIMYGQShloNGqoq09Y8AcRJmat9Anz5v3grkmABEiABEjg1Qi8SIRFo1HIx3HmKFYqKJbKGA76GlskAkxCvH3bjhTH/Ewmq/NgiWRShdhlo6HtSJkPWznmsx35aoeXP5gESIAESIAEvEzAHRE2nyNfLKFYKmk7cjQeaW5kp+NHx3yphG0EjlISW5TNIpFIaGjmxsaGvkio1y6WlTDGFnn5YnDvJEACJEACJPDaBF4owiKIRpftyGK5gq2tbTw8PqLTbmE0GqGzii16WHye2n5xzP9BhGUyGcgLSSudVrPWKzFrPfvTMZ/Zka99fvnzSYAESIAESMCzBJ4lwsLhEMJhEWBLESaD+eX9feTzBU3psZ9akZ1OR15KHk98J8KeLCokwFvakdKKlCwnqYSJYWswsPE9O5LtSM9eDm6cBEiABEiABF6TwLNE2I/ZkTKcP18sUCiVsbW9rSJMHgVKO9L3jvmSHSkiTBzz379/j+urK1xfNr4P5i8rYQzwfs0TzJ9NAiRAAiRAAh4l4IoIk3bkbkF8wvJ4fHxUx3yJLmq17jAQs1a/WVQkAqGjlJmqptMZWGlLX0bKC4VGvY7GaiZsujRrZSXMo1eD2yYBEiABEiCB1yXwAhEWRiQS1U7czJmjUC6jVCqp7hj0+8vB/G5XLCuORwsfOeZbllXaCMhgvlXNik+YYUBmw0SEyevIi7NTvo583UPLn04CJEACJEACfiDwIhEm82BqUTGfo7J/AHHNl0eB3U4HgzlKzAQAACAASURBVEEf7XZHRdjDwvls+2kwPxEIHCUNsajIqGO+YRga5E0R5oc7wd+BBEiABEiABNZC4AUiTIbyn3zC5nMdzC8WlwHevX5fq2EymD/sD/xVCYs8mbWmjKVFRSweh8yGBQIBtO7ucHF6iqDGFkmAt8yEiVnrTPOcpFcrn5/8+g3A7z/5vfw2EiABEiABEiABbxF4lghbvY787pjvzFE+OMDm5hYWiznarZYatspgfr/f82dskWmlq2JPIUP5UgULh8NaAhQRFuDrSG9dA+6WBEiABEiABNZP4JkiLKyaQyphkWgEi8UDKvv7SGeyWvQZDAZaERPHfNvu+lGEhY4M09BKmGGaCkJakleXlyrCNMD7aTCflbD1n2quSAIkQAIkQAIeIPAsEfYXi4poRGOLdCasUEC/18f9/UQDvH1rUSEzYYaV1pkwCfAWISZtSfEJO/3jXz9YVEw0N5LtSA9cBW6RBEiABEiABNZL4EUiTNqR0dgyO/Lg40dsb+9gMh6rPYUEeKtZqy0WFT56HSkzYWJRYVjLwXzTspBKJhEMhdG6a+Ls5CtF2HoPMVcjARIgARIgAS8ScEGExdSgdf/wg86EyX8PhoPv2ZF924evI2OBwBfTtD6l02ltQyaTKe3LSk7T6dc/lu3Ie/qEefFGcM8kQAIkQAIksCYCLxJhf8YWzbH/4QOy2Rym03udB5N2pG130bdt/5m1xjW2yKxaVlorYZZpIhSJoH13h5M/RIQFKMLWdIK5DAmQAAmQAAl4lMCzRNh/yo48/PgRWamETWewe7ZWwmQwv9ezfTiYvxE4ShlGdXNrC6ZpIZ6IIxaL4+bqEhfnZwgGAsyO9OiN4LZJgARIgARIYE0EninClq8jv1tUiE/Y3j52CwWdCRuPR+jZPdzdNaUidvxtsfCbWavEFhlV8QdLJBJIJJNIJJK4umygcXGBYJAibE0HmMuQAAmQAAmQgFcJPEuE/fg6cuWYXyhVUCgWMRoNMRqNMBoO0Wq1/Bdb9KNZq4gwtaiIRFSI3d7c4OLs7Gkwn2atXr0V3DcJkAAJkAAJrIHAs0WYVMIkN3Ilwkp7+9jZ2cVwOMBsOtWZMDGQ7/nVrNUwrWoul9XwbjFsDQaCaN7eoFGvfW9HTiYTfalAi4o1HGUuQQIkQAIkQALeIvBiESYh3vPFAsVSCVvbO5gv5jqYL4at4pxv+28mLFKKB5I6E5bLbWp2ZFJakpIdWa+jfnH+FxEmAkyEGGOLvHUzuFsSIAESIAESeGUCLxBhEcRiUSxF2Bylyt4yO3I4wHA00uxIaUf6N7bItKrZXE7NWldzYXfNplpU/DmYP8F0ShH2yoeYP54ESIAESIAEvEjg2SJMjVoltigSwXy+ULNWeSwos2AyEyZmra12S15J+vB1ZCBwZIoIy2aRNAyEQ2Fkc1k0m0388b//i9APg/mMLfLiveCeSYAESIAESODVCTxLhMk82J/ZkVHttB3+43+wvb2NdqsNx5H8yGVske1nEZbOZHQg3zItGKaBRr2B89Ov/xeLigc8Pn772b/qbwB+/9lv5veRAAmQAAmQAAl4isAzRVgI4fBTJSy6FGF7B4colErahhR/sPFTbJH/ZsIiVimWDH2xLOOTaZowRIClDPUKu766Qo0+YZ66AdwsCZAACZAACbwRgWeJsL9bVEg7UmbCdgt5jMdjDfHu93ryMlJc848nw+Hn6XRaf+3f8d1rLyA/XywqJLbIsiS2KKOxReKav7GxgVaziZoO5gc1OuD+/l5fRvJ15Dr+MlyDBEiABEiABDxFwDURVqzsYXNrEw8PD+qWLxYV3W4Xtt07nvgtwDv+5Jgvg/nyOtKyLASDQchg/vnpKWfCPHUHuFkSIAESIAESeBMCrogwRx3zD7C1vYXFfK7tSBFh7XZLqmLHk4fF56lt+6cSJtmRKcOsrgK8M9ksorEY7pq3+PrPf/5lJoyVsDc52FyUBEiABEiABH51Ai8WYfo6crHAh3/8D7a2tjG5n6DT7mAw6GklrNeTSpgPRZiYtcrryHgiAfk3Go3h+voKF6cnCEh25P2yHTmdTukT9qtfA+6PBEiABEiABNZP4IUiTIbzYyrCKgeH2N3N4/5+oq8ix6OR/uvPAG+xqLDSWgkTt3wZ0Bcx1ry5+YtPmDjm06x1/aeaK5IACZAACZCABwi8WIStHPMPPnzE1s4OJqMR7F5PXfOlEta3u8cPvgrwjlilRDJwZFhWNZORwfylPYWUBJu3tzj7+vV7gDdFmAeuALdIAiRAAiRAAm9DwDURtn/4AVvb29p9k3kweR3ZabfR79nHI7+1IxOB0JFhGloJk7gi8QmLxqJote5w9scfy3bkdAqKsLc51VyVBEiABEiABDxA4MUiTNuR8wX2P3xAbnNL25EymD+SSpjdFUF2PHIcHw3mayXsSYRJJcw0kUln9HVku9PCyb/+hcDGhoowWlR44ApwiyRAAiRAAiTwNgTcEWGLBQ4//gPZbE5zJDudjlbCuvpv/3jkN4uKhLyONM2qZaUh1TD1CXu/gU67hbPTk/+LY/4jHh8ff/ZPTcf8nyXF7yMBEiABEiAB7xF4kQiTMahYLAZnvsDewQEy2RweHx/kRaQKMNvuYtAb+FCEhUJHqWSqKlUwGcoXIRaJRvUlwukfUgmTdiRfR3rvPnDHJEACJEACJLA2Ai8SYRLgLZ/54kEDvMWp4X46hd3pqBCTathgOPBZO9KySvFA6Mi0jKr4g4ljfjyeQDKZxO3tDc5PlpUwaUVyJmxtB5kLkQAJkAAJkIDXCDxbhEmAt1TBliJMKmGH2N7ZwXA4xESii9SstY2+3fNfJUzMWg3TrEr/VSwqxDFfgNze3qpPmIgwDuZ77S5wvyRAAiRAAiSwVgIvEmF/VsIWqOyLCNtWWyyJLRoMBv72CRMRtrm5iVg8gbRlIRQOo91q4fSPP75bVNCsda2HmYuRAAmQAAmQgJcIPFuEyTyYfLQSJq8jP35ELrcJx5nB7nY1yPvu7s6/Zq3imJ/JpNUnLJVKIqHtyNulCAv8+TqSjvleug/cKwmQAAmQAAmsjYA7ImyxwMqsVZzyxahVZsLklaRvHfMNQ9qRWViZDKKRCAzTwmWjjtr52ZNFhcyE3dMxf21nmQuRAAmQAAmQgKcIuCLCFg8PKO/to1AqoW/by+H8bhetVgv9vm+zIyXAOwMrnVaz1lA4hLtmE2cnX1WESSvyR5+wxWKh9hS0qPDUBeFmSYAESIAESOC1CDxDhAUQCoW1FblqR4oI2zv8gM2tLTgyE9br6VxYp9PGoNfzWWyRvI7cCBylpBKWy+pgvpFKIZFM4eqygdrZmc6ErebB2I58rbPLn0sCJEACJEACnibwDBEWRCgU+osIk9eR5coe8sUSRsMB+oOBtiTbbamE9Y+/+So7Ui0q5HWkVc1ls0iZJhLxOCLRGO7umqidniIQ+GslzHEczOdzVsI8fVe4eRIgARIgARJwlcCzRZg4MqxeR67akZuSHTmZYDQeY9Dro9VuYdCzfVgJexJh2UxGRVgykUQ4Eka33VbH/L+3IynCXD20/GEkQAIkQAL/X3tvAuZIVt35HkVoC20hKbP2feulqrpxd9MGbw/P87znDRuDMfOBbYzHxmymwWAbG9uNgcEGAzaYbhaDB4wX/Bg+sM3iWez3mPEyzEDT0Ev1UlVd+16pfVco9PJ/blwpUpVVqaxUKpWZR/Xpq8xUKOLG796I+49zzj1HCKwFAosWYahNDQE2KMKQJwy5S5uNJpUrZRZhV9kdudZEWDSzM55UljCkqIgnEnNiwk54ecL8MWEiwtbCtSLnIASEgBAQAkJgpAQWLcJQpxruyGssYXv30aaNmwh6I1/IE1ZJXrl8mYqF/FcqjrOGCnj73JFTU1NcN5LzhIWRrPUCQYSJJWykg1R2JgSEgBAQAkJgLRIYmQjbvW8/bdmyhQPz8/k8v5GiYu1Zwnpli1DAO0OJRIJrRyJP2LmzZ+kkAvO9mDAE5Utg/lq8buSchIAQEAJCQAgsmcBNi7A5yVqdDu3es5e2bd9OlUqFcrkZ/h8FvPP5/Fdqa9ISZisRNr1xIwfHwTQ4c/Uqr440TWNOigpxRy55oMoOhIAQEAJCQAisNQKLFmHzx4S5tGvvXkIpxWazQfVana5cuczWsLWXJywa3RlPJB9MpZEnLMt5wtLpNEUtiy5dUAW8ZXXkWrtO5HyEgBAQAkJACIycwKJF2PViwhCYv2nzFmo06lTIF9gKlsvl1qII8wLzYQnzRFgymWRLGILgTj5znAt4S2D+yAer7FAICAEhIASEwFoisGgRNq8lDHnC9uylDZs2cZWecqmsXJG5HJWKhbUZmI9krQjMh0sSCVshxC5euEDHnn5KRNhaukTkXISAEBACQkAILA+BRYuweS1hXu3IzVu3Urlc5kStOjB/7bkjM5mdiWD4wVTaZnekbds0NTXNljBkp336ySeuEWFQplK2aHlGsOxVCAgBISAEhMAqJTAaEdbp0P5bb6XpDRup1WjwqshiscjuyFKh+JWK01pbKSoS4fCDtm0/Pzs1RbadZisY1GmpVKRjTz0lKSpW6dUgzRYCQkAICAEhMEYCixZh10vWChGWStlcnQfWsGKxQLmZHBXzcEeuMRGGskVwR27YsIHdkUhPgVQVly5epGNPPUmAJAW8xziM5VBCQAgIASEgBFYfgdGIMMeh/bfeRps2b6ZKuUyVSpVjwq5euUKFYuHLNcd5bSOfP73ceALLfQDsf+vWrTuCkciDiXjyx+y0ze7IeDxO4UiELl+6RKdPniDTkBQV4+gLOYYQEAJCQAgIgVVMYNEibL6YsI7r0s7du2njps0cmF+rVtkdiXelVP5Su9V43YULF9aGCDt4zz0746HQA9Fo7McSiTjFYnGKRMIUCATo6tWrLMK6riurI1fxVSFNFwJCQAgIASEwBgIjEWEBw6Cdu/fQ9PQ0dbtdJcRQyLtSoUat/qVqp/26Iw89tHZEWMwwH4jGIMIS7IaMRKMEM9zMzFXOmC8ibAxDVw4hBISAEBACQmB1E1i0CJsvJgwiDBnzUcC7S0TNRoMFGN61Wu1LDbezdkTY4cP37ohagQd7IiyZpGgkwsMAKxKUCOtITNjqvjCk9UJACAgBISAElpvA6ETY3r2cqYFFWLPpxYatRRF27707omQ8EI1ZPx5PJHhlpBJhAZ8lbK4Ik7JFyz2OZf9CQAgIASEgBFYdgRGJMJN2c9ki5Y5EzWptCWvUal9sUPd1j33962eWm85YAvMP+0QYXJHJRJLC0QgZXkzYfJYwLcI6nQ4DGvL1FiL6gyG3lc2EgBAQAkJACAiB1UVgpCIMCeTxarAlDO7IMjXqtS82umtYhCE9BSxhOjAfZYsQEwYlisA4mAXFEra6rgpprRAQAkJACAiBMRAYkQgzaPfefTRXhCFVBQfm/12D3F9eU5awSMD4kGVZL1CB+UmKRpUIm7l6lU7MI8IkY/4YhrIcQggIASEgBITA6iIwHhFWd3/5scfWkDtyjgjzWcL8IkySta6uK0FaKwSEgBAQAkJgzARGKsJ6MWFzAvPrf9daUyLs8L07IjFYwmIvSCa9FBWeOxIpKk4cV+5IvwgTd+SYh7UcTggIASEgBITA5BMYmQjbA3ekDsxvNqlaqXD5onq9/rfNmvv6NWMJu/PO52wPRQnuyJ/gwPxkkot3sztyZsYTYZ1rYsIcp02djkuu6w47LCQwf1hSsp0QEAJCQAgIgdVHYHQibB9iwrzVkT5L2BoUYXduD4ajH4rFYz/BKSqQrDUSIcMw6MqVK3TqhErWOhiY7zgOYXWkiLDVd5VIi4WAEBACQkAILAOBkYmwXXv2EupZQ2MgDr1cqbA1rFat/Y3Tarz+kUceObsM7Z+zy7GkqNi+ffu2sBX/YCqV+ElULIcljGtHhsN08cIFOnnyBAUNQ0TYcve27F8ICAEhIASEwOomsCQRFovFKBqNkqoduYe2bNnC2Riq1Sq7IkulIpVL5c83atU3nDt3bm2IMMuytlmxxAftjP2TCIJLpzOUzmQoEo7QxYsX6PjRoxQJh66JCRNL2Oq+UqT1QkAICAEhIARGTGAkIqzVatPeAwdo85YtbAXL5/NULBS4nnUxX/h8vVZ5Q71eX0siLPZHdibzU9PTGyiVSrEIQ2XzK5cv0TPHjlEkHPZEGPKEtRgKRBjMhItwR/6Gl6x16OyuIx4csjshIASEgBAQAkJgeQjAewcR9p5hdo+QJ7yhNeB5QxiUtoQ1Wy3as28/bdy0idrtNhXyeSqVSp4Iy32uXqu9sV6vnxvmOEvZZizuyFgstjUai/2hnc78u0wmQ+l0mkUY8oWdP3+Wjh99miKhsOeOrC5FhP2m1zkiwpYyKuS7QkAICAEhIAQmjwA0y68T0buHadqNRVib9h04QFu3becs+RBhhULBs4jlP9uo1X6lVqudH+Y4S9lmXCJsi5VIvC+Zsl82lc1SNpulWDzOcWGXL11iERaNwBK25Iz5IsKWMhrku0JACAgBISAEJpfA0CIM2RfwvpElbN+BW9gShniwWrVKuVyOcjMzVC6XPlOrVN5cq9UuLDeKsYiweDy+KWzF35tKJX8WAgzWMDudJqSruHTxEh19+kmKhEKjKFv0Vs8SNnROi+UGLPsXAkJACAgBISAERkLA8Cxhvz/M3kzTZBEWDAbncUe26cCtt9GmzZvZEoZ4MMSF5XM5KpbKf9GqV3+tWq1eHOY4S9lmLCIskUhsDEci706k7J9HnSYE5yNVBSxhMAEeeexRjgkbQe3I3/LMlCLCljIq5LtCQAgIASEgBCaPAEQY8oH+3jBNU+5Ik0KhARFmWVyw++Chw5TJZjktRaVa5TKKbAkrlT/VatbfUqlULg9znKVsMxYRlkwmp0ORyO8lk6lXZqemKJPJUjptEwp5I1nrkUcf4YC5ZqPBZsElFPD+bU+EdZYCRb4rBISAEBACQkAITBwB0xNh7xqmZRBgpjnXEgbjTyQaZZ1x8I47uYB3pVymQqFI+XyOcjmIsNInWo3GWyuVypVhjrOUbcYlwqaCodC7Ein7VbCCwRVpp1IswvK5PD3x+KMUjUTYEjafCOt2u4T3EK/7iQhmSmeIbWUTISAEhIAQEAJCYPUQCBIRsiC8c5gmwxIGl6TfHQkRhjxhjWaLbvcsYTo/mE5RUSkVP+a0279dLpevDnOcpWwzFhGWSqWyZij0zmTKfu3UVJbi8QSvjoQYKxUK9DgsYZ47coki7O2embK1FCjyXSEgBISAEBACQmDiCISJCAvwfneYls23OlKLMKSoOHTHnaxDCvkCr4ysVivsnSuXih92Wq37y+XyzDDHWco2YxFhtm1nzGDwdxOp1H2o05SybU5TATVaLBbpqSeOUHQ0Igx+YijkxlKgyHeFgBAQAkJACAiBiSMQJSLEfiP0aMHXoCUMmoPdkfC8NVt06+0HyU7bvWStpWJRi7APuY7ztmKxmF/wIEvcYCwiLJPJ2N2AeX8iGX/ThukN7IbEKslgKETtVosef/RRCoeCDKJSqXAJAfyMBGqLTNb6B0T0jtlkbtUlcpGvCwEhIASEgBAQApNFIEZECDtCcP4NXzo9xeDqSGRlgAhrtdt06I47KBSOkNN2OBYMqyRRz7pSLv9hoNt9Rz6fLy50nKV+PhYRNj09nex0u2+NxxO/gSA4uCKxOtJO2VSpVujxR77N7kgIL7gjERsGIeY4bep0FpUx/w9ngcBMWV4qGPm+EBACQkAICAEhMFEEkkT0ttk5/s0LtUrnCfPHhPktYc2WEmHQIsiUjxWShUKeZq7OwC35bjMQ+L2rV68uu5YYiwjbtGlTvNlu/3o8kbgfFrC0naYUsubbNlu+Hnvk25zDQ6+O7IswhzqdzmLKFj1ARL9DRIWFOkg+FwJCQAgIASEgBFYVgbTn7Xr9Qq0etITB+oV3PyasTYfuvJPzlSIsCq5IxIUhYWu1Un5nJBR6z6VLl5bdqzYWEUa03Upna78aTyTfARFm2zbn5kANSZw88oTdKCYMQmzI1596QXvLvqx0yPbIZkJACAgBISAEhMBoCGzwMiD8wkK7u6EIs9TqyIOH72A9AksYJ2ktFvn/SqV8fyEXex/R2fpCx1nq52MSYRTJZDJvjCWT785kpvik44k4Z86H2/GRbz3MGfN1TNhgnrBFiLC/8op7Lnu9p6WCl+8LASEgBISAEBACiyKwlYjeS0QvW+hb1xNhHBPGecJadOddd7EXDpnyUbZIi7BqufIb+XzmA0THmgsdZ6mfj0uEBdPp9Oti8cQfTW/YEMCS0GQqxcH5pWKJnnj8Mc5oO+iO9AfmD5kn7PNE9CtEdHqpYOT7QkAICAEhIASEwEQR2ElEiP3+yYVa5RdhoVCoV7ZIi7BW2+GM+Sk7xdYvWMOKxQJdvXKlW6tUfqVQKDw4jpyj4xJhpp3JvDIai/3x9NR0COkpYAVDQByC74889hihFoHfEja4OnJIEfafiQi+4mMLdZB8LgSEgBAQAkJACKwqAvuJ6ENE9EMLtXo+EYbAfL06stMlOnT4MGdpQGw6SigiJuzqzNV2o1a7r5jPf3w2xnzoWKiF2nO9z8clwgKpdPpno1HrI9mpqRgEGCxhyBfWcTpsCQtQl9NVVCooW9S4JkXFkCLsn4joVUT0xM0Cke8JASEgBISAEBACE0ngdiL6KBH9Hwu1blCE6cB8iLBQOExdCtDBQ4doNocpuyHLpRILsZmZmVqjUX9NqVD489mVmEOV6lmoLTf6fFwiDHFgL4nE4h+bmsqm0+kMx4UhXxheTzz+OLmOw1axcrnCIqzVQp6w/urIIUXY14noF4nokaVAke8KASEgBISAEBACE0fgTiL6BBHdu1DLtAhDigpVwFutjkwmk2z9Mswg3X7wEFGAuHYkhBinqJjJFZq16quLxeL/s9AxRvH52ERYMp1+gWVZH81kspttO0V2OsNmQdMM0tNPPkHNRp26bodFmE5RgZgwnaJiSBH2KBG9goi+OQo4sg8hIASEgBAQAkJgYgjcTUSfIqI7FmrRfCJMuyNZmEWjdOttt7PGgDsSdSM5MD+fu1Sv119dLhT+ZqFjjOLzsYmwVCr1g1Y8/pGUnd7DucJQtsiyWIQdP/Y01SsVtvzBHQkRpmPCFinCjhPRTxPR/xoFHNmHEBACQkAICAEhMDEEnkNEfzH7RmzYDV9zRViIIpEwRSIqJgyfWfEE7TtwC4uwRr3WyxFWKhZO1qvV15RKJcSYL/trbCIskU4/Lx61PpxKpw/CFckFvFMp9s0eP3aUclevkmkYnDG/Xq/frAi7OOvd/HdE9D+WnZwcQAgIASEgBISAEBgnAcSCwU24eaGDXivCIhSNWpRIxKnjupSZnqb9+w9wLHrRiwfjpK2FwhPVRv21lULhqwsdYxSfj02EWanUdyaisQ+n0vY9sIIhUSsC82OxGJ145hm6fOE8YRkpzIIQYcgfpt2RUKpDuiNhTnshEf3DKODIPoSAEBACQkAICIGJIfBviegLRJRYqEUQYXA7qpgwZQlTIizB2mLD5i20Z+8+qtdrnC2fU1TAJVkoPlRp1F5bL5X+90LHGMXnYxNhiUTicDQefyCZTD0PqyMTiSRlshkKh8J07uwZflvRaE+E+d2RixBhWE76IiL64jhWNYyiA2QfQkAICAEhIASEwIIEoFd+jIiQD9RcaOtrRViELMviskWNZpO2bt9B23bsYEsYkrUiOB//l8ul/96oVl9XqVQeX+gYo/h8bCLMtu09Zjj8gJ2yfwSuyGQy1cucf+H8eTr5zHGKWRZXMa/VlCUMbwiwRYgwMPl5z2fsjAKQ7EMICAEhIASEgBBYcQLB2RygP0NEnxymJYZhEN59S1iEPW+whNXqddq9dx9t2bqVQ6BgASuXy5yiolgqfrnWar2+USyeGOY4S91mbCIsFottiVrWHydt+8W2rZK1YqloMmXT5UsX6dhTT7GvFiZBf0yY46g0FUO6I8HjrUT0ASJa9ppPS4Uv3xcCQkAICAEhIASGImB5FXHeNczWWoQFg0HPHaksYQiFQtjT/ltvo42bNsPyxTnCYAVDxvxysfy5Rr16X61WuzDMcZa6zdhEWCaTsbuBwAdTtv1zKVjBMhnKIDbMtlEmgJ48coTsFKqZl6hWq/UC8yHCXNelbhfvoU73Y0T060RUGmpr2UgICAEhIASEgBCYdAIpIvoDLyH7DdsKV6QOzPeLMFjCIMKQCuvWg7fT9IaNHA+WL+TZGgYjUKlY+rNA131DPp8vjgPI2EQYEYVTmcz7ksnk6+x02kjbaYrHE5yqAi5IlC5KJRMMQYuwQXfkkNawLxPRz82WL5oZB0A5hhAQAkJACAgBIbDsBKaI6NNE9CMLHUmLMB2YjyLdSNTaE2GVCt1+6DDHpqNUUbVaoUKxQMV8wS1Xyh8p5fNvRiXFhY4zis/HKcIolc7en0jGfzOdTkcREwYrGNJVOO02PfboIxQJhViAwUeLwHyIMO2OhDVsyBdWNPw4EV0acnvZTAgIASEgBISAEJhsApuI6O+I6DsXaqZfhMESpkUYQp4sK0bNdpsO3/EsCoZUySJYwzgmrFBoVMqV95QKubePa3HfeEVYKvW6eMp+RzqdzmKFAucKs21yOx06cuQIUQelixz21+qs+f6YsCEtYWeJ6Ltmyxfhf3kJASEgBISAEBACq5/AdiL6n7Nli/D/DV/ziTCVLT9OoWCIuqZJBw8e4sB9nSMMxp9CoZCvlor3l0qlBxY6xqg+H6sIS9j2SxLxxPtTdmp7LBanjJc5PxQM0pNPHKFKqcRQ/CIM+TxgBVNxYUMFhbVm84g8i4ieHBUk2Y8QEAJCQAgIASGwogRum80D+m2ENi3UCr8IQ44wWMJ0ySLX7XLd6tsOHqS2Ln+lUgAAIABJREFU47A7Mp+bYS9cqVg6W6lW3lwpFj+70DFG9fl4RVgi8TwrmfyYnUrdingwuCOxShKpKY4ePUqXL17gnxEX5i9dtEgRBjZwRyJXmLyEgBAQAkJACAiB1U8A8/rfDnMa19aNVIlaEZSP7AsbNm2mA7fcysILRbvhkkRcWKlUeqpWLr+qUqn892GOM4ptxi3CDkas2F/Y6fRdyNWh0lSkKBaP0ZnTp+nkiWcoY9sMZAmli8DlnUR0/ygAyT6EgBAQAkJACAiBFSeAef23h2nFfHUjIcKwELBQLNKuPXtox85dVKtWeaVkPp/TRbwfbtZrP1OpVI4Mc5xRbDNuEbYxFI1+Pm2nvyeeTHLm2qlslk2DqB155PHHaSqb4XwdfRGG4PzOYtyR4ILgvReMApDsQwgIASEgBISAEFhxArCCwRq24AthTTpjvg7KR44wGH5mcjm6/dAhmprewMH4+VyOFwPi52Kx8C/tRuOFlUrlyoIHGdEGYxVhBw8eDJ89f+Fz6UzmR5PJpIFkrSp7fpJKhSI9/vijlE6l2B2pV0giJqyfK2yomDCgeZqIbh0RI9mNEBACQkAICAEhsLIEniKiWxZqgo4Hw//+lZE6PUWhWKKDh+8gO20r4YVs+cgPViq5hULhSwf27X3xQw891F7oOKP6fKwiDI1OpdIfSKZTr7HtdBjiCz5aZM3vuh361je/SaGgyakpBtNU6MD8IYPzAXAjERVGBUr2IwSEgBAQAkJACKwIgTQRXSai0EJHH0zUGg6jeHeUc4RFIxFqOh36jrvuJsM0PfGl0lMUi4VWuVT6SKlQeONCxxjl5ysgwlKvjSWT70ml7AREWDyhEraiePfDDz9MzVqVaz3pFZLKEtamTketjhxShIGRBOePcqTIvoSAEBACQkAIrAwBFO5GmNGCL78IUysjlQhDHDpKIEZiMRZhWPzHiVorFSqVy1QuFSu1cvktpVLpwwseZIQbjF2ExePxH4gmkp/N2HYWqyORsTaZgkXMpiOPPUpXLl1kWAjOX0KuMCD6EBHdN0JWsishIASEgBAQAkJg/AQwn//yMIfVQfmIC4M7Epny8UZO0kqlStObNtKhw3doF6QKyC8W8c7VK+WXVKvVfxzmOKPaZuwiLJ1O7ybD/Fomm9mElZEIyoclDFax82fP0rGjT1PatlmhIjgfrsmbyBUGPg/PKue7RwVK9iMEhIAQEAJCQAisCIFvzqanuGuYI/tFmM4RhqB86Ix8sUgHDtxCW7dv1xnyWYQhY34hn79Ebue5hULh5DDHGdU2Yxdh8Ona6cxD6Wz2Dli8kqkUK1TO31Gr0Tcf+galEgkGNJimQrsjh3RJVolon5QvGtVQkf0IASEgBISAEBg7AZQrOk5E8YWO7A/KR1gTRBisYBBhvACwXKG7n30PWbE4LwCEBQxB+RBihXzu0WI+fw8RjS0oH+ezEiIMguvTyXTmZyG8kLQV7kgIMYOIvvGNb1DQCPCKSATnwxKmC3nrpK0LdYT3OUD+wqwQ+/Mht5fNhIAQEAJCQAgIgcki8PLZUkWfWGxQvl+EIR0WXJOO69I9z76XkGeBBVi5TNVKmUqlMpUL+U+XSqWfG/epr4gIS9j2axLxxIftdFqJsGSCSxgB0mOPPELVcokVLAD5C3kvcoUkKn7/KRH90rihyvGEgBAQAkJACAiBkRD4E8+gAjvNDV/XrowMsyUMVrBWu02JZIoO33EHL/TL5WaUCKtWsTIS1rDXVIrFjy50jFF/viIizLbte8xw+OvZTDaApK1JrJDMZLi204njx+nihfNzyhfBEnYThbzB6n8T0Q/PBujnRg1O9icEhIAQEAJCQAgsK4EsEf09EX3nMEe5dmWkqhkJr1utXqfNW7bSnr37qNFsIAaM3ZCcsDWf63ZarXuLxeJDwxxnlNusiAjbsGFDouV0TmSy2WnEheGNlZLI41HI5ej4saMUCYdZoS4xOP+sZwlDJ8pLCAgBISAEhIAQWD0EYESBJWz7ME2+XlA+3JHNVpv27d9P6WyW48/hjoQIwzufy10NB809V65cqQxznFFusyIiDCeQSqe/aKczz+fg/GSKUnaKg+dCwSAnbXU7Duf00ElbYQnDG0H5cEsO+aoR0fuljuSQtGQzISAEhIAQEAKTQ+AdRPRmIooN0yRdrgihTTo9BQQY4sMCZpDuuvtuajsONep1KpYQlF/2akbmv1wqFJ4/zDFGvc2KiTCOC0skPoz8YICE/xGcHwwF6YnHH6NKuUxBZLT14sL85YsWIcIQf/dFzxp2adTwZH9CQAgIASEgBITAshDAqkhYwZCodSitAhGm84PplZGIB3M6HU6HdfDQYWq3HU+AwRJW5VWSlXLlvkqpgFxkY38NdWLL0apsNnsoYJrfttMZU4mwFBfXtKwYnTt7ht8QYTpzvo4L0yskh0xTgaZjaesbiOjLy3Eesk8hIASEgBAQAkJg5AR+hIg+SET7h9mzjgeD1UvXjEQ8GLxtEGFbt++g7dt3UK1eo3w+z6kpOCi/UHA77dazC4UCcouO/bViImx6ejrZ6Xb/xU5n7ojFY2Sn0oT/U8kk1es1euLIEU5ZgdWRtVqN01To4Hy9SnJIWq1ZFf12InofEeFneQkBISAEhIAQEAKTSyBMRL9KRG8jIvy84EvHg/lFGOLMw2F8PUC3HTpIlhWnUrlEtSpiwgqsLUqFwlPUdb8zl8uVFjzIMmywYiKMiCLZqak/iCUS92HZaCIep1g8rvKFBYgee/RRch2HOsgXVqtSs6ky50OILVKEAdt/8UoeHFsGhrJLISAEhIAQEAJCYHQEDnilB39w2F1qV6TODxaORCgei5EZDPL78B13UrdLVID4qla9oPwyVcvlj+VzOXjLmsMea5TbraQIM7LZ7ItDkchfpmw7GIsplyQKekfCITp96jQy2FLXddlkiDqSNxkXBl5IUYEkbF+ZDdIfOqp/lKBlX0JACAgBISAEhMCCBOAEgyvy07PuyMyCW3sbQIRBgGkRBlckQp0ChkHpTJZ27trFHjUuU1QqUa1WRbkit9VovDyfz/81EXWGPdYot1tJEYZaTs8KRSKfSyRT+6NeWQEIMZgQi/k8nXjmGTKNAKepwBsi7CbrSCJAH4lbYd4sjhKg7EsICAEhIASEgBAYGQHbCx9CxZuhNIo/HgwB+Xgj2wLebrdLu/fsJTuTUe7HUokX/GGFZKVcOtluNl+0UvFgIDbUCY4M7cCO4vH4prBlvT8ei/90PBGnpLdSklcztFt0/OhRtoTBCgZ4iA+DCEPqiptwSV6ddUt+FxGJS3K5OlT2KwSEgBAQAkJgaQRQ8/lrRDQ97G4MI0CBgLKE6VWRMObAGgZL2L4Dt/DfUZ4I4U0qKL8Ct+RfN2q1N9VqtQvDHmvU262oCEPAXTqbfW0kar03mUwGAQ3LSBEXFgqG6MzpU5TPzxC5XTYhahGm48IWkapCc0Nw/q+NGqLsTwgIASEgBISAEBgJgfd6XquhdzZfaopEIk4UMCidnaKdO3dyfjAkaK1WKhziVC6XO81G/S2FXA6pKVZs0d5KizBK2Pb/aUWsD8cS8VsTyQQlE0leUppMpSg/M8PZ86ORiDIfNhrs09XWMKSpWESqCnToFSK6k4guDt27sqEQEAJCQAgIASEwDgKbiegRItow7MGu54qEjmi2WrRv/wHKTE15iVnLnIO0XIEVrHKs1mi8plos/sOwx1qO7VZchFmWtS2WSPxR1Iq9OJlMBlBsE/nCIMIgsJ5+8gleIdniVBVqlSSEGFySi8yer/kh78ivzC59RZyYvISAEBACQkAICIGVJwA98oHZhXT3LaYp18uSj9WRRjBIt952OxkBg0qlIhUKBTbmlMvlbr1e+0K9UnlDvV5HecMVe624CCOioJ3JvDlqxX4rmUwmIcLgkkyn02wRO3PqFCdutaJRNiXCJelP3HqT1jDUoxp7oc4V62U5sBAQAkJACAiBySZwj1ese9FWMJ0lHznBotEIV+CpNxq0bfsO2rFrF7sg84UCW8GgIcrlcqVRr/1+MZ+H67O9klgmQYRRMpn8rkgs/olEInEwEo1SzLLITqcpbaepXCrS0089RdGIKui9xMStYI0UFX9ORL9IRM5KwpdjCwEhIASEgBAQAhT0Mhj8DBHnaV/wBTckXvjfXysSKyKRmqLRbNGBW29lQYbcYDDioHA3LGHVauWJRrP5S+V8/p8XPNAybzARImz79u1WuVr9q2Qy9eNWPG7A6gWICNDH6oajR5+m3JUr/DOWl7ZasIapxK3aErbI2DCYH3+ZiP52mfnK7oWAEBACQkAICIEbE3jB7GrIB4ho+7CgdCyYFmFY/QiNgOwKEFrZ6Q104JZb+OciVkNWKirTQrXqlsqlLyUs66Xnz5+vDXu85dpuIkQYTi6VSr88GrM+lEgmUzApwhWJnGFQsTNXr9DRp54irHbwB+jrMkY34ZKENezzRPQqL5HrcvGV/QoBISAEhIAQEALXJ5Aloo8S0U8OawXTFjD/qkjoBljBIMJK5QpbwaY3bEBCVlWku1JRyVrL5VK9UX9DuVD41CR0ysSIMOQMC0YiX02l7NugZrnwJmLDbJtLDjz9xBNUrZQ5D4iGqTPo36Q1bGY2Q+7veCbQFVueOgmDQNogBISAEBACQmAFCKCwI5KyvnO2TNHUsMe/1goWpHA4wsYbLNqLJZJ06+23UafjcjB+pYLkrA1qslWs+JTTbH5/tVqdiCwJEyPClDUs9TYrkfxduCIRG4Z6klglCbAzV6/SyWeOUzgU4riwwQz6N2ENwyH/xXNLfltWSw47/GU7ISAEhIAQEAJLJgD98SzPDfk9i9mbFmH+gHxYwZBrtNVu0+69e2l6ekOvRFGlWmUBhpqRtUr57bOWsd9dzPGWc9uJEmHpdHo3meY37JQ9FYlaFIvHGCpWSkJ8PXnkCFvD8EKQ/hIz6GM3WBXxEc8itiIV1Jezc2XfQkAICAEhIAQmlEBqNjvCf5jN2/lqIgotpo0QYbpWpM6QD+MNXrFkkm6//XZqtx22glVrNRZfEGGlUnHGdZx7i8XiicUcbzm3nSgRhoUOqVTqfbFk6k2xeJyTtEKE2XaabDtFVy5fppMnniEjoOpJ6uStS8igD7YFInotEX1mOUHLvoWAEBACQkAICIEegZfNJmV9cDY3WHoxTOazgiF8yV8ncsPGjVQslqhYLFCtjhWRTWUFK5f+qFQqvXmSPF+TJsKwInKvGQo9HE8kUww2ZnGqCrgn8fuTRx7nxK1upzMqaxj6H6sln0tE5xYzGGRbISAEhIAQEAJCYNEEsAryfy5mNaQ+wvWsYLCMhaNRuu3gITbQwPIFS5g22FQr5VKn3b67WCweX3Rrl/ELEyfCvHqS77Gs2BstrwBnIpFk12QykaCrV6/S2dOnyQjQHGsYgvF0Fv1FpqvQeB8mou8mosYy8pZdCwEhIASEgBBYzwQsLx77rsVC8JcowiI9vSISBhq3S7R9506anp72yhLVOCAfSVsb9RrVa40PFHJX37KSdSLnO99JFGGBZDL73HA0+LlYIrE1gmWnsRinq8DSU6jd40ePUrNR53JGiA3DstMlljICG6StQHzYb82WNSoudnDI9kJACAgBISAEhMANCdiz8V/vIqLXLCYdhd6jLlGkBRhEGGLBkKw1HLVo/4ED5LoulcplTkuB5KzQBrVK5Xyz4by4XM59bZJckTivSRRhcElmAqb5tqhlvS4WiwdRA4pXSiYhxBKUz+Xo5IkTFAqaLMLmiw27SWtYzgsU/PhsFfeKXExCQAgIASEgBITASAgkZkN+Xjlbqea3iQi5wRb10m7IuSWKopw9odV2aPeePZTJZjmXKN5YEenVnO406o0HXaeNVZGY4yfqNZEiDOLQtu0fCEWtP47FrNuR/wPmRijedAYrJcN08plnKJ/PUdA0Gfh8KyVvUogd81ZLfoGImhPVW9IYISAEhIAQEAKrj0CEiF7o5QPbv9jm+4PxYQXTKyLhIWs7DmUyWU5LgfQUhXx+jnGmVqs92W7U7ysWi//oebwWe/hl3X5SRRhls9mUS/R2y4q9JmpZkRDcktEoZ9C30zabGZFF3zQCytxYQ8qKFpcy8seG3YQQg1vyMSJ6ExF9dVaQdZa1B2TnQkAICAEhIATWLgFzdi79/tlUoH9IRIcX64ZUAgw1Ig0OR1ICLMyZE2Cg6bhdOnDrLWTF4lQsFKlULqk8oq0WNer1Zr1e/1ig696fz+cnMsxoYkUYxmMqlXpOKGp9PBaL3RGJREi7JVO2TXYqRSeeeYbOnT3DrkpdzqjdbnF+EPiFbzKBKw4NIfYkEb2EiB5fu9eGnJkQEAJCQAgIgWUlcIiIPktEty1WgKFVfisYBJiuEQkrWLlSoW3bt9Oevfs4JUWpVOy5IeEdq9Vqj7fqtVeWy2WsxJzI10SLMPBP2vZ/iMcTb4pEo1GkqYh5taFgETMMoieffJLKxSIhgB9CDFaxJZYz8nfUKS91xaVJC+abyNEkjRICQkAICAEhoAhAX2z2UlHsuhko87khEYyPRXrNVouStk233XobW02KxSJrgHqtTs0mp6hoVKuVD5SLxbdO8vw96SKMrKmpbRGXvphIJe+C6REWsUQywfFhU9ksV0Z//PHHyED6+3abSxppIea3ht2EW1KPmWdmrWE/RUSPzAYUOjczkOQ7QkAICAEhIATWEYEgEd056378HBHtuZnz9teH1G5ICDC4IWENQ0qKg4cPUSKZopmZGY4Dq3jx4a1WEz9/ywwEnj8zMzPR+T8nXoSh8xK2/eJo1Pq0FYtZsHhxgW/Lokwmw67I06dO0eVLF8kwAqyC9WpJxIZBiOFN1KVu92aGAuFbEGDIL4IYMQnWvymM8iUhIASEgBBYBwQQhP88InqvJ8Ru6pTnywmmM+MjDmzT5s20c/cuqlSqlM/nuUB3o1FnI0y9Xqu36vWXF4tFiMCJfq0KEUZEkaRtfygWj7/SsmJsDcMbsWHwCztth8sZ1WtVgtKCNWyEqyXRgQjOR7D+u4no74ioNtG9Ko0TAkJACAgBITB+AjEi+rFZY8VvekH4CMpf9GuwNBHygGHOhxUMUfqxWJx27dlDwVCI84GVikWe8/FGUH6tWvl4uVh8/WowmqwWEYYi3rsDwdAXYrHYd0QiUW91RJxSdoqsqMWFvU+fPkXdTmeOW1KvllxioD4GEcxpKPr5QSL6j6ghvuiRJV8QAkJACAgBIbA2CaCC9i8Q0X2eCxJRQot++d2QEF+ciNXnhiTDpJ27dnF+MGTDLxVLvewIiAWr1WoPd532iwqFwslFH3wFvrBqRBhWVdi2/aJgJPrJeDyegCqORi0O0IvFLErEUdLoCp04fpwsK0qVSoVNk4gTw2rJJaat8HcNlrn+mZfCQtJXrMCglUMKASEgBITARBGAxQspKF6BxAY32zK/AEM+MAgwxH+hOHc8nuBQo9379tL0ho0cD16r11VmhDqC8ZuIC6s0m+1XVIo55PmE4WTiX6tJhMEalibDeFs4En2DZVkBWMRQUxKKGCkr0FmnTp6k8+fOUiqZ5NUS6DQIscHakksI1Ned+tBsrNiLvOLfq6KzJ340SgOFgBAQAkJgNRGAtWuHF4D/7KU0fFCA6aSsiAOzbZtLEW3dto127t5DTrtNxVKJA/Fr3mrIer3ebTUbHyDXfUcBlbtXyWtViTAwTafTzwoEQx+0LOv7IpGIgQB9JHGFRQyFvpG24tjTR6lYLFA4FOIVE/74sBFaxNAcnV3/P3v1Jm8u9H+VDBZpphAQAkJACAgBL/0E6kD+0M1mwfdTHFwJqS1g8HghEwIy4dt2mvbfcoBXRUJ86dygcEk2Gw23Xq/9U9dx3lAoFL69mnpo1Ymw2Q43U6nUT4Ws2O/HLGs3codFvY6KJxIcuFevVunEiRPUbjUoQIFeoL6ODxuxELtCRH9JRJ8mokcljcVqGv7SViEgBISAEFgkAaSfuIOIfnbWEPEzRLRhkd+fs/l8FjB/ID68VqFIlPbs2UNWPM7zOVyRqA3ZhABDUtZ67VS7Xv+NUqn0n1ZblZvVKMJo06ZN8Xqz+eaoZf26FYvHOWjPsliAJVMpTmFRq1bo+LFjbLbUKyZ1/jCdukJn1B+Ba7JFRP+LiP6KiD7jWcWWMi7lu0JACAgBISAEJo0ArF8vJaKXEdFziCi8lAYOWsC0C1IH4uNzMxiiffv3UyyhYsLKJbggqxwPhgLd9Xqt1qjX32NFIu+/dOnSqlswtypFGDo9kUhsNELhD8Qs66VwSar8ITEVpJ9MUjwWo6tXrtCpUyepi1xhnQ4raJ1NfxlixNAsWMX+dTZL8EeJ6B/EKraUy1O+KwSEgBAQAhNCANavf0tEryai7x6F9Qvn1c8FZpAKxFdliWBQMUyTAoZJu3btoukNG6harVGlomLA6vUaCzIE5Nfr9c902q03ViqVyxPCalHNWLUiDGc5NTW1reO6fx9PJO9AXUm8ka4inUlznBhMmpcuXqTz585RKGh6SdzUisllck2iWQjSvzg7UP+rl6zuyKJ6RDYWAkJACAgBITA5BG6fTcn0a7Plh37QK0N0U6kn9OlAeM0VYCaZptETYFgJCUsYshps3b6dk7JivoboyhcKnAcMFjC8q5Xyo6Zh/PCkZ8W/UVeuahGGE4vYG/fGgu6/WPH4Zu68UIgD+bCagoP2I1E6e/YMnTxxgpIJ5U/mCuucuqLN2fRhFcNrhO5JzfyqZxXD0l2ktpBVlJNzY5GWCAEhIASEwPwEILTgenyzZ/2aGgWo+QSYLkmkU1HACobC3Lv37KXt27dTvdlkixeyHWChHYL08XutWr1Yc4zvaRYvo7Tgqn2tehGG/GHJTOZHw6HQRy0rvpWz6sZj7J5MpuCWjFPIDNKZM6fpzOlTXOYIiprVdKtFnQ5yiCkhpsob9cXYCHv1AhH9CREhaPC8CLIRkpVdCQEhIASEwCgIaOG11auX/EtEtGUUO/ZbvmAICwQMgvjSucBg+YIRJRqNUKVaox07d9GOnTup7TgQW5wVv4EAfC/bQb1ev9BpNV9dKBS+tNqNG2tBhKlA/VbrFZFw5LeilrWFyxpFoxwXhvgwJHLtdl3KzczQ8WNHWaAhYL9vEXPIdTvXJHQdQcD+4PhFIVEkkftHbyXlKYkbG9UlLvsRAkJACAiBmyCAeK/dXpmhHyCiFxLRtpvYz3W/4g/A52B7Ey5IlYw1HFbJWBEPVm80ae/+/Qg1YqFWqVY48TqnmmqgLBHHgV1stprvssLhT67GQPxBSGtChOGkksnklBkKvTYcjtwXiUankU0fHQurGKxhUNjJZIJOnjxF586c5oBABOwrixiSueLdt4gtg2tSs0cuMQQQfmM2x8rXvFWVDxMRXJfyEgJCQAgIASEwDgJwMd5NRM/1Vjoi2epGLwfYyI4/uAJSW8DgfoQFDEaRgGFwONC2HTtp967d7I6Ex6qKVZDVGtUbdWqqAt0zrVbzjzvt9oPlcnlmZI1cwR2tGREGhlgxaYYibwpHwq+PxWIxWMMQoI9in4gTSyQTZAQCXN4ImfUhwgBArZps9cobwS3przWpBdky9FNztswD6lsh6evXieirs8VPkYm/sgzHkl0KASEgBITA+iaQIKJ7Zuea7yeie4lov2cFi4way6D1S4kvuCG1BSzMqyBhlYAI27VrN01t2MBirFKusACDBQxiDPnAarVardVqPug0m++vVquXRt3eldrfmhJhgMiljSjwjrBlvV6nroh4/uZMNssDIB6P0dXLl+nkyZPUcdoUCgZVwF8LQkyVOPILsREU/16ofzEOa7P1KEveysp/8lyW+D+/0JflcyEgBISAEBAC1yGQnU2Z9L1EBFfj93krHFHfMTZqq5c+/nzWL38MmM6Ej5gvMxik3bv30PTGjWz16rgdyudyXJwbiVghwNhjVa890O127y8Wi2tqTlxzIswbBGbctj8Wj8X+vWXFArCIccA+VksioWsySUEzSIV8jvOINet1rj+J4L9Wq+kJMZeXxfoFmP55jJc6ksDCQvbfPFEGt2Udawe8NkiZpDF2hhxKCAgBITChBPRcjv8tIrrLy+v1fxER3IxLSqq6mHOGAIPg0kIMPyP2S6+CxFycSqU44z3qP+/avZvSmQw5nQ5bwHQiVi3AGvVat1Kr/cdqsfiq1ZYNfxhua1WE4dwjqXTmvVHLeoVlWUlYxSLhCIutUDjE/8MXXSwU6OyZ01TM59llyQngGg0WYIO5xAZdlMMAHvE2EGDIO/bI7OqVx703gv2RJbhBRG0igosT4g0/q9wb8hICQkAICIHVTMAkopAnpuA6xM/R2VyUcSLaTkQHvcD6w7Or8A95Qmys5zto/fIH4CMIH/FfEGCIz0biVTuToe07dsJ7RY1GkxOxIv0EhFizpdJS1Ov1cqNe/1SpkEeeMsxta+61lkUYLF7TRjD4q9Go9e+jlrUBAwDB+vhfZdWP88qMVrNFZ8+doSuXL1PINHmlZLPZYvek4yj3JIL2xxgrtpiBBgEGIXaGiOAnR6JYpMTIeakw4OaEeMMb4kwLNAxoxxNr+BsEm34jVwfefoubWN0W0yuyrRAQAuudAOZXv4UKKSDwhqDSb1iosDoRokqLK/wNb1i08IbbEDm74FZEygi8EUC/w1vFCCG2Yq/5Yr+061FZv7ACMsLzLn6HxWt6w0bavmMHJ1jHPItwIBTlxryLbPiwgjXq9SuNRv1PXcd5f7lcXrML19a0CMOojMfjm0LR6CtDwdDrorHYZhT75hJHsRgLMggx/A/hBT/06dOnyGm3yDRUhn0siUXmXl3maL5YMRxnGdJZjOKigrgq+95ajMFqhp8hxPCztqJBlOGtxRiE1+B7FO2SfQgBISAE1jIBLcD8/2vhBdGlhRdEFgTNst6vAAAgAElEQVQXrFoQWxBiWnwlsfDfe4/NnThsp+jEq4OuRy3AdAoKzLewgnVcl4KhEOcAyyI+2zSpjmLcXgJ1/Kw9UY1G/aLTbj/QajQ+sZaC8Odju+ZFGE46lUplA6b5klAo/LaoZW3mTPrRKIXCYRZhqVSS61UhdgxuSWTYh5vS9PzagzUnIdhct3uNZUwDnlBBNuy1JdsJASEgBISAEJiXwGDWey3C9MpHLb50BnwkZ3Ucl1LpNFu/0umMZ9xoU8krxg2DB4LvlQirX2y3Wm/vdjqfLZVK8Ois6de6EGFeD1q2nf1eIxj4s3giuQWCCwqdXZRRi2PEkFMsFAyR03E4u/7FCxeo027zMlpeJtvUQfsqsau2ivkD9v3pLESMrelrR05OCAgBIbAuCCiXI07VX/cR6SZUEP581i8YOmDlMkMh2rxlC1vAEKCPDAQwbCD2i/N/wfXopaGoVsoXXKf7c8Vi7p89b82a57ueRBh3ZjQa3RmxrL+14vHvUIVCIcKibAlLplK8clLXoDx39iydOn2KSoUCZ92HZ+5aq1g/VmxQjOkySGt+FMkJCgEhIASEwJok4I/5wglqy5dffOkVkCr7fYwFW6VSo2Tapp07d3ENSATd12t1zoBfKhVZjCENBaxgjXoNJYm+1azXX9BoNE6vSZDXOal1J8LAIZPJ7OyS8c5INPLCSDSaiEajAbgmIcYgwthd6VVy7zgOuyfPnztPXbfDOcWQ2BUBhHoFpSp5dP3A/WVM9rqexqqcqxAQAkJACIyBwKDL8UZ5v0wz6AXfh9mYgcB7JF/dunUbux+RB6znbqzXqVwus/hqQ3w1Gt1mo1FpNppfCJD7O/l8fl0JsL5tcQydOmmHQMB+MBz+xVA4/PORSHRPOBIx4JaMWlEWYPoNNyWy7OcRK3YGsWJ5/h3CCpYunc5CuSeVGNOf9S1jXep2+4XBxU05aaNB2iMEhIAQWN8E/MKLxQG7INVbW730z/7ajwjpwe8wf3Xdrpd6Ygfn/uLs95UKx3vpN8d91dkN6baajZPNZvOTnXb742s9AP96o2tdWsI0DBT+bjQaPxSMRF4TCoZ+ACsmsWSWV3OEQhwLhqRyGICwjrmdDhUKBTp39gz7s+GeBECIrcFs+xBlWoz561AOxoyJIFvfNz45eyEgBITAShLQQssvvAbdjjrn12DdR/yucxch7dO27Qi8T/PKR4gtzIOwfNWqVXY/6thqrIRsO87/6zQbH4lGo3+/Fgpx32wfrmsR5kEzE4nEbaFI5OXBUOhV0ahlI2gfIky7JBOJJMUTyCkWYbMr5zQplejMmdO8xBY1KNkM67TZTYmUFsoq1g/eh2DDisobCTJ/J4o4u9khLd8TAkJACAiB+Qhoa5cWXIMWr/kSrs7N+RXixWw6wB5uRxgvduzYSYlUihOeI0yn1WxyRnzO/aXcjtr9iNWPRafV+pN2q/vpSiX/xHpPKi4izBup2Ww21e12nxcwzfsjUevZeuUkL7ONxbjkEaxhiBnDQEVqi2KxQIV8ns6fP0/lUokC1GXhpmPGdB1KLcZuZBnTout6/8stRQgIASEgBITAsATmE1zzia+5Vi+4H1XJIbgYBy1fyPcFtyKsX1jItmXrNsRYk23bvBJSFd8u8zY1uCBh8WrDOOHVgGw0Huo67XcYhvHVXC6HWsnr/iUibO4QCFhTU1tDrvtb4VD45bF4PI6gwpgV41JHOk4MbkoMRvyOwQp35Plz5+j8ubOUz+XZWpaIx9kSptNa6DqUwwgyNGkhMSaWsnV/7QoAISAEhMAcAtezdPnFl190+WO+/PFearWjqfJnejFfKDWEFY6ZbJa2bttOW7dtY5GGuYhjvFotzh6gY7/arTZnv8fcV6tWq61m69PtoPGu+szMeV81lnXfgyLC5h8CoWQy+aNmOPKbMSt6KByJxjEYo1GktAj3BFg6k+49LWBlJcTY5UuX6PyF82wh63Y67MKEKxKuSsfp+FZUzl1NOViX8nqxY4Piy/+7CLN1fz0LACEgBNY4AX++Ln2qg+Jrvt/nKy/kD7rXaSbgatQJV2EVQx1HwzA50H7r1q20YdMmFl+NeoPcrsvGBsRKI/1Eq9WkVguxX3W2gLWazWq9Xn/MaTV/v1wuf8Urk7fGe2hxpyci7Aa8EonERiMYfFU4HP2JSCR8WzgSiSGVBZ4MEDPGRcG9ZK/aKmanbbZ+lYpFunLlMuVmZtgkixWV2moGsaTLIA2WQ/KLsWFWV95IhN1IsC1umMjWQkAICAEhMA4C84msQUvWQhYvf3JVLbQGVzoqVyPeSnThrbfl0Jlul0Nxstkpmt6wgex0miLhCBVLRV4FiUSrEF4QabB+eaJLCbFmq9Zstp5stRp/4zrOxyqVyuVxsFuNxxARtnCvBWzbvtsIBl8cDIZ+NBKJQIyFQiFYxJSplsVYOMLB+8gjhhWW+DsGcqlUYkGGN2LIkBsFgfz4TF8U+B25VWApUyWRlJVsMNXFfEH9frfl9UWXSpHhf823Ldoj1rSFB4RsIQSEgBAYBYHrxW1dz8Ll//t8qxqHsXZpVyPEl3YnqvnIoIARoGAozCscU3aKUnaaMwRgvzAuQGBh4Vm1UmXx5aWaYOtXq92idrPZbjabTzpO+8uu43yuWCx+U1yPNx4pIsKGvJKmp6eTnU7nWYYRfL4ZMl8aDEd2ohg4CpLCVRmGKIuoZHUcxO8VCUf9ScSVcXbgWo195hBmqE2JLMGwhJHr8jacawVLRViQOSyI/Cssu10IM5USY74gf3zXL9T0qfldm/5tBkXZoAgTQTbk4JDNhIAQEALXIeAXWv5NBv/uF1Xa8qWtYnpbv8jqb6PyePktXoNZ7bWrce4c0yGC6DJNiloxtnRBcCHmGRYwzGUdp0Mdt8NzF1Y4aosXC7J2m+c1B6knmk1yWq3TnbbzGdd1vmSa5revXr1alkGxMAERYQszmnPdZLPZZDcY3E2dzstMM/iKSDS6CYOV34gXC0GIBbkYOKxi8USCBzle+BmDFtAhspqNBuVyOZVHpVbjZb3IRYYLBvuAbx4XFrZVGfn7aS+ut9JSl0rqC6/5E8XOH/i/sMVsLq5rt18czvWyNcyQcqmtl96W81w/BPSD67BCa9CSpYXUfBau+YQXRJlevdh3L6oVjSqhqhJkamWjyXMI7vWYQzD3IE0ScnhxGE0sRsjtNZXNUjga5W3xQv3kahV5MIk9NNVKha1fzWZDuRw98YX5iuexZuNSx3E+Rab5VwHHOZnL5SC+Bnwv62dMLPZMZWZYLLH+9qZlWZvD0ehrg8HQz0ei0S0cKxYOc8kGDGiIsEhEFQmPRMPssvR/DrdlvVpjCxoGcz6XY7clRBmyDMN1CUtY0IQoC/F39YUCseWPJxvGdYmmDwb841rRrsq+5asv3K6HR7tT1ec3J8bm7uPmO0J/c5j9+a1717txDteSvrBS/JR7eTheA1LW6wD9/f55+I/R3/98x9PfwWeqGfMJv/n3d22b9f1zvvNR+5jbRowrlWF7/uP2euiGYnSY/huub/T5+9s1/DdlSyEwDIFh7x9+MeUXW/pniCb/3/X2+u/zuRj9li4dz6W35zxdLeSrbPPDO0QXVvcj3yVSLMHNmM1myQyG+MEfYgzbs/eFE4+32dUIIwGnlmg2kViVUMJPJybH9xqNxkXHaX+yZRgP1mdmLq73fF/DjJn5thERdrPk+t8LZLPZbe1u96dDwdBLw6HQjohlpUzTDMICBvGEi0C7LiGklKBSqy1h+Uok4XNXbkhccBBvGOwc1N9QBU/xxmoU+OTdjst2FQRVqpUs8O0HVDklZPCH29JVZZW08PILsPmtYPMJtP7kORhTNj+2mxNjS+8C2cPqInBzlsHhRNrN7Xt18ZPWrhSBYYUX2jefu1H/fa6Vi//KpzSfuxF/H3Q3qrhhhKs45HQgkDpcvwXbcdUXK0oouYc3Fo0huB6fQUzhOoJwwz29Ui7xz7qQNoQbHv7bDlY4Ks8MuxwdhxzXdVr1eqnVbp1pO85fhwKBv8zlcmfF6rW00SgibGn85nzbtu1Mh+j/DgXDPxIKh+4MBoO7gsGQHQwFDQgr5WYMsXDSVjP8jouA//fiwjDw4ZfH73wBBgLeyhM83bR6xU9rdfjp2RfPQZEQZypeDOJLWSV6Fy8n4PNd7IbX9d4CAb+F7HqxYQvdgOaf/uYKs94+YFb32qgFHh9XqcU5XOcamPqLB3rn45l/1CTde6b07WN+cTh3FZLaRv+t65Wk6v+t36yexcdrJp+3ZwXqW4SUqB1k2X/i9aw06s57wwURg/vwn6MW1NoGNcLhLLsaMQH023APM/MfeDHfv9648+95mP3597Pgz0MOwt415oMx1wrsv9b696zBGNXB9qhbh7oo+9d233I799znTn3+fQ9a+edaftVe5rUzD1zv19wvfcDnfOZd0L02dFVlFaxO1B4Ovp9j/+xyNMgwDQ59CfLDvKp3jHRISJXEYTHewz72gResWAh5gUGAPShwT3rWLXYxtlps8eq7LV3+3Gm3ux3HKbYd51S71Xqk3W59xSD6r6VSKTfiy2Pd7k5E2PJ0fdS27cNGMPhcwzTvCQZDd5umeVswGAwHgxBhylevc7FoEQYffjSqVlbqJyK9HS4cxJlBZMGq1nHdXlAkvg9xpuLGXA6UxAWEn3HhQdq0EWDZbvfiA3Ah6wSy+oagLGdaOKhbDRYeYHGBeqk0G9e8vD+hjbz6s3cz0rcrfSNVt64beO3m6Q0t1fz78lqjd4Ti6N6tcc6N+ZpHtLmzhNpW37D7h/bfhOdfnDD3HPQ+5m6rjqX2BX7Dh0j423X9iWfIGc+7easH7et/Zz4O/s4YxgqFnoJ47e1rjldz4Ng3Mlh57l0lTn1uzoW+s8DdbPAc+hP24ISsxsQ158zjTA0Y/Y2+8J/v4PPz1pzmvfUMKqPrnfO8HmM9Uau2qAerQUHSv3b6Gsi/s/449QujOW3FPg3vwWGgff1z6xHq3TPmu5bmE4s3EpBM3usbfU/SbVOjrz/K1UMdOm2wH258HfSvVU81cxwWilO7vZuFPg7+jvvm9a5ZZsjjRbVbq3DlOgRDtxe7BQ8GvBr4Di/4Cpr8KIgHcn6ADwb57zq1BFbo457LD/befRoB8vi82WiypwRzAqxaOC76G3FdCLBHm5WFC3HGiDnuqBX62urlOC3XdZ922s7DjtN6yHWcfy2VSo8RUX15psz1u1cRYcvb90YikZgKhMP7Q6Z5m2EY32UEjO82TXN/KBSKsOULF5aXnwWCS79xIeIzFmRE/Hc86eCixf+4YHFV4eLBkxC2x0WF7XHR4yKDBQ1PQrCs4cLTeWDw1IPPsB0uOhZ33S7HB+CCxva4eHED09/xSZRrn+ZxgXurOvFdfYPCPpFPTcevcZu1EPC+A1Gqb3C8UtSzKum243e0ATcIHNgMmr3VodgXDHoQpEbA4L9bVpTrd2phipsazhcLHfCzPgb+ZyEKcRuJsIjVk45pqOOBu7YkatduJBLmmAmw1pZNiFkWr4bZm5x1mhG4BeBGRl/inHDDM8wgc8fTrJ4sVRCtyecIwcw3fO/ctfsAPPF93NCZCZ5k3Q5ZkahqrwEG4KRc2zh2q9nimEP8DdvjZo1ja4GBGzUEO89V3S5zwnHUNKUmCYhI7Bdc8OLJwsAE0eX/wQLnh9JdyWSCxweCd5WLXGXUxpjAJIK9qgcIx8tRhP7semNV7Rfs0M8sXnHO3iTHrhHHoUQiTpVyhYUAgohZrMECTESRcIj3jRf6h68DrBzD+ORUMA63CdwwHiJhNZFhosK+uJ9xLbVabF3A9kq+BvgaZNcPjx2TLQcxK0rBcJgaeNhBcDT61FvBjPGkrzMcE3E24AT+Khs5xlKLzwMMdEgdr4j2rh30GSwbSPZsBgzmipNB/0fDEao3G3w+OgCb+5KILSL6IUtfu/gM56tXXuNcsW/TwL3D4fPGvQhsmFHH4bghNW7BS1lRmC3+5o1RFgVeCAXODT8zI8/Cq4Uq9oX94/rBiIDIaLUdHhc6FEP3F4sTCBJP1HObcI3w91XyUG29R9+hqonaB8a5CuvAuEQfsncA/7i9AXWddOCWU3cjXBP4LrwJiOHV1z3OD+3AuEDf4V6Gb6jrSAW8w/uguajAeLVKka9dPi813tTvKlhe3afDPKYwhnB8NIb7PBzurYpHH/I9hQWvusfhhe/gPo3j6/s6Thy8eTx5/3M/e9vD8oXt2dLFC7066jiwdvXfzY7jHHc77r+65H6t7ThPuq3WsWq1elXivZZPKIgIWz62g3s2k8lkmiKR6WAgsM8g+l6iwL8xTfOuYCgU0eJL1+tSS4oxwagbnnZb8nZmkAMtYVrGiy9cL22FuojVAxv2gbgz3MBx84ZFC99RN49+Nn91g1UTpL7IOVgTNwjPJXqjB3I9iHADUOKn3TORN3yTBAq6op3aqocbKm48uhgsjo2/IaYBNxfOn+Y4XBQWFj20iYNDvfbrmylu1jgfHBttgCjV5ny2MgZxk9WTp9H/Pm6CrSYHrOKmqk3xfHP3nhR5STfELJ44mbNKYFgs5MmyYsxWC19M3OCL/sJSbtwMEfuHSQdtZf64WWKfuCF2YK1U1hX9RM0LNzzxo2uPQiTXqlW1MMN74uVJo9XiormNapVFGCZ1iCqww3tqepp5aWsA/sekhH1hjPA5e4IMExX6AfXgwBpBuThfnkQMrKaCmITQUNYFjE20DxMT2pGybSoWiz13O2IYIYgRq8IiDckgvQcO9DPf+HnCNjkvEcYa8u2xAMZnPEkqLshFpNi7PWswxgT+jn3zZ16fsVhksY2HlTBn7saLHy66Xc5vBMsChKS2uLCgZCuESlapuYM1fgcLvcAG11W5UuF94LwrpTLFk3GeICH+IXjxHRyPg53BKBLh8+M4HFxlrssrpXHdYELFeOAHI591WhdJ5gejsOKjRTlfkxhjtRr3OQseU03+PI46uMZ8sT8smgy+l/TEJMf8NPjYKLGGOn88sXs5CnV7kimbKpUyj12Me1QC0Q8Y4Is+g4CDkMK4aNTqZMUsbjOsLmiLfjjE5I/0PRirqr/w4KIEHq579Dvaj8/Vfa5/f2B2nnjHueJ6xPb4OxiibRZibJFOwbv2sB+MP37eNCAqOzxe+bqMRPhcVMFpZU1Swl31P46P/Wox5fBDmlp1yJxhyfJMiex9cHCdGN6Dq7Jm4a2D2cED/cX3Cu+Fthl42CAlnnQf6odWtBXXGcZwL3G394DAAt8w+Ht48YNE34rV+53dkfxgp4Lu9b618Gq3Wm230/lWl7pf7RL9D4foKDWbM+VyOS/CazziQETYeDgPHoUftvBwND09PdVqdZ5nmPTDRjD4fUEzuNMMmiavaMFTqPeUyZYxHQ9gYELDRK6EFp6q9cpJ3Nw4OBOTuZdgT9f+0hORnlhYsHmTAm46ShxhsQAsLOrJSz3Z9Zt/I48QizAvrQZ2jJsw30xx4/PdKHB83DRx02DrFk+ayn2KNipBoqxe2CdbgjyXqLYKqaXRTRYVfF5wvVarFMPk5llGtMBji4AnNNGOUERNXFh6rZ/+sQ/9VNlbIBFSVgNMFDyZ+lanqhu2sqTxBOm5qHBTx+pWnDNbFTyLm7IsurxCFkzq9UbP3auDXzEx6BQm6ulaWcPARicAhohQVgSIRlhBIzzp4PyxjTqe58bzrIr6CVhPIOCi89dBcOkxgyDearXq9QnEtOP1hxJNEIMsHr3l7pFohF09OJ6yBiqrAs6HJwmcgyeaVT8rQYu/QShjjOnJQ1kZvGAezyOGCZUnMkyeODdYhSAUiKhWhSBUX9FuGtSuw3EgmMAI/YuHEGynxwhbJ7wnf/SDHrMsvFgEGGyl6LXLE3iYDNEPqt+VaOMd4xx4osPvapKGGIfIguAulkocPqAFnxZSyjqjBJm26ICJskg3KBCARbDPkS3DrstjHvvCNQ3XE/oMYtRvQUG7cEyIxbgXW4p+Vulv1EMYLkidAgfXDcYtHtS0FUhP1trdBS54oNDXHV/DEFSehQV9jfGuhYu2zOkHIy1AMe60+06PI73yG2z4YcuzXrF1zRNkuBZgqdIWL7ZEuS4vWGLx01UPo7CSaYslAKP/8T2cF/oF40g/6Crrdj8eE23HQ4wWzeDID3CutmZ5gjGoHij0AwyOx+49b3yqcdSvkKJFkmIUZFGlLdkQc2gbHtRwPfG16HsQQJt04m/0D3jo/WHsstXUG0v4WVu8tGjT1lBOT8Eejk6n43TOdjqdf3a7nf+SjMf/v3PnziGbPXas4lHkNVYCIsLGinvBg4WT09N7Aq3WvYZpPidgmneYprnTNE3LNIORoGnibh4OGIZpGkZACSQlkli0eVYSbRZXAk1ZeLRFS9/AlbhQT3O4IWg3jIpVUEFWuLFhkldPeAtnutI3BRaMeDL23Ej6KVFPqPp4+klW38S0NUZPSqCln479bkF9g9cuHG310u4P3IwhjrQY4EncczvpmyeePvlcMY92XX5i10/Dul0qMEg9PepYDe3Gwg1Y32g1Xz1x9Z6CvQlECzZ9/vw7nvy9fSjt0b8UecLynrL53Dy3EYsHiEmvaK7er/pddZBqq+ciNE0Wljh3bTXFPryAJ3X+njiGANDWDy1CmQMmTc9aqdzBSqxrF4zuM+5jWLtgcfB+xt/AVE1uanzqSYHHiDfu+H/vPLVFRIsKzVR/l5fcG+q7eCl3nprIcD7q4UEt8NBWR45T9ASPduOw6zUMN63iy8KAXa19yyxbjT33JPYFgaArZagJvB8I7rfmapGhr0M9njRvnLsW/Poa1dYU5RJWglT3gxZLWISDYaLHP9oE4akfcvT1jOMhZEFbf3UMFbtbPQGuJ26cP4SZtpzr6027pHUb9BjV4gEiCAWa0V7VPuWyVoLIi9D0Asv1AwoPUc9FyW5a34MMs/dY9x+48DfPzY4xh/ANuKtRr9CzPPmvG3xfM9ciRFuMtJjEMfVnKvRQtZWtcZ6Y6rn/MS48XhhXytqnXjqqTFmX1AOjP04Df1M2bn0vVQ/HyjClhDePV4gqT2Bj/1rE6gcnff/mMeqNVfQrHpBU6IeyKPJ14rrdLoB1uy2n02l1Ok6z03FrnY5zuuu63+52Ov/quqGHy+WrJ3HpLDgbyQZjISAibCyYb/ogiCmbNgxjDxEdoGBwb5ACuwzT3BowzFTANOKGYSRMIxBzuxQLmkY0EDBCpmkaugSFevLEjVK5QnR8mf/JXIss3FD0ZK1rXeIJWU9cC50FbuCwyuCGhdgTPLlpIaatdhyT41n09ESmb4rKladEpXZF4aYFlx/HjsHCwzdqaCOVdFDHxQ3e/PXKUnZ58I2/XypK30aVIUPduLXY8QtO3QYtAPU2/HefZU7Hx/DF5E0y+HnQZaEn9d53fcdWwhNP80qo6Am+dxP24rD0BM8xIJ744NgOLT4GVmj1uHiWOo5l40SOSrjw/jwx7he8+tz1OOGxA8urF8emxZeOjdMCA+3W7sceJy/eRYsjf3AyT0ae2NHnoUWm5q5EvIq3Y3HgBUprK6N/ctNiQI9VLTB6wloHrHuiTPPRkzmuFfQBzkFZjFQQPrZT59zvHy1ctGBhy6jPMuS/ueoHCy089b5ZKHrjT8fpaCuijgvU7nA1+ysBypO3x05bybTwVNeT6itXP2xxeIKpLCk6Vs2z6mkrdE8UexYoCGEtCpR4Ue5DXpvAMZDquvE/XGA7bfHk8/DiUiGa8CCjREn/O5yV3XNP6vPT8VFsufUJN39/6G211Yivd47FU0KQr0O2tOKhRD1s+K9HLbSUtbkviPQ2ejzo/3F9aaGuH7LYYu/FT6pViEpw4ZzYoq3vBdwW2MHV59rCqSz+SszrbXn8ePdpWLrxwMFWdO/+1XFdt+u6bafTaRhEta7brXXcTsV1u5WO2ylRxz3vkHuaHOdEt9s95rruM9Vq9Ypn5VroFi6frwABEWErAH2Jhwxs2LAh3m63p13X3UCmucHoGlNkUsYIBNIUCGRMw0xRgBJI0m8EArFAIJAkMiwKkBUgigQCgSgRLGoBRJeGAsqcxncq3GR1MDVuDEjqB0GlQqv12mzvOdBvuPYy+8MVp0WEirvpx05oYeEdap61i/3hiBsW3wC9p2l9Y9W/+wWP5qlvjnpi0E/Weq/6yVdb0Hh7TCS+Wp76Zq3N/voGqW+Y2uqib/I9Met7wp/ztNxbMj/3UtNt1Ey0MFRPyP40HP20HYOTSO+8OdBYuSl67cXfPKsXT5w6IYgOuveEqRbHsARyzJAnCvTkoPfXCxzvH8Rb7KUmfM2FOXmLBPS5acuIEmpq7Oi/aa5aiOgJiMWxNwlrAcPjYWD1oN8SovbZ3z9bO01lfVAGgv5K1d6+tAj1WbX0OfNYG0gr0BOlvn71n0t/jOs+VO5aLTRYWPriibSlTQuZ/jjXDyKqT7RlRQsoPqZvSetc0dxbxOd7yNBo1Ojka9zrBz3m4E71X3O9AeUtrNC/awvOoFDhfvIskHqhRE94K6jemOm3T99StDDr/a5A9sZk7/ajRY+2Hnu/9/c9d7mzvub5Wh+442grVa/PvDb6H0qZlSfAlfTschxJ7/r3HsYGxZRe+aiZ9R8qleWMX90uG7coQO2uSw6R2+p2u40uUQPhdURuvdvtlt1uoEZEFeq61U7XLZLrFtxutxBwKdfptGcCgcAVvEOh0MyVK1eq4lLsjdxV8YOIsFXRTUM3Ev0ZTqfTVqvVskKhkNXpdCzDMGJd04wYrhsxDCPcNYyw0e2GuoYRCRBZgS7+BjFmRqjbgSgLdbuBoBHoBqemp4PhcNSkQNcIBAIm3+K6uFvz9KRzVgS63a6BiSZfKARazSaPK9d12WXKkQb84h8wK809IfwZf9Lb6Y9VmM21QQrzbKd3oe6Q3lR8vf312qNEJzbnEcYAAAPcSURBVIsC37b4C5582SLTazaap44y2Hz/8eZtr/9sew31IVFe0TltYBGiZoDe5DE4ifSQ9th5J8HfURMGHrT97Z1znLlN6PdBj79qbL/J3k9qFoJZ6pr+0ewMtN7fzd5Xe8f39zeO4DtP/ArWPUuf0ofUZU7KqtB76f1gmHmWxTlcBseC/uLAGOM5cZ7xgnMI8OIJNUbn8GQrhtoR/zQwrPFHb0Fbf9/efnp9qffhaw/v0HdeugMG+44ZzdnQO7nBa0Cfg/8Yesz1Gt9Hqi5exbt/7c7fpjnX2pzj+gc6rK1w7eJBwQdpgGd/bHh0fAKZ2+M1UV9jantoGMMbG/1z0Nctb+sfe/Nci73+1fs3PQHteZyV5Zp/0SkYtYrCwEUbut6tgtess7gKGDBVdgLdgBMIdNsukRPodjvdbherVNrdTqcZcAOtrtFl4RVwA0034LYDrovUEC3XMJqBTqfpum7VNM1Gu92uh8PheqFQwEoTuBL9j8D+s5KfVxkBEWGrrMNG3Fz2tHjzlLF7927DcZxAu902IKA6nY6RTqcD+Blvsm1K4n8VQ6Hu1fF4bwy5xWJAZ/fX97MRt1d2JwSEgBBYKQJzhE8gAAf9nBf/jr/736ZpuvjdMIxuKBRyg8Fg9+TJk1Ckng9TAuJXqkMn4bgiwiahF6QNQkAICAEhIASEwLojICJs3XW5nLAQEAJCQAgIASEwCQREhE1CL0gbhIAQEAJCQAgIgXVHQETYuutyOWEhIASEgBAQAkJgEgiICJuEXpA2CAEhIASEgBAQAuuOgIiwddflcsJCQAgIASEgBITAJBAQETYJvSBtEAJCQAgIASEgBNYdARFh667L5YSFgBAQAkJACAiBSSAgImwSekHaIASEgBAQAkJACKw7AiLC1l2XywkLASEgBISAEBACk0BARNgk9IK0QQgIASEgBISAEFh3BESErbsulxMWAkJACAgBISAEJoGAiLBJ6AVpgxAQAkJACAgBIbDuCIgIW3ddLicsBISAEBACQkAITAIBEWGT0AvSBiEgBISAEBACQmDdERARtu66XE5YCAgBISAEhIAQmAQCIsImoRekDUJACAgBISAEhMC6IyAibN11uZywEBACQkAICAEhMAkERIRNQi9IG4SAEBACQkAICIF1R0BE2LrrcjlhISAEhIAQEAJCYBIIiAibhF6QNggBISAEhIAQEALrjoCIsHXX5XLCQkAICAEhIASEwCQQEBE2Cb0gbRACQkAICAEhIATWHQERYeuuy+WEhYAQEAJCQAgIgUkgICJsEnpB2iAEhIAQEAJCQAisOwL/Pz25mJACoMy7AAAAAElFTkSuQmCC;" parent="1" vertex="1">
          <mxGeometry x="26" y="310" width="96.46" height="190" as="geometry" />
        </mxCell>
        <mxCell id="xbvdMizEcRErGRKFWVjV-14" value="" style="shape=image;imageAspect=0;aspect=fixed;verticalLabelPosition=bottom;verticalAlign=top;image=https://www.startpage.com/av/proxy-image?piurl=https%3A%2F%2Fstatic.vecteezy.com%2Fsystem%2Fresources%2Fpreviews%2F016%2F716%2F458%2Foriginal%2Fspotify-icon-free-png.png&amp;sp=1725798301T1bbddbc3abe42212977c7c80614ac32aba5ad92cec42145e1317042dc2d874b6;" parent="1" vertex="1">
          <mxGeometry x="44.23000000000002" y="385" width="60" height="60" as="geometry" />
        </mxCell>
        <mxCell id="xbvdMizEcRErGRKFWVjV-16" style="edgeStyle=orthogonalEdgeStyle;rounded=0;orthogonalLoop=1;jettySize=auto;html=1;strokeWidth=3;" parent="1" source="xbvdMizEcRErGRKFWVjV-13" edge="1">
          <mxGeometry relative="1" as="geometry">
            <mxPoint x="116.45999999999998" y="390" as="sourcePoint" />
            <mxPoint x="348.81999999999994" y="322" as="targetPoint" />
            <Array as="points">
              <mxPoint x="150" y="390" />
              <mxPoint x="150" y="322" />
            </Array>
          </mxGeometry>
        </mxCell>
        <mxCell id="xbvdMizEcRErGRKFWVjV-20" style="edgeStyle=orthogonalEdgeStyle;rounded=0;orthogonalLoop=1;jettySize=auto;html=1;" parent="1" edge="1">
          <mxGeometry relative="1" as="geometry">
            <mxPoint x="117.45999999999992" y="458.9599999999999" as="sourcePoint" />
            <mxPoint x="640" y="459" as="targetPoint" />
          </mxGeometry>
        </mxCell>
        <mxCell id="JxxuHk10XyjqmYtLQA9z-24" value="" style="shape=mxgraph.mockup.markup.redX;fillColor=#ff0000;html=1;shadow=0;whiteSpace=wrap;strokeColor=none;" parent="1" vertex="1">
          <mxGeometry x="363.25" y="445" width="44" height="40" as="geometry" />
        </mxCell>
        <mxCell id="xbvdMizEcRErGRKFWVjV-21" value="" style="shape=image;imageAspect=0;aspect=fixed;verticalLabelPosition=bottom;verticalAlign=top;image=https://www.startpage.com/av/proxy-image?piurl=https%3A%2F%2Fstatic.vecteezy.com%2Fsystem%2Fresources%2Fpreviews%2F016%2F716%2F458%2Foriginal%2Fspotify-icon-free-png.png&amp;sp=1725798301T1bbddbc3abe42212977c7c80614ac32aba5ad92cec42145e1317042dc2d874b6;rotation=0;opacity=75;" parent="1" vertex="1">
          <mxGeometry x="708" y="400" width="52" height="52" as="geometry" />
        </mxCell>
      </root>
    </mxGraphModel>
  </diagram>
</mxfile>
